ISO-10303-21;
HEADER;
/* Generated by software containing ST-Developer
 * from STEP Tools, Inc. (www.steptools.com) 
 */

FILE_DESCRIPTION(
/* description */ (''),
/* implementation_level */ '2;1');

FILE_NAME(
/* name */ 'drillguide.step',
/* time_stamp */ '2026-09-21T09:35:30+02:00',
/* author */ (''),
/* organization */ (''),
/* preprocessor_version */ 'ST-DEVELOPER v20.2',
/* originating_system */ 'Autodesk Translation Framework v15.15.0.0',
/* authorisation */ '');

FILE_SCHEMA (('AUTOMOTIVE_DESIGN { 1 0 10303 214 3 1 1 }'));
ENDSEC;

DATA;
#10=MECHANICAL_DESIGN_GEOMETRIC_PRESENTATION_REPRESENTATION('',(#13),#1385);
#11=SHAPE_REPRESENTATION_RELATIONSHIP('SRR','None',#1391,#12);
#12=ADVANCED_BREP_SHAPE_REPRESENTATION('',(#14),#1384);
#13=STYLED_ITEM('',(#1400),#14);
#14=MANIFOLD_SOLID_BREP('drillguide',#544);
#15=PLANE('',#579);
#16=PLANE('',#581);
#17=PLANE('',#582);
#18=PLANE('',#583);
#19=PLANE('',#584);
#20=PLANE('',#585);
#21=PLANE('',#586);
#22=PLANE('',#587);
#23=PLANE('',#588);
#24=PLANE('',#589);
#25=PLANE('',#594);
#26=ELLIPSE('',#576,52.2961661512214,45.1552248155204);
#27=ELLIPSE('',#578,52.2961661512214,45.1552248155204);
#28=(
BOUNDED_CURVE()
B_SPLINE_CURVE(2,(#1215,#1216,#1217),.UNSPECIFIED.,.F.,.F.)
B_SPLINE_CURVE_WITH_KNOTS((3,3),(0.,0.363221152360773),.UNSPECIFIED.)
CURVE()
GEOMETRIC_REPRESENTATION_ITEM()
RATIONAL_B_SPLINE_CURVE((1.,1.00001474401158,1.))
REPRESENTATION_ITEM('')
);
#29=(
BOUNDED_CURVE()
B_SPLINE_CURVE(2,(#1221,#1222,#1223),.UNSPECIFIED.,.F.,.F.)
B_SPLINE_CURVE_WITH_KNOTS((3,3),(0.,0.363221152360773),.UNSPECIFIED.)
CURVE()
GEOMETRIC_REPRESENTATION_ITEM()
RATIONAL_B_SPLINE_CURVE((1.,1.0000147391355,1.))
REPRESENTATION_ITEM('')
);
#30=FACE_BOUND('',#113,.T.);
#31=FACE_BOUND('',#114,.T.);
#32=FACE_BOUND('',#115,.T.);
#33=FACE_BOUND('',#116,.T.);
#34=FACE_BOUND('',#117,.T.);
#35=FACE_BOUND('',#132,.T.);
#36=FACE_BOUND('',#133,.T.);
#37=FACE_BOUND('',#134,.T.);
#38=FACE_BOUND('',#135,.T.);
#39=CONICAL_SURFACE('',#573,45.7066669490568,0.132645023151569);
#40=B_SPLINE_SURFACE_WITH_KNOTS('',3,3,((#827,#828,#829,#830,#831),(#832,
#833,#834,#835,#836),(#837,#838,#839,#840,#841),(#842,#843,#844,#845,#846),
(#847,#848,#849,#850,#851)),.UNSPECIFIED.,.F.,.F.,.F.,(4,1,4),(4,1,4),(0.,
0.571428571428571,1.),(0.,0.146233301528502,0.341211036899838),
 .UNSPECIFIED.);
#41=B_SPLINE_SURFACE_WITH_KNOTS('',3,3,((#868,#869,#870,#871,#872),(#873,
#874,#875,#876,#877),(#878,#879,#880,#881,#882),(#883,#884,#885,#886,#887),
(#888,#889,#890,#891,#892)),.UNSPECIFIED.,.F.,.F.,.F.,(4,1,4),(4,1,4),(0.,
0.571428571428571,1.),(2.4273123934339E-14,0.146233295405961,0.341211022613877),
 .UNSPECIFIED.);
#42=B_SPLINE_SURFACE_WITH_KNOTS('',3,3,((#915,#916,#917,#918),(#919,#920,
#921,#922),(#923,#924,#925,#926),(#927,#928,#929,#930),(#931,#932,#933,
#934)),.UNSPECIFIED.,.F.,.F.,.F.,(4,1,4),(4,4),(0.,0.571428571428571,1.),
(0.262639913323026,2.04301845700387),.UNSPECIFIED.);
#43=B_SPLINE_SURFACE_WITH_KNOTS('',3,3,((#1000,#1001,#1002,#1003),(#1004,
#1005,#1006,#1007),(#1008,#1009,#1010,#1011),(#1012,#1013,#1014,#1015),
(#1016,#1017,#1018,#1019)),.UNSPECIFIED.,.F.,.F.,.F.,(4,1,4),(4,4),(0.,
0.571428571428571,1.),(0.338306017935479,2.11868456161903),
 .UNSPECIFIED.);
#44=CIRCLE('',#548,2.24999999999999);
#45=CIRCLE('',#549,0.750000000000008);
#46=CIRCLE('',#550,3.);
#47=CIRCLE('',#551,0.75);
#48=CIRCLE('',#553,3.);
#49=CIRCLE('',#554,0.75);
#50=CIRCLE('',#555,2.25);
#51=CIRCLE('',#556,0.750000000000001);
#52=CIRCLE('',#558,60.);
#53=CIRCLE('',#559,59.25);
#54=CIRCLE('',#560,0.75);
#55=CIRCLE('',#561,0.750000000000003);
#56=CIRCLE('',#562,0.75);
#57=CIRCLE('',#563,0.749999999999993);
#58=CIRCLE('',#566,46.3632423162489);
#59=CIRCLE('',#567,45.6198306610603);
#60=CIRCLE('',#570,3.);
#61=CIRCLE('',#572,3.);
#62=CIRCLE('',#574,43.3049541752397);
#63=CIRCLE('',#575,44.2055964654211);
#64=CIRCLE('',#577,44.8527246294774);
#65=CIRCLE('',#580,60.);
#66=TOROIDAL_SURFACE('',#547,2.24999999999999,0.750000000000008);
#67=TOROIDAL_SURFACE('',#552,2.25,0.750000000000001);
#68=TOROIDAL_SURFACE('',#557,59.25,0.75);
#69=TOROIDAL_SURFACE('',#565,46.3632423162489,0.75);
#70=FACE_OUTER_BOUND('',#99,.T.);
#71=FACE_OUTER_BOUND('',#100,.T.);
#72=FACE_OUTER_BOUND('',#101,.T.);
#73=FACE_OUTER_BOUND('',#102,.T.);
#74=FACE_OUTER_BOUND('',#103,.T.);
#75=FACE_OUTER_BOUND('',#104,.T.);
#76=FACE_OUTER_BOUND('',#105,.T.);
#77=FACE_OUTER_BOUND('',#106,.T.);
#78=FACE_OUTER_BOUND('',#107,.T.);
#79=FACE_OUTER_BOUND('',#108,.T.);
#80=FACE_OUTER_BOUND('',#109,.T.);
#81=FACE_OUTER_BOUND('',#110,.T.);
#82=FACE_OUTER_BOUND('',#111,.T.);
#83=FACE_OUTER_BOUND('',#112,.T.);
#84=FACE_OUTER_BOUND('',#118,.T.);
#85=FACE_OUTER_BOUND('',#119,.T.);
#86=FACE_OUTER_BOUND('',#120,.T.);
#87=FACE_OUTER_BOUND('',#121,.T.);
#88=FACE_OUTER_BOUND('',#122,.T.);
#89=FACE_OUTER_BOUND('',#123,.T.);
#90=FACE_OUTER_BOUND('',#124,.T.);
#91=FACE_OUTER_BOUND('',#125,.T.);
#92=FACE_OUTER_BOUND('',#126,.T.);
#93=FACE_OUTER_BOUND('',#127,.T.);
#94=FACE_OUTER_BOUND('',#128,.T.);
#95=FACE_OUTER_BOUND('',#129,.T.);
#96=FACE_OUTER_BOUND('',#130,.T.);
#97=FACE_OUTER_BOUND('',#131,.T.);
#98=FACE_OUTER_BOUND('',#136,.T.);
#99=EDGE_LOOP('',(#348,#349,#350,#351,#352,#353,#354));
#100=EDGE_LOOP('',(#355,#356,#357,#358));
#101=EDGE_LOOP('',(#359,#360,#361,#362));
#102=EDGE_LOOP('',(#363,#364,#365,#366));
#103=EDGE_LOOP('',(#367,#368,#369,#370));
#104=EDGE_LOOP('',(#371,#372,#373,#374));
#105=EDGE_LOOP('',(#375,#376,#377,#378));
#106=EDGE_LOOP('',(#379,#380,#381,#382));
#107=EDGE_LOOP('',(#383,#384,#385,#386));
#108=EDGE_LOOP('',(#387,#388,#389,#390));
#109=EDGE_LOOP('',(#391,#392,#393,#394));
#110=EDGE_LOOP('',(#395,#396,#397,#398));
#111=EDGE_LOOP('',(#399,#400,#401,#402));
#112=EDGE_LOOP('',(#403,#404,#405,#406));
#113=EDGE_LOOP('',(#407,#408));
#114=EDGE_LOOP('',(#409,#410));
#115=EDGE_LOOP('',(#411,#412));
#116=EDGE_LOOP('',(#413,#414));
#117=EDGE_LOOP('',(#415,#416,#417,#418,#419,#420));
#118=EDGE_LOOP('',(#421,#422,#423,#424,#425,#426,#427,#428));
#119=EDGE_LOOP('',(#429,#430,#431,#432));
#120=EDGE_LOOP('',(#433,#434,#435,#436,#437,#438,#439,#440));
#121=EDGE_LOOP('',(#441,#442,#443,#444));
#122=EDGE_LOOP('',(#445,#446,#447,#448));
#123=EDGE_LOOP('',(#449,#450,#451,#452));
#124=EDGE_LOOP('',(#453,#454,#455,#456,#457,#458));
#125=EDGE_LOOP('',(#459,#460,#461,#462));
#126=EDGE_LOOP('',(#463,#464,#465,#466));
#127=EDGE_LOOP('',(#467,#468,#469,#470));
#128=EDGE_LOOP('',(#471,#472,#473,#474,#475,#476));
#129=EDGE_LOOP('',(#477,#478,#479,#480,#481,#482));
#130=EDGE_LOOP('',(#483,#484,#485,#486,#487,#488));
#131=EDGE_LOOP('',(#489,#490,#491,#492));
#132=EDGE_LOOP('',(#493,#494,#495));
#133=EDGE_LOOP('',(#496,#497));
#134=EDGE_LOOP('',(#498,#499));
#135=EDGE_LOOP('',(#500,#501));
#136=EDGE_LOOP('',(#502,#503,#504,#505));
#137=LINE('',#766,#163);
#138=LINE('',#910,#164);
#139=LINE('',#911,#165);
#140=LINE('',#998,#166);
#141=LINE('',#999,#167);
#142=LINE('',#1083,#168);
#143=LINE('',#1084,#169);
#144=LINE('',#1089,#170);
#145=LINE('',#1090,#171);
#146=LINE('',#1230,#172);
#147=LINE('',#1232,#173);
#148=LINE('',#1237,#174);
#149=LINE('',#1239,#175);
#150=LINE('',#1240,#176);
#151=LINE('',#1243,#177);
#152=LINE('',#1244,#178);
#153=LINE('',#1247,#179);
#154=LINE('',#1248,#180);
#155=LINE('',#1251,#181);
#156=LINE('',#1253,#182);
#157=LINE('',#1254,#183);
#158=LINE('',#1256,#184);
#159=LINE('',#1258,#185);
#160=LINE('',#1262,#186);
#161=LINE('',#1302,#187);
#162=LINE('',#1342,#188);
#163=VECTOR('',#599,1.);
#164=VECTOR('',#636,10.);
#165=VECTOR('',#637,10.);
#166=VECTOR('',#646,10.);
#167=VECTOR('',#647,10.);
#168=VECTOR('',#652,10.);
#169=VECTOR('',#653,10.);
#170=VECTOR('',#658,10.);
#171=VECTOR('',#659,10.);
#172=VECTOR('',#674,10.);
#173=VECTOR('',#677,10.);
#174=VECTOR('',#684,10.);
#175=VECTOR('',#685,10.);
#176=VECTOR('',#686,10.);
#177=VECTOR('',#689,10.);
#178=VECTOR('',#690,10.);
#179=VECTOR('',#693,10.);
#180=VECTOR('',#694,10.);
#181=VECTOR('',#697,10.);
#182=VECTOR('',#698,10.);
#183=VECTOR('',#699,10.);
#184=VECTOR('',#702,10.);
#185=VECTOR('',#705,10.);
#186=VECTOR('',#710,2.125);
#187=VECTOR('',#713,2.125);
#188=VECTOR('',#716,2.125);
#189=B_SPLINE_CURVE_WITH_KNOTS('',3,(#725,#726,#727,#728,#729,#730,#731,
#732,#733,#734),.UNSPECIFIED.,.F.,.F.,(4,2,2,2,4),(0.150677670325536,0.188347087857902,
0.226016505390268,0.26368592302067,0.301355340651072),.UNSPECIFIED.);
#190=B_SPLINE_CURVE_WITH_KNOTS('',3,(#736,#737,#738,#739,#740,#741,#742,
#743,#744,#745,#746,#747,#748,#749,#750,#751,#752,#753,#754),
 .UNSPECIFIED.,.F.,.F.,(4,2,2,2,3,2,2,2,4),(0.452033010976609,0.489702428508974,
0.52737184604134,0.565041263671742,0.602710681302145,0.640380098932547,
0.67804951656295,0.715718934095315,0.753388351627681),.UNSPECIFIED.);
#191=B_SPLINE_CURVE_WITH_KNOTS('',3,(#755,#756,#757,#758,#759,#760,#761,
#762,#763,#764),.UNSPECIFIED.,.F.,.F.,(4,2,2,2,4),(0.301355340651072,0.339024758281475,
0.376694175911877,0.414363593444243,0.452033010976609),.UNSPECIFIED.);
#192=B_SPLINE_CURVE_WITH_KNOTS('',3,(#768,#769,#770,#771,#772,#773,#774,
#775,#776,#777,#778,#779,#780,#781,#782,#783,#784,#785),.UNSPECIFIED.,.F.,
 .F.,(4,2,2,2,2,2,2,2,4),(0.,0.0380401526470388,0.0760803052940776,0.113915989940068,
0.151751674586059,0.18958735923205,0.227423043878041,0.265463196525079,
0.303198430325059),.UNSPECIFIED.);
#193=B_SPLINE_CURVE_WITH_KNOTS('',3,(#786,#787,#788,#789,#790,#791,#792,
#793,#794,#795,#796,#797,#798,#799,#800,#801,#802,#803,#804,#805),
 .UNSPECIFIED.,.F.,.F.,(4,2,2,2,2,2,2,2,2,4),(0.303198430325059,0.303503349172118,
0.341403967375077,0.379304585578036,0.416876902821113,0.454449220064189,
0.492021537307266,0.529593854550343,0.567494472753302,0.605395090956261),
 .UNSPECIFIED.);
#194=B_SPLINE_CURVE_WITH_KNOTS('',3,(#854,#855,#856,#857,#858),
 .UNSPECIFIED.,.F.,.F.,(4,1,4),(0.,0.146233301528502,0.341211036899838),
 .UNSPECIFIED.);
#195=B_SPLINE_CURVE_WITH_KNOTS('',3,(#862,#863,#864,#865,#866),
 .UNSPECIFIED.,.F.,.F.,(4,1,4),(-0.341211036899838,-0.146233301528502,0.),
 .UNSPECIFIED.);
#196=B_SPLINE_CURVE_WITH_KNOTS('',3,(#895,#896,#897,#898,#899),
 .UNSPECIFIED.,.F.,.F.,(4,1,4),(2.4273123934339E-14,0.146233295405961,0.341211022613877),
 .UNSPECIFIED.);
#197=B_SPLINE_CURVE_WITH_KNOTS('',3,(#903,#904,#905,#906,#907),
 .UNSPECIFIED.,.F.,.F.,(4,1,4),(-0.341211022613877,-0.146233295405961,-2.4273123934339E-14),
 .UNSPECIFIED.);
#198=B_SPLINE_CURVE_WITH_KNOTS('',3,(#937,#938,#939,#940,#941,#942,#943,
#944,#945,#946,#947,#948,#949,#950,#951,#952,#953,#954,#955,#956,#957,#958,
#959,#960,#961,#962,#963,#964,#965,#966,#967,#968,#969,#970,#971,#972,#973,
#974,#975,#976,#977,#978,#979,#980,#981,#982,#983,#984,#985,#986,#987,#988),
 .UNSPECIFIED.,.F.,.F.,(4,3,3,3,3,3,3,3,3,3,3,3,3,3,3,3,3,4),(0.,0.0299721813435956,
0.0603788233380041,0.0908644334039951,0.116257577371454,0.146767817010199,
0.17721068818414,0.194624833198459,0.225204994013963,0.233176489563751,
0.26346190871104,0.294162184515873,0.324939554455688,0.344137505040015,
0.375031603648431,0.405773729456483,0.435771704452257,0.455308864437876),
 .UNSPECIFIED.);
#199=B_SPLINE_CURVE_WITH_KNOTS('',3,(#989,#990,#991,#992),.UNSPECIFIED.,
 .F.,.F.,(4,4),(0.302669935186482,2.04301845700387),.UNSPECIFIED.);
#200=B_SPLINE_CURVE_WITH_KNOTS('',3,(#993,#994,#995,#996),.UNSPECIFIED.,
 .F.,.F.,(4,4),(-2.01299604360481,-0.262639913323026),.UNSPECIFIED.);
#201=B_SPLINE_CURVE_WITH_KNOTS('',3,(#1022,#1023,#1024,#1025,#1026,#1027,
#1028,#1029,#1030,#1031,#1032,#1033,#1034,#1035,#1036,#1037,#1038,#1039,
#1040,#1041,#1042,#1043,#1044,#1045,#1046,#1047,#1048,#1049,#1050,#1051,
#1052,#1053,#1054,#1055,#1056,#1057,#1058,#1059,#1060,#1061,#1062,#1063,
#1064,#1065,#1066,#1067,#1068,#1069,#1070),.UNSPECIFIED.,.F.,.F.,(4,3,3,
3,3,3,3,3,3,3,3,3,3,3,3,3,4),(0.,0.0300913465711846,0.0606972901929578,
0.0916115094737845,0.119221099973242,0.15004564266372,0.180833390247525,
0.210948483040712,0.237886405289718,0.260853209545794,0.291143705018333,
0.321700690963233,0.346790871959693,0.377304624605922,0.407807122964728,
0.437706607955524,0.455467566402536),.UNSPECIFIED.);
#202=B_SPLINE_CURVE_WITH_KNOTS('',3,(#1071,#1072,#1073,#1074),
 .UNSPECIFIED.,.F.,.F.,(4,4),(-2.11868456161903,-0.368328431339104),
 .UNSPECIFIED.);
#203=B_SPLINE_CURVE_WITH_KNOTS('',3,(#1075,#1076,#1077,#1078),
 .UNSPECIFIED.,.F.,.F.,(4,4),(0.338306017935479,2.07865453975558),
 .UNSPECIFIED.);
#204=B_SPLINE_CURVE_WITH_KNOTS('',3,(#1095,#1096,#1097,#1098,#1099,#1100,
#1101,#1102,#1103,#1104,#1105,#1106,#1107,#1108,#1109,#1110,#1111,#1112,
#1113,#1114),.UNSPECIFIED.,.F.,.F.,(4,2,2,2,2,2,2,2,2,4),(0.,0.0802627208889911,
0.160525441777982,0.240186863969657,0.319848286161331,0.399506408711557,
0.479164531261783,0.559420997165908,0.639677463070032,0.641082930637648),
 .UNSPECIFIED.);
#205=B_SPLINE_CURVE_WITH_KNOTS('',3,(#1115,#1116,#1117,#1118,#1119,#1120,
#1121,#1122,#1123,#1124,#1125,#1126,#1127,#1128,#1129,#1130,#1131,#1132),
 .UNSPECIFIED.,.F.,.F.,(4,2,2,2,2,2,2,2,4),(0.641082930637648,0.720780197370823,
0.801882931671615,0.882527200437288,0.963171469202961,1.04380713257912,
1.12444279595527,1.20553775610482,1.28663271625436),.UNSPECIFIED.);
#206=B_SPLINE_CURVE_WITH_KNOTS('',3,(#1135,#1136,#1137,#1138,#1139,#1140,
#1141,#1142,#1143,#1144,#1145,#1146,#1147,#1148,#1149,#1150,#1151,#1152,
#1153,#1154),.UNSPECIFIED.,.F.,.F.,(4,2,2,2,2,2,2,2,2,4),(0.,0.0802619583891435,
0.160523916778287,0.240184916283619,0.319845915788951,0.399504421537772,
0.479162927286592,0.559420158374608,0.639677389462624,0.641075682997924),
 .UNSPECIFIED.);
#207=B_SPLINE_CURVE_WITH_KNOTS('',3,(#1155,#1156,#1157,#1158,#1159,#1160,
#1161,#1162,#1163,#1164,#1165,#1166,#1167,#1168,#1169,#1170,#1171,#1172),
 .UNSPECIFIED.,.F.,.F.,(4,2,2,2,2,2,2,2,4),(0.641075682997924,0.720779170733126,
0.801880952003627,0.882524155076449,0.96316735814927,1.04380405756807,1.12444075698687,
1.20553666282471,1.28663256866255),.UNSPECIFIED.);
#208=B_SPLINE_CURVE_WITH_KNOTS('',3,(#1175,#1176,#1177,#1178,#1179,#1180,
#1181,#1182,#1183,#1184,#1185,#1186,#1187,#1188,#1189,#1190,#1191,#1192,
#1193,#1194),.UNSPECIFIED.,.F.,.F.,(4,2,2,2,2,2,2,2,2,4),(0.,0.0802559745618791,
0.160511949123758,0.240169828606714,0.319827708089671,0.399489404483254,
0.479151100876837,0.559414310991806,0.639677521106774,0.641019634003956),
 .UNSPECIFIED.);
#209=B_SPLINE_CURVE_WITH_KNOTS('',3,(#1195,#1196,#1197,#1198,#1199,#1200,
#1201,#1202,#1203,#1204,#1205,#1206,#1207,#1208,#1209,#1210,#1211,#1212),
 .UNSPECIFIED.,.F.,.F.,(4,2,2,2,2,2,2,2,4),(0.641019634003956,0.720771874788803,
0.801866228470832,0.882501229019325,0.963136229567819,1.04378118453926,
1.12442613951069,1.20552948606789,1.28663283262509),.UNSPECIFIED.);
#210=B_SPLINE_CURVE_WITH_KNOTS('',3,(#1264,#1265,#1266,#1267,#1268,#1269,
#1270,#1271,#1272,#1273,#1274,#1275,#1276,#1277,#1278,#1279,#1280,#1281),
 .UNSPECIFIED.,.F.,.F.,(4,2,2,2,2,2,2,2,4),(0.,0.0800531993583221,0.160106398716644,
0.240160495504454,0.320214592292264,0.400266760948191,0.480318929604118,
0.5603719363694,0.640424943134682),.UNSPECIFIED.);
#211=B_SPLINE_CURVE_WITH_KNOTS('',3,(#1282,#1283,#1284,#1285,#1286,#1287,
#1288,#1289,#1290,#1291,#1292,#1293,#1294,#1295,#1296,#1297,#1298,#1299),
 .UNSPECIFIED.,.F.,.F.,(4,2,2,2,2,2,2,2,4),(0.640424943134682,0.720477949899965,
0.800530956665247,0.880583125321174,0.9606352939771,1.04068939076491,1.12074348755272,
1.20079668691104,1.28084988626936),.UNSPECIFIED.);
#212=B_SPLINE_CURVE_WITH_KNOTS('',3,(#1304,#1305,#1306,#1307,#1308,#1309,
#1310,#1311,#1312,#1313,#1314,#1315,#1316,#1317,#1318,#1319,#1320,#1321),
 .UNSPECIFIED.,.F.,.F.,(4,2,2,2,2,2,2,2,4),(0.,0.0800530410582817,0.160106082116563,
0.240158566447485,0.320211050778406,0.400264794840279,0.480318538902153,
0.560371705789632,0.640424872677111),.UNSPECIFIED.);
#213=B_SPLINE_CURVE_WITH_KNOTS('',3,(#1322,#1323,#1324,#1325,#1326,#1327,
#1328,#1329,#1330,#1331,#1332,#1333,#1334,#1335,#1336,#1337,#1338,#1339),
 .UNSPECIFIED.,.F.,.F.,(4,2,2,2,2,2,2,2,4),(0.640424872677111,0.720478255249327,
0.800531637821543,0.88058516619886,0.960638694576178,1.04069138772841,1.12074408088065,
1.20079691311777,1.28084974535489),.UNSPECIFIED.);
#214=B_SPLINE_CURVE_WITH_KNOTS('',3,(#1344,#1345,#1346,#1347,#1348,#1349,
#1350,#1351,#1352,#1353,#1354,#1355,#1356,#1357,#1358,#1359,#1360,#1361),
 .UNSPECIFIED.,.F.,.F.,(4,2,2,2,2,2,2,2,4),(0.,0.0800530202171847,0.160106040434369,
0.240158331574566,0.320210622714762,0.400264580683999,0.480318538653235,
0.560371725362972,0.640424912072709),.UNSPECIFIED.);
#215=B_SPLINE_CURVE_WITH_KNOTS('',3,(#1362,#1363,#1364,#1365,#1366,#1367,
#1368,#1369,#1370,#1371,#1372,#1373,#1374,#1375,#1376,#1377,#1378,#1379),
 .UNSPECIFIED.,.F.,.F.,(4,2,2,2,2,2,2,2,4),(0.640424912072709,0.720478098782446,
0.800531285492183,0.880585243461419,0.960639201430656,1.04069149257085,
1.12074378371105,1.20079680392823,1.28084982414542),.UNSPECIFIED.);
#216=VERTEX_POINT('',#723);
#217=VERTEX_POINT('',#724);
#218=VERTEX_POINT('',#735);
#219=VERTEX_POINT('',#765);
#220=VERTEX_POINT('',#767);
#221=VERTEX_POINT('',#807);
#222=VERTEX_POINT('',#808);
#223=VERTEX_POINT('',#810);
#224=VERTEX_POINT('',#812);
#225=VERTEX_POINT('',#816);
#226=VERTEX_POINT('',#817);
#227=VERTEX_POINT('',#819);
#228=VERTEX_POINT('',#821);
#229=VERTEX_POINT('',#852);
#230=VERTEX_POINT('',#853);
#231=VERTEX_POINT('',#859);
#232=VERTEX_POINT('',#861);
#233=VERTEX_POINT('',#893);
#234=VERTEX_POINT('',#894);
#235=VERTEX_POINT('',#900);
#236=VERTEX_POINT('',#902);
#237=VERTEX_POINT('',#935);
#238=VERTEX_POINT('',#936);
#239=VERTEX_POINT('',#1020);
#240=VERTEX_POINT('',#1021);
#241=VERTEX_POINT('',#1080);
#242=VERTEX_POINT('',#1081);
#243=VERTEX_POINT('',#1086);
#244=VERTEX_POINT('',#1087);
#245=VERTEX_POINT('',#1093);
#246=VERTEX_POINT('',#1094);
#247=VERTEX_POINT('',#1133);
#248=VERTEX_POINT('',#1134);
#249=VERTEX_POINT('',#1173);
#250=VERTEX_POINT('',#1174);
#251=VERTEX_POINT('',#1213);
#252=VERTEX_POINT('',#1214);
#253=VERTEX_POINT('',#1218);
#254=VERTEX_POINT('',#1220);
#255=VERTEX_POINT('',#1224);
#256=VERTEX_POINT('',#1226);
#257=VERTEX_POINT('',#1236);
#258=VERTEX_POINT('',#1238);
#259=VERTEX_POINT('',#1242);
#260=VERTEX_POINT('',#1246);
#261=VERTEX_POINT('',#1250);
#262=VERTEX_POINT('',#1252);
#263=VERTEX_POINT('',#1261);
#264=VERTEX_POINT('',#1263);
#265=VERTEX_POINT('',#1301);
#266=VERTEX_POINT('',#1303);
#267=VERTEX_POINT('',#1341);
#268=VERTEX_POINT('',#1343);
#269=EDGE_CURVE('',#216,#217,#189,.T.);
#270=EDGE_CURVE('',#218,#216,#190,.T.);
#271=EDGE_CURVE('',#217,#218,#191,.T.);
#272=EDGE_CURVE('',#217,#219,#137,.T.);
#273=EDGE_CURVE('',#220,#219,#192,.T.);
#274=EDGE_CURVE('',#219,#220,#193,.T.);
#275=EDGE_CURVE('',#221,#222,#44,.T.);
#276=EDGE_CURVE('',#223,#222,#45,.T.);
#277=EDGE_CURVE('',#224,#223,#46,.F.);
#278=EDGE_CURVE('',#221,#224,#47,.T.);
#279=EDGE_CURVE('',#225,#226,#48,.F.);
#280=EDGE_CURVE('',#227,#225,#49,.T.);
#281=EDGE_CURVE('',#227,#228,#50,.T.);
#282=EDGE_CURVE('',#226,#228,#51,.T.);
#283=EDGE_CURVE('',#225,#223,#52,.T.);
#284=EDGE_CURVE('',#222,#227,#53,.T.);
#285=EDGE_CURVE('',#229,#230,#194,.F.);
#286=EDGE_CURVE('',#231,#229,#54,.T.);
#287=EDGE_CURVE('',#231,#232,#195,.T.);
#288=EDGE_CURVE('',#230,#232,#55,.T.);
#289=EDGE_CURVE('',#233,#234,#196,.F.);
#290=EDGE_CURVE('',#235,#233,#56,.T.);
#291=EDGE_CURVE('',#235,#236,#197,.T.);
#292=EDGE_CURVE('',#234,#236,#57,.T.);
#293=EDGE_CURVE('',#228,#235,#138,.T.);
#294=EDGE_CURVE('',#233,#226,#139,.T.);
#295=EDGE_CURVE('',#236,#231,#58,.T.);
#296=EDGE_CURVE('',#229,#234,#59,.T.);
#297=EDGE_CURVE('',#237,#238,#198,.T.);
#298=EDGE_CURVE('',#238,#233,#199,.T.);
#299=EDGE_CURVE('',#234,#237,#200,.T.);
#300=EDGE_CURVE('',#232,#221,#140,.T.);
#301=EDGE_CURVE('',#224,#230,#141,.T.);
#302=EDGE_CURVE('',#239,#240,#201,.T.);
#303=EDGE_CURVE('',#240,#229,#202,.T.);
#304=EDGE_CURVE('',#230,#239,#203,.T.);
#305=EDGE_CURVE('',#241,#242,#60,.T.);
#306=EDGE_CURVE('',#242,#225,#142,.T.);
#307=EDGE_CURVE('',#226,#241,#143,.T.);
#308=EDGE_CURVE('',#243,#244,#61,.T.);
#309=EDGE_CURVE('',#244,#224,#144,.T.);
#310=EDGE_CURVE('',#223,#243,#145,.T.);
#311=EDGE_CURVE('',#240,#237,#62,.T.);
#312=EDGE_CURVE('',#245,#246,#204,.T.);
#313=EDGE_CURVE('',#246,#245,#205,.T.);
#314=EDGE_CURVE('',#247,#248,#206,.T.);
#315=EDGE_CURVE('',#248,#247,#207,.T.);
#316=EDGE_CURVE('',#249,#250,#208,.T.);
#317=EDGE_CURVE('',#250,#249,#209,.T.);
#318=EDGE_CURVE('',#251,#252,#28,.T.);
#319=EDGE_CURVE('',#252,#253,#63,.T.);
#320=EDGE_CURVE('',#253,#254,#29,.T.);
#321=EDGE_CURVE('',#254,#255,#26,.T.);
#322=EDGE_CURVE('',#255,#256,#64,.T.);
#323=EDGE_CURVE('',#256,#251,#27,.T.);
#324=EDGE_CURVE('',#239,#244,#146,.T.);
#325=EDGE_CURVE('',#243,#242,#65,.T.);
#326=EDGE_CURVE('',#241,#238,#147,.T.);
#327=EDGE_CURVE('',#257,#253,#148,.T.);
#328=EDGE_CURVE('',#258,#257,#149,.T.);
#329=EDGE_CURVE('',#258,#254,#150,.T.);
#330=EDGE_CURVE('',#252,#259,#151,.T.);
#331=EDGE_CURVE('',#257,#259,#152,.T.);
#332=EDGE_CURVE('',#260,#251,#153,.T.);
#333=EDGE_CURVE('',#259,#260,#154,.T.);
#334=EDGE_CURVE('',#260,#261,#155,.T.);
#335=EDGE_CURVE('',#261,#262,#156,.T.);
#336=EDGE_CURVE('',#262,#258,#157,.T.);
#337=EDGE_CURVE('',#261,#256,#158,.T.);
#338=EDGE_CURVE('',#262,#255,#159,.T.);
#339=EDGE_CURVE('',#250,#263,#160,.T.);
#340=EDGE_CURVE('',#264,#263,#210,.T.);
#341=EDGE_CURVE('',#263,#264,#211,.T.);
#342=EDGE_CURVE('',#248,#265,#161,.T.);
#343=EDGE_CURVE('',#266,#265,#212,.T.);
#344=EDGE_CURVE('',#265,#266,#213,.T.);
#345=EDGE_CURVE('',#246,#267,#162,.T.);
#346=EDGE_CURVE('',#268,#267,#214,.T.);
#347=EDGE_CURVE('',#267,#268,#215,.T.);
#348=ORIENTED_EDGE('',*,*,#269,.F.);
#349=ORIENTED_EDGE('',*,*,#270,.F.);
#350=ORIENTED_EDGE('',*,*,#271,.F.);
#351=ORIENTED_EDGE('',*,*,#272,.T.);
#352=ORIENTED_EDGE('',*,*,#273,.F.);
#353=ORIENTED_EDGE('',*,*,#274,.F.);
#354=ORIENTED_EDGE('',*,*,#272,.F.);
#355=ORIENTED_EDGE('',*,*,#275,.T.);
#356=ORIENTED_EDGE('',*,*,#276,.F.);
#357=ORIENTED_EDGE('',*,*,#277,.F.);
#358=ORIENTED_EDGE('',*,*,#278,.F.);
#359=ORIENTED_EDGE('',*,*,#279,.F.);
#360=ORIENTED_EDGE('',*,*,#280,.F.);
#361=ORIENTED_EDGE('',*,*,#281,.T.);
#362=ORIENTED_EDGE('',*,*,#282,.F.);
#363=ORIENTED_EDGE('',*,*,#280,.T.);
#364=ORIENTED_EDGE('',*,*,#283,.T.);
#365=ORIENTED_EDGE('',*,*,#276,.T.);
#366=ORIENTED_EDGE('',*,*,#284,.T.);
#367=ORIENTED_EDGE('',*,*,#285,.F.);
#368=ORIENTED_EDGE('',*,*,#286,.F.);
#369=ORIENTED_EDGE('',*,*,#287,.T.);
#370=ORIENTED_EDGE('',*,*,#288,.F.);
#371=ORIENTED_EDGE('',*,*,#289,.F.);
#372=ORIENTED_EDGE('',*,*,#290,.F.);
#373=ORIENTED_EDGE('',*,*,#291,.T.);
#374=ORIENTED_EDGE('',*,*,#292,.F.);
#375=ORIENTED_EDGE('',*,*,#282,.T.);
#376=ORIENTED_EDGE('',*,*,#293,.T.);
#377=ORIENTED_EDGE('',*,*,#290,.T.);
#378=ORIENTED_EDGE('',*,*,#294,.T.);
#379=ORIENTED_EDGE('',*,*,#292,.T.);
#380=ORIENTED_EDGE('',*,*,#295,.T.);
#381=ORIENTED_EDGE('',*,*,#286,.T.);
#382=ORIENTED_EDGE('',*,*,#296,.T.);
#383=ORIENTED_EDGE('',*,*,#297,.T.);
#384=ORIENTED_EDGE('',*,*,#298,.T.);
#385=ORIENTED_EDGE('',*,*,#289,.T.);
#386=ORIENTED_EDGE('',*,*,#299,.T.);
#387=ORIENTED_EDGE('',*,*,#288,.T.);
#388=ORIENTED_EDGE('',*,*,#300,.T.);
#389=ORIENTED_EDGE('',*,*,#278,.T.);
#390=ORIENTED_EDGE('',*,*,#301,.T.);
#391=ORIENTED_EDGE('',*,*,#302,.T.);
#392=ORIENTED_EDGE('',*,*,#303,.T.);
#393=ORIENTED_EDGE('',*,*,#285,.T.);
#394=ORIENTED_EDGE('',*,*,#304,.T.);
#395=ORIENTED_EDGE('',*,*,#305,.T.);
#396=ORIENTED_EDGE('',*,*,#306,.T.);
#397=ORIENTED_EDGE('',*,*,#279,.T.);
#398=ORIENTED_EDGE('',*,*,#307,.T.);
#399=ORIENTED_EDGE('',*,*,#308,.T.);
#400=ORIENTED_EDGE('',*,*,#309,.T.);
#401=ORIENTED_EDGE('',*,*,#277,.T.);
#402=ORIENTED_EDGE('',*,*,#310,.T.);
#403=ORIENTED_EDGE('',*,*,#299,.F.);
#404=ORIENTED_EDGE('',*,*,#296,.F.);
#405=ORIENTED_EDGE('',*,*,#303,.F.);
#406=ORIENTED_EDGE('',*,*,#311,.T.);
#407=ORIENTED_EDGE('',*,*,#273,.T.);
#408=ORIENTED_EDGE('',*,*,#274,.T.);
#409=ORIENTED_EDGE('',*,*,#312,.T.);
#410=ORIENTED_EDGE('',*,*,#313,.T.);
#411=ORIENTED_EDGE('',*,*,#314,.T.);
#412=ORIENTED_EDGE('',*,*,#315,.T.);
#413=ORIENTED_EDGE('',*,*,#316,.T.);
#414=ORIENTED_EDGE('',*,*,#317,.T.);
#415=ORIENTED_EDGE('',*,*,#318,.T.);
#416=ORIENTED_EDGE('',*,*,#319,.T.);
#417=ORIENTED_EDGE('',*,*,#320,.T.);
#418=ORIENTED_EDGE('',*,*,#321,.T.);
#419=ORIENTED_EDGE('',*,*,#322,.T.);
#420=ORIENTED_EDGE('',*,*,#323,.T.);
#421=ORIENTED_EDGE('',*,*,#297,.F.);
#422=ORIENTED_EDGE('',*,*,#311,.F.);
#423=ORIENTED_EDGE('',*,*,#302,.F.);
#424=ORIENTED_EDGE('',*,*,#324,.T.);
#425=ORIENTED_EDGE('',*,*,#308,.F.);
#426=ORIENTED_EDGE('',*,*,#325,.T.);
#427=ORIENTED_EDGE('',*,*,#305,.F.);
#428=ORIENTED_EDGE('',*,*,#326,.T.);
#429=ORIENTED_EDGE('',*,*,#304,.F.);
#430=ORIENTED_EDGE('',*,*,#301,.F.);
#431=ORIENTED_EDGE('',*,*,#309,.F.);
#432=ORIENTED_EDGE('',*,*,#324,.F.);
#433=ORIENTED_EDGE('',*,*,#291,.F.);
#434=ORIENTED_EDGE('',*,*,#293,.F.);
#435=ORIENTED_EDGE('',*,*,#281,.F.);
#436=ORIENTED_EDGE('',*,*,#284,.F.);
#437=ORIENTED_EDGE('',*,*,#275,.F.);
#438=ORIENTED_EDGE('',*,*,#300,.F.);
#439=ORIENTED_EDGE('',*,*,#287,.F.);
#440=ORIENTED_EDGE('',*,*,#295,.F.);
#441=ORIENTED_EDGE('',*,*,#320,.F.);
#442=ORIENTED_EDGE('',*,*,#327,.F.);
#443=ORIENTED_EDGE('',*,*,#328,.F.);
#444=ORIENTED_EDGE('',*,*,#329,.T.);
#445=ORIENTED_EDGE('',*,*,#319,.F.);
#446=ORIENTED_EDGE('',*,*,#330,.T.);
#447=ORIENTED_EDGE('',*,*,#331,.F.);
#448=ORIENTED_EDGE('',*,*,#327,.T.);
#449=ORIENTED_EDGE('',*,*,#318,.F.);
#450=ORIENTED_EDGE('',*,*,#332,.F.);
#451=ORIENTED_EDGE('',*,*,#333,.F.);
#452=ORIENTED_EDGE('',*,*,#330,.F.);
#453=ORIENTED_EDGE('',*,*,#331,.T.);
#454=ORIENTED_EDGE('',*,*,#333,.T.);
#455=ORIENTED_EDGE('',*,*,#334,.T.);
#456=ORIENTED_EDGE('',*,*,#335,.T.);
#457=ORIENTED_EDGE('',*,*,#336,.T.);
#458=ORIENTED_EDGE('',*,*,#328,.T.);
#459=ORIENTED_EDGE('',*,*,#323,.F.);
#460=ORIENTED_EDGE('',*,*,#337,.F.);
#461=ORIENTED_EDGE('',*,*,#334,.F.);
#462=ORIENTED_EDGE('',*,*,#332,.T.);
#463=ORIENTED_EDGE('',*,*,#322,.F.);
#464=ORIENTED_EDGE('',*,*,#338,.F.);
#465=ORIENTED_EDGE('',*,*,#335,.F.);
#466=ORIENTED_EDGE('',*,*,#337,.T.);
#467=ORIENTED_EDGE('',*,*,#321,.F.);
#468=ORIENTED_EDGE('',*,*,#329,.F.);
#469=ORIENTED_EDGE('',*,*,#336,.F.);
#470=ORIENTED_EDGE('',*,*,#338,.T.);
#471=ORIENTED_EDGE('',*,*,#316,.F.);
#472=ORIENTED_EDGE('',*,*,#317,.F.);
#473=ORIENTED_EDGE('',*,*,#339,.T.);
#474=ORIENTED_EDGE('',*,*,#340,.F.);
#475=ORIENTED_EDGE('',*,*,#341,.F.);
#476=ORIENTED_EDGE('',*,*,#339,.F.);
#477=ORIENTED_EDGE('',*,*,#314,.F.);
#478=ORIENTED_EDGE('',*,*,#315,.F.);
#479=ORIENTED_EDGE('',*,*,#342,.T.);
#480=ORIENTED_EDGE('',*,*,#343,.F.);
#481=ORIENTED_EDGE('',*,*,#344,.F.);
#482=ORIENTED_EDGE('',*,*,#342,.F.);
#483=ORIENTED_EDGE('',*,*,#312,.F.);
#484=ORIENTED_EDGE('',*,*,#313,.F.);
#485=ORIENTED_EDGE('',*,*,#345,.T.);
#486=ORIENTED_EDGE('',*,*,#346,.F.);
#487=ORIENTED_EDGE('',*,*,#347,.F.);
#488=ORIENTED_EDGE('',*,*,#345,.F.);
#489=ORIENTED_EDGE('',*,*,#306,.F.);
#490=ORIENTED_EDGE('',*,*,#325,.F.);
#491=ORIENTED_EDGE('',*,*,#310,.F.);
#492=ORIENTED_EDGE('',*,*,#283,.F.);
#493=ORIENTED_EDGE('',*,*,#269,.T.);
#494=ORIENTED_EDGE('',*,*,#271,.T.);
#495=ORIENTED_EDGE('',*,*,#270,.T.);
#496=ORIENTED_EDGE('',*,*,#340,.T.);
#497=ORIENTED_EDGE('',*,*,#341,.T.);
#498=ORIENTED_EDGE('',*,*,#343,.T.);
#499=ORIENTED_EDGE('',*,*,#344,.T.);
#500=ORIENTED_EDGE('',*,*,#346,.T.);
#501=ORIENTED_EDGE('',*,*,#347,.T.);
#502=ORIENTED_EDGE('',*,*,#298,.F.);
#503=ORIENTED_EDGE('',*,*,#326,.F.);
#504=ORIENTED_EDGE('',*,*,#307,.F.);
#505=ORIENTED_EDGE('',*,*,#294,.F.);
#506=CYLINDRICAL_SURFACE('',#546,1.);
#507=CYLINDRICAL_SURFACE('',#564,0.75);
#508=CYLINDRICAL_SURFACE('',#568,0.75);
#509=CYLINDRICAL_SURFACE('',#569,3.);
#510=CYLINDRICAL_SURFACE('',#571,3.);
#511=CYLINDRICAL_SURFACE('',#590,2.125);
#512=CYLINDRICAL_SURFACE('',#591,2.125);
#513=CYLINDRICAL_SURFACE('',#592,2.125);
#514=CYLINDRICAL_SURFACE('',#593,60.);
#515=ADVANCED_FACE('',(#70),#506,.F.);
#516=ADVANCED_FACE('',(#71),#66,.T.);
#517=ADVANCED_FACE('',(#72),#67,.T.);
#518=ADVANCED_FACE('',(#73),#68,.T.);
#519=ADVANCED_FACE('',(#74),#40,.F.);
#520=ADVANCED_FACE('',(#75),#41,.F.);
#521=ADVANCED_FACE('',(#76),#507,.T.);
#522=ADVANCED_FACE('',(#77),#69,.T.);
#523=ADVANCED_FACE('',(#78),#42,.F.);
#524=ADVANCED_FACE('',(#79),#508,.T.);
#525=ADVANCED_FACE('',(#80),#43,.F.);
#526=ADVANCED_FACE('',(#81),#509,.T.);
#527=ADVANCED_FACE('',(#82),#510,.T.);
#528=ADVANCED_FACE('',(#83,#30,#31,#32,#33,#34),#39,.F.);
#529=ADVANCED_FACE('',(#84),#15,.T.);
#530=ADVANCED_FACE('',(#85),#16,.F.);
#531=ADVANCED_FACE('',(#86),#17,.F.);
#532=ADVANCED_FACE('',(#87),#18,.T.);
#533=ADVANCED_FACE('',(#88),#19,.T.);
#534=ADVANCED_FACE('',(#89),#20,.T.);
#535=ADVANCED_FACE('',(#90),#21,.T.);
#536=ADVANCED_FACE('',(#91),#22,.T.);
#537=ADVANCED_FACE('',(#92),#23,.T.);
#538=ADVANCED_FACE('',(#93),#24,.T.);
#539=ADVANCED_FACE('',(#94),#511,.F.);
#540=ADVANCED_FACE('',(#95),#512,.F.);
#541=ADVANCED_FACE('',(#96),#513,.F.);
#542=ADVANCED_FACE('',(#97,#35,#36,#37,#38),#514,.T.);
#543=ADVANCED_FACE('',(#98),#25,.F.);
#544=CLOSED_SHELL('',(#515,#516,#517,#518,#519,#520,#521,#522,#523,#524,
#525,#526,#527,#528,#529,#530,#531,#532,#533,#534,#535,#536,#537,#538,#539,
#540,#541,#542,#543));
#545=AXIS2_PLACEMENT_3D('',#721,#595,#596);
#546=AXIS2_PLACEMENT_3D('',#722,#597,#598);
#547=AXIS2_PLACEMENT_3D('',#806,#600,#601);
#548=AXIS2_PLACEMENT_3D('',#809,#602,#603);
#549=AXIS2_PLACEMENT_3D('',#811,#604,#605);
#550=AXIS2_PLACEMENT_3D('',#813,#606,#607);
#551=AXIS2_PLACEMENT_3D('',#814,#608,#609);
#552=AXIS2_PLACEMENT_3D('',#815,#610,#611);
#553=AXIS2_PLACEMENT_3D('',#818,#612,#613);
#554=AXIS2_PLACEMENT_3D('',#820,#614,#615);
#555=AXIS2_PLACEMENT_3D('',#822,#616,#617);
#556=AXIS2_PLACEMENT_3D('',#823,#618,#619);
#557=AXIS2_PLACEMENT_3D('',#824,#620,#621);
#558=AXIS2_PLACEMENT_3D('',#825,#622,#623);
#559=AXIS2_PLACEMENT_3D('',#826,#624,#625);
#560=AXIS2_PLACEMENT_3D('',#860,#626,#627);
#561=AXIS2_PLACEMENT_3D('',#867,#628,#629);
#562=AXIS2_PLACEMENT_3D('',#901,#630,#631);
#563=AXIS2_PLACEMENT_3D('',#908,#632,#633);
#564=AXIS2_PLACEMENT_3D('',#909,#634,#635);
#565=AXIS2_PLACEMENT_3D('',#912,#638,#639);
#566=AXIS2_PLACEMENT_3D('',#913,#640,#641);
#567=AXIS2_PLACEMENT_3D('',#914,#642,#643);
#568=AXIS2_PLACEMENT_3D('',#997,#644,#645);
#569=AXIS2_PLACEMENT_3D('',#1079,#648,#649);
#570=AXIS2_PLACEMENT_3D('',#1082,#650,#651);
#571=AXIS2_PLACEMENT_3D('',#1085,#654,#655);
#572=AXIS2_PLACEMENT_3D('',#1088,#656,#657);
#573=AXIS2_PLACEMENT_3D('',#1091,#660,#661);
#574=AXIS2_PLACEMENT_3D('',#1092,#662,#663);
#575=AXIS2_PLACEMENT_3D('',#1219,#664,#665);
#576=AXIS2_PLACEMENT_3D('',#1225,#666,#667);
#577=AXIS2_PLACEMENT_3D('',#1227,#668,#669);
#578=AXIS2_PLACEMENT_3D('',#1228,#670,#671);
#579=AXIS2_PLACEMENT_3D('',#1229,#672,#673);
#580=AXIS2_PLACEMENT_3D('',#1231,#675,#676);
#581=AXIS2_PLACEMENT_3D('',#1233,#678,#679);
#582=AXIS2_PLACEMENT_3D('',#1234,#680,#681);
#583=AXIS2_PLACEMENT_3D('',#1235,#682,#683);
#584=AXIS2_PLACEMENT_3D('',#1241,#687,#688);
#585=AXIS2_PLACEMENT_3D('',#1245,#691,#692);
#586=AXIS2_PLACEMENT_3D('',#1249,#695,#696);
#587=AXIS2_PLACEMENT_3D('',#1255,#700,#701);
#588=AXIS2_PLACEMENT_3D('',#1257,#703,#704);
#589=AXIS2_PLACEMENT_3D('',#1259,#706,#707);
#590=AXIS2_PLACEMENT_3D('',#1260,#708,#709);
#591=AXIS2_PLACEMENT_3D('',#1300,#711,#712);
#592=AXIS2_PLACEMENT_3D('',#1340,#714,#715);
#593=AXIS2_PLACEMENT_3D('',#1380,#717,#718);
#594=AXIS2_PLACEMENT_3D('',#1381,#719,#720);
#595=DIRECTION('axis',(0.,0.,1.));
#596=DIRECTION('refdir',(1.,0.,0.));
#597=DIRECTION('center_axis',(-0.838670567945424,-0.544639035015027,0.));
#598=DIRECTION('ref_axis',(0.544639035015027,-0.838670567945424,0.));
#599=DIRECTION('',(-0.838670567945424,-0.544639035015027,0.));
#600=DIRECTION('center_axis',(0.,0.,-1.));
#601=DIRECTION('ref_axis',(0.953761449375212,-0.300564631461681,0.));
#602=DIRECTION('center_axis',(0.,0.,1.));
#603=DIRECTION('ref_axis',(0.953761449375212,-0.30056463146168,0.));
#604=DIRECTION('center_axis',(-0.485068513285269,0.874476150286112,0.));
#605=DIRECTION('ref_axis',(0.874476150286112,0.485068513285269,0.));
#606=DIRECTION('center_axis',(0.,0.,-1.));
#607=DIRECTION('ref_axis',(0.953761449375211,-0.30056463146168,0.));
#608=DIRECTION('center_axis',(-0.898794046299167,-0.438371146789077,0.));
#609=DIRECTION('ref_axis',(0.,0.,-1.));
#610=DIRECTION('center_axis',(0.,0.,-1.));
#611=DIRECTION('ref_axis',(-1.,0.,0.));
#612=DIRECTION('center_axis',(0.,0.,-1.));
#613=DIRECTION('ref_axis',(-0.870428572651545,-0.492294728706081,0.));
#614=DIRECTION('center_axis',(0.29265478747571,0.956218163060892,0.));
#615=DIRECTION('ref_axis',(0.,0.,-1.));
#616=DIRECTION('center_axis',(0.,0.,1.));
#617=DIRECTION('ref_axis',(-0.870428572651545,-0.492294728706081,0.));
#618=DIRECTION('center_axis',(0.970295726275994,-0.241921895599676,-1.22068423538232E-14));
#619=DIRECTION('ref_axis',(-0.241921895599676,-0.970295726275994,0.));
#620=DIRECTION('center_axis',(0.,0.,1.));
#621=DIRECTION('ref_axis',(1.,0.,0.));
#622=DIRECTION('center_axis',(0.,0.,-1.));
#623=DIRECTION('ref_axis',(-0.104528463267653,0.994521895368273,0.));
#624=DIRECTION('center_axis',(0.,0.,1.));
#625=DIRECTION('ref_axis',(-0.104528463267653,0.994521895368273,0.));
#626=DIRECTION('center_axis',(-0.493023502674791,0.870015991698015,0.));
#627=DIRECTION('ref_axis',(0.,0.,-1.));
#628=DIRECTION('center_axis',(0.898794046299166,0.438371146789079,0.));
#629=DIRECTION('ref_axis',(0.438371146789079,-0.898794046299166,0.));
#630=DIRECTION('center_axis',(-0.970295726275997,0.241921895599664,0.));
#631=DIRECTION('ref_axis',(0.,0.,-1.));
#632=DIRECTION('center_axis',(0.301363260374303,0.953509404933465,1.41147746073835E-14));
#633=DIRECTION('ref_axis',(0.945133339946051,-0.298715946943879,-0.132256390257122));
#634=DIRECTION('center_axis',(-0.970295726275996,0.241921895599668,0.));
#635=DIRECTION('ref_axis',(-0.17106461289603,-0.686102687806083,-0.707106781186548));
#636=DIRECTION('',(0.970295726275996,-0.241921895599668,0.));
#637=DIRECTION('',(-0.970295726275996,0.241921895599668,0.));
#638=DIRECTION('center_axis',(0.,0.,1.));
#639=DIRECTION('ref_axis',(1.,0.,0.));
#640=DIRECTION('center_axis',(0.,0.,-1.));
#641=DIRECTION('ref_axis',(-0.104528463267653,0.994521895368273,0.));
#642=DIRECTION('center_axis',(0.,0.,1.));
#643=DIRECTION('ref_axis',(-0.104528463267653,0.994521895368273,0.));
#644=DIRECTION('center_axis',(-0.898794046299167,-0.438371146789077,0.));
#645=DIRECTION('ref_axis',(0.309975210571082,-0.635543365028237,-0.707106781186546));
#646=DIRECTION('',(0.898794046299167,0.438371146789077,0.));
#647=DIRECTION('',(-0.898794046299167,-0.438371146789077,0.));
#648=DIRECTION('center_axis',(0.,0.,1.));
#649=DIRECTION('ref_axis',(-0.870428572651546,-0.492294728706078,0.));
#650=DIRECTION('center_axis',(0.,0.,-1.));
#651=DIRECTION('ref_axis',(-0.870428572651546,-0.492294728706078,0.));
#652=DIRECTION('',(0.,0.,-1.));
#653=DIRECTION('',(0.,0.,1.));
#654=DIRECTION('center_axis',(0.,0.,1.));
#655=DIRECTION('ref_axis',(0.953761449375212,-0.300564631461679,0.));
#656=DIRECTION('center_axis',(0.,0.,-1.));
#657=DIRECTION('ref_axis',(0.953761449375212,-0.300564631461679,0.));
#658=DIRECTION('',(0.,0.,-1.));
#659=DIRECTION('',(0.,0.,1.));
#660=DIRECTION('center_axis',(0.,0.,-1.));
#661=DIRECTION('ref_axis',(1.,0.,0.));
#662=DIRECTION('center_axis',(0.,0.,1.));
#663=DIRECTION('ref_axis',(1.,0.,0.));
#664=DIRECTION('center_axis',(-6.34309711618295E-30,-6.21724893790088E-15,
-1.));
#665=DIRECTION('ref_axis',(1.,0.,0.));
#666=DIRECTION('center_axis',(-0.499999999999999,5.8838958829553E-15,0.866025403784439));
#667=DIRECTION('ref_axis',(-0.866025403784439,9.6806656488957E-15,-0.499999999999999));
#668=DIRECTION('center_axis',(6.34309711618295E-30,6.21724893790088E-15,
1.));
#669=DIRECTION('ref_axis',(1.,0.,0.));
#670=DIRECTION('center_axis',(0.499999999999999,4.88469516079266E-15,0.866025403784439));
#671=DIRECTION('ref_axis',(0.866025403784439,7.30295829653535E-15,-0.499999999999999));
#672=DIRECTION('center_axis',(0.,0.,1.));
#673=DIRECTION('ref_axis',(1.,0.,0.));
#674=DIRECTION('',(0.898794046299167,0.438371146789077,0.));
#675=DIRECTION('center_axis',(0.,0.,1.));
#676=DIRECTION('ref_axis',(0.898794046299167,0.438371146789077,0.));
#677=DIRECTION('',(0.970295726275996,-0.241921895599668,0.));
#678=DIRECTION('center_axis',(-0.438371146789077,0.898794046299167,0.));
#679=DIRECTION('ref_axis',(-0.898794046299167,-0.438371146789077,0.));
#680=DIRECTION('center_axis',(0.,0.,1.));
#681=DIRECTION('ref_axis',(1.,0.,0.));
#682=DIRECTION('center_axis',(1.,-9.99200722162642E-16,-1.54197642309049E-16));
#683=DIRECTION('ref_axis',(-1.54197642309048E-16,1.1008487203656E-15,-1.));
#684=DIRECTION('',(9.99200722162641E-16,1.,-6.21724893790088E-15));
#685=DIRECTION('',(1.54197642309048E-16,-1.1008487203656E-15,1.));
#686=DIRECTION('',(9.99200722162641E-16,1.,-6.21724893790088E-15));
#687=DIRECTION('center_axis',(6.34309711618295E-30,6.21724893790088E-15,
1.));
#688=DIRECTION('ref_axis',(1.,-1.0202417788863E-15,0.));
#689=DIRECTION('',(-1.11022302462516E-15,-1.,6.66133814775096E-15));
#690=DIRECTION('',(-1.,1.0202417788863E-15,0.));
#691=DIRECTION('center_axis',(-1.,9.99200722162639E-16,-3.08395284618099E-16));
#692=DIRECTION('ref_axis',(-3.083952846181E-16,-1.1008487203656E-15,1.));
#693=DIRECTION('',(9.99200722162641E-16,1.,-6.21724893790088E-15));
#694=DIRECTION('',(3.083952846181E-16,1.1008487203656E-15,-1.));
#695=DIRECTION('center_axis',(-1.11022302462516E-15,-1.,6.66133814775096E-15));
#696=DIRECTION('ref_axis',(0.,-6.66133814775096E-15,-1.));
#697=DIRECTION('',(0.866025403784439,-3.88584461713547E-15,-0.499999999999999));
#698=DIRECTION('',(1.,-1.0202417788863E-15,0.));
#699=DIRECTION('',(0.866025403784439,2.11873402009994E-15,0.499999999999999));
#700=DIRECTION('center_axis',(-0.499999999999999,-4.88469516079266E-15,
-0.866025403784439));
#701=DIRECTION('ref_axis',(-0.866025403784439,3.88584461713547E-15,0.499999999999999));
#702=DIRECTION('',(9.99200722162641E-16,1.,-6.21724893790088E-15));
#703=DIRECTION('center_axis',(-6.34309711618295E-30,-6.21724893790088E-15,
-1.));
#704=DIRECTION('ref_axis',(-1.,1.0202417788863E-15,0.));
#705=DIRECTION('',(9.99200722162641E-16,1.,-6.21724893790088E-15));
#706=DIRECTION('center_axis',(0.499999999999999,-5.8838958829553E-15,-0.866025403784439));
#707=DIRECTION('ref_axis',(-0.866025403784439,-2.11873402009994E-15,-0.499999999999999));
#708=DIRECTION('center_axis',(-0.573576436351011,0.819152044289016,0.));
#709=DIRECTION('ref_axis',(-0.819152044289016,-0.573576436351011,7.7037197775459E-34));
#710=DIRECTION('',(-0.573576436351011,0.819152044289016,0.));
#711=DIRECTION('center_axis',(-0.777145961456903,0.629320391049922,0.));
#712=DIRECTION('ref_axis',(-0.629320391049921,-0.777145961456903,7.70371977756917E-34));
#713=DIRECTION('',(-0.777145961456903,0.629320391049921,0.));
#714=DIRECTION('center_axis',(-0.920504853452472,0.3907311284892,0.));
#715=DIRECTION('ref_axis',(-0.3907311284892,-0.920504853452471,-7.70371977762393E-34));
#716=DIRECTION('',(-0.920504853452472,0.3907311284892,0.));
#717=DIRECTION('center_axis',(0.,0.,1.));
#718=DIRECTION('ref_axis',(0.898794046299167,0.438371146789077,0.));
#719=DIRECTION('center_axis',(0.241921895599668,0.970295726275996,0.));
#720=DIRECTION('ref_axis',(-0.970295726275996,0.241921895599668,0.));
#721=CARTESIAN_POINT('',(0.,0.,0.));
#722=CARTESIAN_POINT('Origin',(50.3202340767255,32.6783421009017,13.8699999999998));
#723=CARTESIAN_POINT('',(50.3202340767255,32.6783421009017,14.8699999999998));
#724=CARTESIAN_POINT('',(49.7686056349017,33.5124736949935,13.8699999999998));
#725=CARTESIAN_POINT('Ctrl Pts',(50.3202340767254,32.6783421009017,14.8699999999998));
#726=CARTESIAN_POINT('Ctrl Pts',(50.2518466260108,32.7836495402218,14.8699999999998));
#727=CARTESIAN_POINT('Ctrl Pts',(50.1785371337589,32.8957381334049,14.8449053865735));
#728=CARTESIAN_POINT('Ctrl Pts',(50.0430317714636,33.1015127652178,14.7428510055064));
#729=CARTESIAN_POINT('Ctrl Pts',(49.9808546831228,33.1952112350886,14.6658913666152));
#730=CARTESIAN_POINT('Ctrl Pts',(49.8823883961967,33.3429934422303,14.4883221955265));
#731=CARTESIAN_POINT('Ctrl Pts',(49.8395386276568,33.4069303255148,14.375875977335));
#732=CARTESIAN_POINT('Ctrl Pts',(49.7826377596178,33.4916643672195,14.1294973405038));
#733=CARTESIAN_POINT('Ctrl Pts',(49.7686056349017,33.5124736949935,13.9955647254345));
#734=CARTESIAN_POINT('Ctrl Pts',(49.7686056349017,33.5124736949935,13.8699999999998));
#735=CARTESIAN_POINT('',(50.3202340767255,32.6783421009017,12.8699999999998));
#736=CARTESIAN_POINT('Ctrl Pts',(50.3202340767255,32.6783421009017,12.8699999999998));
#737=CARTESIAN_POINT('Ctrl Pts',(50.3886215274401,32.5730346615815,12.8699999999998));
#738=CARTESIAN_POINT('Ctrl Pts',(50.461201895812,32.4604725698144,12.8950946134262));
#739=CARTESIAN_POINT('Ctrl Pts',(50.5940713798239,32.2529861786295,12.9971489944933));
#740=CARTESIAN_POINT('Ctrl Pts',(50.6543794911745,32.1580739809098,13.0741086333845));
#741=CARTESIAN_POINT('Ctrl Pts',(50.7493354082287,32.0080121129183,13.2516778044732));
#742=CARTESIAN_POINT('Ctrl Pts',(50.7903160865167,31.9428614282318,13.3641240226646));
#743=CARTESIAN_POINT('Ctrl Pts',(50.8445808173695,31.8564154590217,13.6105026594959));
#744=CARTESIAN_POINT('Ctrl Pts',(50.8578837049318,31.8351325591027,13.7444352745652));
#745=CARTESIAN_POINT('Ctrl Pts',(50.8578837049318,31.8351325591027,13.8699999999998));
#746=CARTESIAN_POINT('Ctrl Pts',(50.8578837049318,31.8351325591027,13.9955647254345));
#747=CARTESIAN_POINT('Ctrl Pts',(50.8445808173695,31.8564154590217,14.1294973405038));
#748=CARTESIAN_POINT('Ctrl Pts',(50.7903160865167,31.9428614282318,14.375875977335));
#749=CARTESIAN_POINT('Ctrl Pts',(50.7493354082287,32.0080121129183,14.4883221955265));
#750=CARTESIAN_POINT('Ctrl Pts',(50.6543794911745,32.1580739809097,14.6658913666152));
#751=CARTESIAN_POINT('Ctrl Pts',(50.5940713798239,32.2529861786295,14.7428510055064));
#752=CARTESIAN_POINT('Ctrl Pts',(50.461201895812,32.4604725698144,14.8449053865735));
#753=CARTESIAN_POINT('Ctrl Pts',(50.3886215274401,32.5730346615815,14.8699999999998));
#754=CARTESIAN_POINT('Ctrl Pts',(50.3202340767255,32.6783421009017,14.8699999999998));
#755=CARTESIAN_POINT('Ctrl Pts',(49.7686056349017,33.5124736949935,13.8699999999998));
#756=CARTESIAN_POINT('Ctrl Pts',(49.7686056349017,33.5124736949935,13.7444352745652));
#757=CARTESIAN_POINT('Ctrl Pts',(49.7826377596178,33.4916643672195,13.6105026594959));
#758=CARTESIAN_POINT('Ctrl Pts',(49.8395386276568,33.4069303255148,13.3641240226647));
#759=CARTESIAN_POINT('Ctrl Pts',(49.8823883961967,33.3429934422303,13.2516778044732));
#760=CARTESIAN_POINT('Ctrl Pts',(49.9808546831228,33.1952112350886,13.0741086333845));
#761=CARTESIAN_POINT('Ctrl Pts',(50.0430317714636,33.1015127652178,12.9971489944933));
#762=CARTESIAN_POINT('Ctrl Pts',(50.1785371337589,32.8957381334049,12.8950946134262));
#763=CARTESIAN_POINT('Ctrl Pts',(50.2518466260108,32.7836495402218,12.8699999999998));
#764=CARTESIAN_POINT('Ctrl Pts',(50.3202340767255,32.6783421009017,12.8699999999998));
#765=CARTESIAN_POINT('',(36.4504090525083,24.8635357066901,13.8699999993158));
#766=CARTESIAN_POINT('',(49.7755950417104,33.5170126688471,13.8699999999998));
#767=CARTESIAN_POINT('',(37.5393462364414,23.185978648696,13.8730240209895));
#768=CARTESIAN_POINT('Ctrl Pts',(37.5393462364414,23.185978648696,13.8730240209895));
#769=CARTESIAN_POINT('Ctrl Pts',(37.55361428492,23.1947912333718,13.7473373861319));
#770=CARTESIAN_POINT('Ctrl Pts',(37.5556503864602,23.2255949672915,13.6132060350823));
#771=CARTESIAN_POINT('Ctrl Pts',(37.5297578706513,23.3299054038417,13.3661696233726));
#772=CARTESIAN_POINT('Ctrl Pts',(37.5018024001265,23.4033985105668,13.2532616373545));
#773=CARTESIAN_POINT('Ctrl Pts',(37.4274057352013,23.5668235645351,13.0751447093603));
#774=CARTESIAN_POINT('Ctrl Pts',(37.3761114664685,23.6675166537891,12.9978991818843));
#775=CARTESIAN_POINT('Ctrl Pts',(37.2549963145492,23.8830791257787,12.8953220991253));
#776=CARTESIAN_POINT('Ctrl Pts',(37.1851449638313,23.9979358885582,12.8699999999998));
#777=CARTESIAN_POINT('Ctrl Pts',(37.0477663586664,24.2094803894293,12.8699999999998));
#778=CARTESIAN_POINT('Ctrl Pts',(36.9712505886549,24.3200092277154,12.8953220991254));
#779=CARTESIAN_POINT('Ctrl Pts',(36.823586441848,24.5183305808331,12.9978991818843));
#780=CARTESIAN_POINT('Ctrl Pts',(36.7524619862174,24.6061457961411,13.0751447093603));
#781=CARTESIAN_POINT('Ctrl Pts',(36.6334256202473,24.7405814892929,13.2532616373545));
#782=CARTESIAN_POINT('Ctrl Pts',(36.5776568406674,24.7960124219257,13.3661696233726));
#783=CARTESIAN_POINT('Ctrl Pts',(36.4932356595089,24.8618284463837,13.6122159489155));
#784=CARTESIAN_POINT('Ctrl Pts',(36.4643794620627,24.8726081965312,13.7451876365713));
#785=CARTESIAN_POINT('Ctrl Pts',(36.4504090525083,24.8635357066901,13.8699999986317));
#786=CARTESIAN_POINT('Ctrl Pts',(36.4504090525083,24.8635357066901,13.8699999986317));
#787=CARTESIAN_POINT('Ctrl Pts',(36.4502961648766,24.8634623966066,13.8710085425761));
#788=CARTESIAN_POINT('Ctrl Pts',(36.450184196916,24.8633878645192,13.8720165533238));
#789=CARTESIAN_POINT('Ctrl Pts',(36.4362699298949,24.8538966691956,13.9982496268159));
#790=CARTESIAN_POINT('Ctrl Pts',(36.4356224467369,24.8232333894084,14.1319263313897));
#791=CARTESIAN_POINT('Ctrl Pts',(36.4657881734324,24.7204283427724,14.3780165018675));
#792=CARTESIAN_POINT('Ctrl Pts',(36.4965818006654,24.6482631363732,14.4904225752495));
#793=CARTESIAN_POINT('Ctrl Pts',(36.5760282958051,24.4878449123046,14.6671850111328));
#794=CARTESIAN_POINT('Ctrl Pts',(36.6297816908286,24.3891177769148,14.7436181344006));
#795=CARTESIAN_POINT('Ctrl Pts',(36.7539998663546,24.1769054385289,14.8450277811146));
#796=CARTESIAN_POINT('Ctrl Pts',(36.8244394018871,24.0634034025186,14.8699999999998));
#797=CARTESIAN_POINT('Ctrl Pts',(36.9608617392641,23.8533314249101,14.8699999999998));
#798=CARTESIAN_POINT('Ctrl Pts',(37.0359006684723,23.7428162700767,14.8450277811146));
#799=CARTESIAN_POINT('Ctrl Pts',(37.179242202538,23.5430227859339,14.7436181344006));
#800=CARTESIAN_POINT('Ctrl Pts',(37.2475704531736,23.4537606724484,14.6671850111328));
#801=CARTESIAN_POINT('Ctrl Pts',(37.3618059923573,23.3159347177421,14.4904225752495));
#802=CARTESIAN_POINT('Ctrl Pts',(37.4152072922943,23.2584511056613,14.3780165018675));
#803=CARTESIAN_POINT('Ctrl Pts',(37.4968548692592,23.1890787635022,14.1319263313897));
#804=CARTESIAN_POINT('Ctrl Pts',(37.5251305243514,23.1771983893138,13.9982496268159));
#805=CARTESIAN_POINT('Ctrl Pts',(37.5393462364414,23.185978648696,13.8730240209895));
#806=CARTESIAN_POINT('Origin',(49.8451405663084,27.6489052572604,2.75000000000001));
#807=CARTESIAN_POINT('',(50.8314756465838,25.6266186530873,2.));
#808=CARTESIAN_POINT('',(51.8127119044521,28.7403094121522,2.));
#809=CARTESIAN_POINT('Origin',(49.8451405663084,27.6489052572604,2.));
#810=CARTESIAN_POINT('',(52.4685690171667,29.1041107971162,2.75));
#811=CARTESIAN_POINT('Origin',(51.8127119044521,28.7403094121522,2.75));
#812=CARTESIAN_POINT('',(51.1602540066756,24.9525231183629,2.75));
#813=CARTESIAN_POINT('Origin',(49.8451405663084,27.6489052572604,2.75000000000001));
#814=CARTESIAN_POINT('Origin',(50.8314756465838,25.6266186530873,2.75));
#815=CARTESIAN_POINT('Origin',(-54.5044352944709,16.6813228861155,2.75));
#816=CARTESIAN_POINT('',(-57.3730897836536,17.5592872485426,2.75));
#817=CARTESIAN_POINT('',(-55.2302009812699,13.7704357072875,2.75));
#818=CARTESIAN_POINT('Origin',(-54.5044352944709,16.6813228861155,2.75));
#819=CARTESIAN_POINT('',(-56.6559261613579,17.3397961579358,2.));
#820=CARTESIAN_POINT('Origin',(-56.6559261613579,17.3397961579358,2.75));
#821=CARTESIAN_POINT('',(-55.0487595595701,14.4981575019945,2.));
#822=CARTESIAN_POINT('Origin',(-54.5044352944709,16.6813228861155,2.));
#823=CARTESIAN_POINT('Origin',(-55.0487595595701,14.4981575019945,2.75));
#824=CARTESIAN_POINT('Origin',(0.,0.,2.75));
#825=CARTESIAN_POINT('Origin',(0.,0.,2.75));
#826=CARTESIAN_POINT('Origin',(0.,0.,2.));
#827=CARTESIAN_POINT('Ctrl Pts',(43.6279707424384,21.2787831040851,2.75));
#828=CARTESIAN_POINT('Ctrl Pts',(43.0463853520605,20.9951249561641,2.72866034512299));
#829=CARTESIAN_POINT('Ctrl Pts',(41.4675895385138,20.7805646350802,2.6787611047338));
#830=CARTESIAN_POINT('Ctrl Pts',(40.117009400744,21.7376179941471,2.65256430394538));
#831=CARTESIAN_POINT('Ctrl Pts',(39.6899822136778,22.4916487039469,2.65080770730716));
#832=CARTESIAN_POINT('Ctrl Pts',(43.6279707424384,21.2787831040851,2.52560052474359));
#833=CARTESIAN_POINT('Ctrl Pts',(43.043042364687,21.0008153601219,2.50834546601317));
#834=CARTESIAN_POINT('Ctrl Pts',(41.4680021800198,20.8031345377557,2.46871027591584));
#835=CARTESIAN_POINT('Ctrl Pts',(40.1365862348193,21.7572748708722,2.44851735292231));
#836=CARTESIAN_POINT('Ctrl Pts',(39.7136223752137,22.5050451878684,2.44716228996369));
#837=CARTESIAN_POINT('Ctrl Pts',(43.545374805029,21.4481298718543,2.13718243205697));
#838=CARTESIAN_POINT('Ctrl Pts',(42.9955051838515,21.1912291290904,2.13198493738494));
#839=CARTESIAN_POINT('Ctrl Pts',(41.5212418789479,21.0163887978599,2.12030433853553));
#840=CARTESIAN_POINT('Ctrl Pts',(40.2830133880787,21.9086499714116,2.11458689752639));
#841=CARTESIAN_POINT('Ctrl Pts',(39.8895272418572,22.6047275320066,2.11419741406757));
#842=CARTESIAN_POINT('Ctrl Pts',(43.3729700738268,21.8016119545447,2.));
#843=CARTESIAN_POINT('Ctrl Pts',(42.9014037191864,21.5749760795355,2.00005502559211));
#844=CARTESIAN_POINT('Ctrl Pts',(41.6272085782937,21.4083387706989,2.00008710143945));
#845=CARTESIAN_POINT('Ctrl Pts',(40.5450166665539,22.1776249253638,1.99999681005208));
#846=CARTESIAN_POINT('Ctrl Pts',(40.2027035314654,22.7821992942853,2.00000000000001));
#847=CARTESIAN_POINT('Ctrl Pts',(43.2991923823465,21.9528786388095,2.));
#848=CARTESIAN_POINT('Ctrl Pts',(42.8610803130649,21.7391971051768,2.));
#849=CARTESIAN_POINT('Ctrl Pts',(41.6724867693103,21.5760836852344,2.));
#850=CARTESIAN_POINT('Ctrl Pts',(40.6571909288945,22.2927222961236,2.));
#851=CARTESIAN_POINT('Ctrl Pts',(40.3367622421065,22.8581681221173,2.00000000000001));
#852=CARTESIAN_POINT('',(39.6899822136778,22.4916487039469,2.65080770730716));
#853=CARTESIAN_POINT('',(43.6279707424417,21.2787831040868,2.74999999997212));
#854=CARTESIAN_POINT('Ctrl Pts',(43.6279707424384,21.2787831040851,2.75));
#855=CARTESIAN_POINT('Ctrl Pts',(43.0463853520605,20.9951249561641,2.72866034512299));
#856=CARTESIAN_POINT('Ctrl Pts',(41.4675895385138,20.7805646350802,2.6787611047338));
#857=CARTESIAN_POINT('Ctrl Pts',(40.117009400744,21.7376179941471,2.65256430394538));
#858=CARTESIAN_POINT('Ctrl Pts',(39.6899822136778,22.4916487039469,2.65080770730716));
#859=CARTESIAN_POINT('',(40.3367622421066,22.8581681221173,2.));
#860=CARTESIAN_POINT('Origin',(40.3367622421066,22.8581681221173,2.75));
#861=CARTESIAN_POINT('',(43.2991923823531,21.9528786388127,2.));
#862=CARTESIAN_POINT('Ctrl Pts',(40.3367622421065,22.8581681221173,2.00000000000001));
#863=CARTESIAN_POINT('Ctrl Pts',(40.6571909288945,22.2927222961236,2.));
#864=CARTESIAN_POINT('Ctrl Pts',(41.6724867693103,21.5760836852344,2.));
#865=CARTESIAN_POINT('Ctrl Pts',(42.8610803130649,21.7391971051768,2.));
#866=CARTESIAN_POINT('Ctrl Pts',(43.2991923823465,21.9528786388095,2.));
#867=CARTESIAN_POINT('Origin',(43.2991923823531,21.9528786388127,2.75));
#868=CARTESIAN_POINT('Ctrl Pts',(-43.498937586793,13.7481409057407,2.65080770730715));
#869=CARTESIAN_POINT('Ctrl Pts',(-43.6946304426051,13.1283879760702,2.65212515473066));
#870=CARTESIAN_POINT('Ctrl Pts',(-44.6414843904667,11.8370818189676,2.67212139488597));
#871=CARTESIAN_POINT('Ctrl Pts',(-46.2615664495405,11.534303971261,2.72154712802192));
#872=CARTESIAN_POINT('Ctrl Pts',(-47.0987026803155,11.7430254757878,2.74999999999999));
#873=CARTESIAN_POINT('Ctrl Pts',(-43.5248464397034,13.7563295783907,2.44716228996369));
#874=CARTESIAN_POINT('Ctrl Pts',(-43.7185346017342,13.1418029496136,2.4481785871401));
#875=CARTESIAN_POINT('Ctrl Pts',(-44.6507243088041,11.8596405632734,2.46356553288512));
#876=CARTESIAN_POINT('Ctrl Pts',(-46.2587840048966,11.5426521057592,2.50259378073295));
#877=CARTESIAN_POINT('Ctrl Pts',(-47.0987026803155,11.7430254757878,2.52560052474358));
#878=CARTESIAN_POINT('Ctrl Pts',(-43.7176272075715,13.8172592770823,2.11418992875564));
#879=CARTESIAN_POINT('Ctrl Pts',(-43.8977508504937,13.2452515766852,2.11448204133753));
#880=CARTESIAN_POINT('Ctrl Pts',(-44.7634697538771,12.049818325224,2.11884922942099));
#881=CARTESIAN_POINT('Ctrl Pts',(-46.2647677957652,11.7432194849021,2.13024242620313));
#882=CARTESIAN_POINT('Ctrl Pts',(-47.0531228540535,11.9258361739133,2.13717241880902));
#883=CARTESIAN_POINT('Ctrl Pts',(-44.0608635781374,13.9257415124725,1.99999999999999));
#884=CARTESIAN_POINT('Ctrl Pts',(-44.2177145909595,13.4288411299286,1.99999760753915));
#885=CARTESIAN_POINT('Ctrl Pts',(-44.9758813977058,12.3926839086055,2.00003530170927));
#886=CARTESIAN_POINT('Ctrl Pts',(-46.2801343183466,12.1425946495262,2.00007336745308));
#887=CARTESIAN_POINT('Ctrl Pts',(-46.9579766184349,12.3074468816299,2.));
#888=CARTESIAN_POINT('Ctrl Pts',(-44.2077875917525,13.9721778659487,1.99999999999999));
#889=CARTESIAN_POINT('Ctrl Pts',(-44.3546854006819,13.5073951243354,1.99999999999999));
#890=CARTESIAN_POINT('Ctrl Pts',(-45.0667711843393,12.5394005299474,2.));
#891=CARTESIAN_POINT('Ctrl Pts',(-46.2866410738529,12.3135159992753,2.));
#892=CARTESIAN_POINT('Ctrl Pts',(-46.9172612586157,12.4707472704948,2.));
#893=CARTESIAN_POINT('',(-47.0987026803226,11.7430254757896,2.75));
#894=CARTESIAN_POINT('',(-43.4989375867953,13.7481409057416,2.65080770728882));
#895=CARTESIAN_POINT('Ctrl Pts',(-43.498937586793,13.7481409057407,2.65080770730715));
#896=CARTESIAN_POINT('Ctrl Pts',(-43.6946304426051,13.1283879760702,2.65212515473066));
#897=CARTESIAN_POINT('Ctrl Pts',(-44.6414843904667,11.8370818189676,2.67212139488597));
#898=CARTESIAN_POINT('Ctrl Pts',(-46.2615664495405,11.534303971261,2.72154712802192));
#899=CARTESIAN_POINT('Ctrl Pts',(-47.0987026803155,11.7430254757878,2.74999999999999));
#900=CARTESIAN_POINT('',(-46.9172612586228,12.4707472704966,2.));
#901=CARTESIAN_POINT('Origin',(-46.9172612586228,12.4707472704966,2.75));
#902=CARTESIAN_POINT('',(-44.2077875917525,13.9721778659487,2.));
#903=CARTESIAN_POINT('Ctrl Pts',(-46.9172612586157,12.4707472704948,2.));
#904=CARTESIAN_POINT('Ctrl Pts',(-46.2866410738529,12.3135159992753,2.));
#905=CARTESIAN_POINT('Ctrl Pts',(-45.0667711843393,12.5394005299474,2.));
#906=CARTESIAN_POINT('Ctrl Pts',(-44.3546854006819,13.5073951243354,1.99999999999999));
#907=CARTESIAN_POINT('Ctrl Pts',(-44.2077875917525,13.9721778659487,1.99999999999999));
#908=CARTESIAN_POINT('Origin',(-44.2077875917525,13.9721778659487,2.75));
#909=CARTESIAN_POINT('Origin',(-4.99824408130123,2.01916243652601,2.75));
#910=CARTESIAN_POINT('',(-4.99824408130123,2.01916243652601,2.));
#911=CARTESIAN_POINT('',(-5.17968550300098,1.29144064181901,2.75));
#912=CARTESIAN_POINT('Origin',(0.,0.,2.75));
#913=CARTESIAN_POINT('Origin',(0.,0.,2.));
#914=CARTESIAN_POINT('Origin',(-2.22044604925031E-15,0.,2.65080770730716));
#915=CARTESIAN_POINT('Ctrl Pts',(-44.8094804353552,11.1722582653877,20.3967691707714));
#916=CARTESIAN_POINT('Ctrl Pts',(-45.5726310925527,11.3625330946152,14.5145233321483));
#917=CARTESIAN_POINT('Ctrl Pts',(-46.3357014526084,11.5527879035167,8.63226642841088));
#918=CARTESIAN_POINT('Ctrl Pts',(-47.0987026803156,11.7430254757878,2.74999999999903));
#919=CARTESIAN_POINT('Ctrl Pts',(-43.9815643333082,10.9658355971426,20.2826797950904));
#920=CARTESIAN_POINT('Ctrl Pts',(-44.7441081220672,11.1559352897716,14.4003577534117));
#921=CARTESIAN_POINT('Ctrl Pts',(-45.506618855788,11.3460960914957,8.5180327055932));
#922=CARTESIAN_POINT('Ctrl Pts',(-46.269070648574,11.536174978219,2.63569694973305));
#923=CARTESIAN_POINT('Ctrl Pts',(-42.3790085378191,11.2775516301331,20.0848506282205));
#924=CARTESIAN_POINT('Ctrl Pts',(-43.1403006317591,11.4684564230189,14.202406354978));
#925=CARTESIAN_POINT('Ctrl Pts',(-43.9015997260434,11.6592995643793,8.31995936616615));
#926=CARTESIAN_POINT('Ctrl Pts',(-44.6629182398171,11.8501099173478,2.43751244835368));
#927=CARTESIAN_POINT('Ctrl Pts',(-41.4468717870201,12.5630076055346,20.0054981375942));
#928=CARTESIAN_POINT('Ctrl Pts',(-42.2084946506466,12.7557493207479,14.1231619043206));
#929=CARTESIAN_POINT('Ctrl Pts',(-42.9701385563613,12.9483341448273,8.24082116053366));
#930=CARTESIAN_POINT('Ctrl Pts',(-43.7317623607711,13.1408090572891,2.35847257254351));
#931=CARTESIAN_POINT('Ctrl Pts',(-41.2511012481994,13.1782283304854,20.));
#932=CARTESIAN_POINT('Ctrl Pts',(-42.0132549498807,13.3716238760875,14.1177541613769));
#933=CARTESIAN_POINT('Ctrl Pts',(-42.7753841853289,13.564842306083,8.23549725763952));
#934=CARTESIAN_POINT('Ctrl Pts',(-43.5374917222972,13.757908001143,2.35323082922767));
#935=CARTESIAN_POINT('',(-41.251101248205,13.1782283304868,19.9999999999786));
#936=CARTESIAN_POINT('',(-44.8609563395866,11.1850926497843,19.9999999999685));
#937=CARTESIAN_POINT('Ctrl Pts',(-41.2511012481994,13.1782283304854,20.));
#938=CARTESIAN_POINT('Ctrl Pts',(-41.2815042553404,13.0830594280829,20.));
#939=CARTESIAN_POINT('Ctrl Pts',(-41.3167869869254,12.9896982406177,20.0000221039448));
#940=CARTESIAN_POINT('Ctrl Pts',(-41.3566382859191,12.8984298934968,20.0000486575777));
#941=CARTESIAN_POINT('Ctrl Pts',(-41.3970672479497,12.8058385694116,20.0000755961178));
#942=CARTESIAN_POINT('Ctrl Pts',(-41.4421985956218,12.7154004446342,20.0001071432457));
#943=CARTESIAN_POINT('Ctrl Pts',(-41.4917599723656,12.6274263655824,20.0001321056679));
#944=CARTESIAN_POINT('Ctrl Pts',(-41.5414500633011,12.5392238119963,20.0001571329192));
#945=CARTESIAN_POINT('Ctrl Pts',(-41.5955937324069,12.4534973604554,20.0001755827143));
#946=CARTESIAN_POINT('Ctrl Pts',(-41.6539618100236,12.3705847922499,20.0001828458814));
#947=CARTESIAN_POINT('Ctrl Pts',(-41.7025797971597,12.3015223468339,20.0001888957734));
#948=CARTESIAN_POINT('Ctrl Pts',(-41.754129685844,12.2344124297036,20.0001873140796));
#949=CARTESIAN_POINT('Ctrl Pts',(-41.8084991239118,12.1694689614048,20.000178648525));
#950=CARTESIAN_POINT('Ctrl Pts',(-41.8738248112941,12.0914384196449,20.0001682367325));
#951=CARTESIAN_POINT('Ctrl Pts',(-41.9428872684874,12.0169320132637,20.000148029702));
#952=CARTESIAN_POINT('Ctrl Pts',(-42.0154094579765,11.9462493497993,20.0001244563926));
#953=CARTESIAN_POINT('Ctrl Pts',(-42.0877715140602,11.8757227579548,20.0001009351345));
#954=CARTESIAN_POINT('Ctrl Pts',(-42.1635786023401,11.8090023222258,20.0000741120423));
#955=CARTESIAN_POINT('Ctrl Pts',(-42.2425970801692,11.7464151027448,20.0000567179709));
#956=CARTESIAN_POINT('Ctrl Pts',(-42.2877977849209,11.7106135218145,20.000046768092));
#957=CARTESIAN_POINT('Ctrl Pts',(-42.3340500210117,11.6761649888731,20.0000400158638));
#958=CARTESIAN_POINT('Ctrl Pts',(-42.3813151337853,11.6431364525976,20.0000396883197));
#959=CARTESIAN_POINT('Ctrl Pts',(-42.4643151747515,11.5851365938635,20.000039113135));
#960=CARTESIAN_POINT('Ctrl Pts',(-42.550437536861,11.5315129074198,20.0000581185937));
#961=CARTESIAN_POINT('Ctrl Pts',(-42.6393063725701,11.4823319691002,20.0000830013511));
#962=CARTESIAN_POINT('Ctrl Pts',(-42.6624722915672,11.4695117084968,20.0000894876738));
#963=CARTESIAN_POINT('Ctrl Pts',(-42.6858249509707,11.456993590746,20.0000963961343));
#964=CARTESIAN_POINT('Ctrl Pts',(-42.7093579016826,11.4447793330647,20.0001035284405));
#965=CARTESIAN_POINT('Ctrl Pts',(-42.7987646223699,11.3983747517484,20.0001306255994));
#966=CARTESIAN_POINT('Ctrl Pts',(-42.8903512830687,11.3565705447187,20.000161030693));
#967=CARTESIAN_POINT('Ctrl Pts',(-42.9837148024727,11.319362657334,20.0001863123203));
#968=CARTESIAN_POINT('Ctrl Pts',(-43.0783572369021,11.2816450877249,20.0002119402612));
#969=CARTESIAN_POINT('Ctrl Pts',(-43.1748263392389,11.2486503573433,20.000232398102));
#970=CARTESIAN_POINT('Ctrl Pts',(-43.2727304295221,11.2204202814124,20.0002440502982));
#971=CARTESIAN_POINT('Ctrl Pts',(-43.3708803752888,11.1921193144804,20.0002557317553));
#972=CARTESIAN_POINT('Ctrl Pts',(-43.4704733880316,11.1686067551811,20.0002586685536));
#973=CARTESIAN_POINT('Ctrl Pts',(-43.5711303656501,11.1499741308885,20.0002528112366));
#974=CARTESIAN_POINT('Ctrl Pts',(-43.6339170068111,11.1383516887785,20.0002491576274));
#975=CARTESIAN_POINT('Ctrl Pts',(-43.6971178829991,11.1286289542958,20.0002421480606));
#976=CARTESIAN_POINT('Ctrl Pts',(-43.760641768267,11.1208384003967,20.0002322038951));
#977=CARTESIAN_POINT('Ctrl Pts',(-43.8628669077077,11.1083015340621,20.0002162013522));
#978=CARTESIAN_POINT('Ctrl Pts',(-43.9654731259884,11.1008215787907,20.0001930217648));
#979=CARTESIAN_POINT('Ctrl Pts',(-44.0680699470711,11.0984418494014,20.0001661847301));
#980=CARTESIAN_POINT('Ctrl Pts',(-44.1701620786853,11.0960738262653,20.0001394797108));
#981=CARTESIAN_POINT('Ctrl Pts',(-44.2722457793378,11.0987558490326,20.0001092624608));
#982=CARTESIAN_POINT('Ctrl Pts',(-44.3739443766754,11.1065811332507,20.0000816827088));
#983=CARTESIAN_POINT('Ctrl Pts',(-44.4731812348903,11.1142169968788,20.0000547705586));
#984=CARTESIAN_POINT('Ctrl Pts',(-44.5720521757798,11.1267501670928,20.0000304703323));
#985=CARTESIAN_POINT('Ctrl Pts',(-44.6702028741062,11.1443159412169,20.000015506691));
#986=CARTESIAN_POINT('Ctrl Pts',(-44.7341267188381,11.1557562247489,20.0000057611314));
#987=CARTESIAN_POINT('Ctrl Pts',(-44.7977449444895,11.1693321661117,19.9999999928104));
#988=CARTESIAN_POINT('Ctrl Pts',(-44.8609563398539,11.1850926498509,20.0000000000381));
#989=CARTESIAN_POINT('Ctrl Pts',(-44.8609563398581,11.1850926498519,20.000000000006));
#990=CARTESIAN_POINT('Ctrl Pts',(-45.6069447975724,11.3710884621579,14.2500100604229));
#991=CARTESIAN_POINT('Ctrl Pts',(-46.3528567682211,11.5570652040966,8.50000958080297));
#992=CARTESIAN_POINT('Ctrl Pts',(-47.0987026803156,11.7430254757878,2.74999999999903));
#993=CARTESIAN_POINT('Ctrl Pts',(-43.4989375868235,13.7481409060642,2.65080770730947));
#994=CARTESIAN_POINT('Ctrl Pts',(-42.7496807019382,13.5583257948208,8.4338815240747));
#995=CARTESIAN_POINT('Ctrl Pts',(-42.0004027990914,13.368362658949,14.2169461095774));
#996=CARTESIAN_POINT('Ctrl Pts',(-41.2511012481994,13.1782283304854,20.));
#997=CARTESIAN_POINT('Origin',(32.7678779068823,16.8164133686902,2.75));
#998=CARTESIAN_POINT('',(32.7678779068823,16.8164133686902,2.));
#999=CARTESIAN_POINT('',(33.0966562669742,16.1423178339658,2.75));
#1000=CARTESIAN_POINT('Ctrl Pts',(43.6279707424417,21.2787831040868,2.74999999997212));
#1001=CARTESIAN_POINT('Ctrl Pts',(42.9211955375099,20.9340658038512,8.63226642839295));
#1002=CARTESIAN_POINT('Ctrl Pts',(42.2143562946341,20.5893172702235,14.5145233321393));
#1003=CARTESIAN_POINT('Ctrl Pts',(41.5074426717616,20.2445324590474,20.3967691707714));
#1004=CARTESIAN_POINT('Ctrl Pts',(42.8594747977978,20.9039625877032,2.63569694970614));
#1005=CARTESIAN_POINT('Ctrl Pts',(42.1532040287353,20.559514739299,8.51803270557526));
#1006=CARTESIAN_POINT('Ctrl Pts',(41.4468926378252,20.2149745114239,14.4003577534027));
#1007=CARTESIAN_POINT('Ctrl Pts',(40.7405362089134,19.8704871847346,20.2826797950904));
#1008=CARTESIAN_POINT('Ctrl Pts',(41.2231562433792,20.8771540013259,2.43751640495563));
#1009=CARTESIAN_POINT('Ctrl Pts',(40.5181460688474,20.5322262929246,8.3199633227771));
#1010=CARTESIAN_POINT('Ctrl Pts',(39.8131615940217,20.1872701231151,14.2024102738335));
#1011=CARTESIAN_POINT('Ctrl Pts',(39.1081968971497,19.8422555315274,20.084854547085));
#1012=CARTESIAN_POINT('Ctrl Pts',(40.0439905992381,21.9459955059583,2.3584725725166));
#1013=CARTESIAN_POINT('Ctrl Pts',(39.3390278867818,21.5993761391899,8.24082116051572));
#1014=CARTESIAN_POINT('Ctrl Pts',(38.6340683641925,21.2526450833402,14.1231619043116));
#1015=CARTESIAN_POINT('Ctrl Pts',(37.9291620433722,20.9057649397005,20.0054981375942));
#1016=CARTESIAN_POINT('Ctrl Pts',(39.7256631555033,22.5092182203831,2.35323082920075));
#1017=CARTESIAN_POINT('Ctrl Pts',(39.0203501118144,22.1619204073795,8.23549725762158));
#1018=CARTESIAN_POINT('Ctrl Pts',(38.3150475991881,21.8144686856977,14.1177541613679));
#1019=CARTESIAN_POINT('Ctrl Pts',(37.6097579793798,21.4668386319943,20.));
#1020=CARTESIAN_POINT('',(41.5551252854207,20.2677888236369,19.9999999999685));
#1021=CARTESIAN_POINT('',(37.609757979385,21.4668386319968,19.9999999999786));
#1022=CARTESIAN_POINT('Ctrl Pts',(41.5551252856683,20.2677888237577,20.0000000000381));
#1023=CARTESIAN_POINT('Ctrl Pts',(41.4649722060642,20.2238180414232,19.9999999889098));
#1024=CARTESIAN_POINT('Ctrl Pts',(41.3728142321267,20.1847170915813,20.0000136724866));
#1025=CARTESIAN_POINT('Ctrl Pts',(41.2790465513397,20.1503920622418,20.0000344675746));
#1026=CARTESIAN_POINT('Ctrl Pts',(41.1836753340723,20.1154800349485,20.0000556182828));
#1027=CARTESIAN_POINT('Ctrl Pts',(41.0866381099624,20.0855085543924,20.0000840259323));
#1028=CARTESIAN_POINT('Ctrl Pts',(40.9883263817193,20.0604283897637,20.0001127489085));
#1029=CARTESIAN_POINT('Ctrl Pts',(40.8890244172923,20.0350956073959,20.0001417611943));
#1030=CARTESIAN_POINT('Ctrl Pts',(40.7884212820554,20.0147530863909,20.0001709865011));
#1031=CARTESIAN_POINT('Ctrl Pts',(40.6869083230589,19.999401713854,20.0001948424293));
#1032=CARTESIAN_POINT('Ctrl Pts',(40.5962467668726,19.9856913527577,20.0002161482369));
#1033=CARTESIAN_POINT('Ctrl Pts',(40.5048589068676,19.9759627841779,20.0002331395713));
#1034=CARTESIAN_POINT('Ctrl Pts',(40.4130240798763,19.9702517230793,20.0002439626785));
#1035=CARTESIAN_POINT('Ctrl Pts',(40.3104957013724,19.9638756471052,20.0002560460641));
#1036=CARTESIAN_POINT('Ctrl Pts',(40.2078989010282,19.9625366220998,20.0002597511757));
#1037=CARTESIAN_POINT('Ctrl Pts',(40.1056274167575,19.9661902311406,20.0002545099949));
#1038=CARTESIAN_POINT('Ctrl Pts',(40.0034780134602,19.9698394788861,20.0002492750705));
#1039=CARTESIAN_POINT('Ctrl Pts',(39.9016522547847,19.9784694767402,20.0002350092701));
#1040=CARTESIAN_POINT('Ctrl Pts',(39.8005395233033,19.9920876775877,20.0002138235494));
#1041=CARTESIAN_POINT('Ctrl Pts',(39.7016359161835,20.0054083461777,20.0001931006972));
#1042=CARTESIAN_POINT('Ctrl Pts',(39.6034137286497,20.0235018068391,20.0001656720862));
#1043=CARTESIAN_POINT('Ctrl Pts',(39.5062469596176,20.0464227769836,20.0001374636409));
#1044=CARTESIAN_POINT('Ctrl Pts',(39.4193313758819,20.066925563273,20.000112231213));
#1045=CARTESIAN_POINT('Ctrl Pts',(39.3332599927816,20.0912915941683,20.0000863785139));
#1046=CARTESIAN_POINT('Ctrl Pts',(39.2483149027959,20.1195921717295,20.0000677632135));
#1047=CARTESIAN_POINT('Ctrl Pts',(39.1758921956479,20.1437207522183,20.0000518921319));
#1048=CARTESIAN_POINT('Ctrl Pts',(39.1045471988617,20.1706238657624,20.0000410428177));
#1049=CARTESIAN_POINT('Ctrl Pts',(39.0344405939824,20.2003034071921,20.0000413705732));
#1050=CARTESIAN_POINT('Ctrl Pts',(38.9419782829871,20.2394472081877,20.000041802844));
#1051=CARTESIAN_POINT('Ctrl Pts',(38.8516689577563,20.2834187105574,20.0000614381346));
#1052=CARTESIAN_POINT('Ctrl Pts',(38.7637836798689,20.331911251102,20.000084442988));
#1053=CARTESIAN_POINT('Ctrl Pts',(38.6751252027039,20.3808304205226,20.000107650234));
#1054=CARTESIAN_POINT('Ctrl Pts',(38.5889329029024,20.4343510780719,20.0001342334365));
#1055=CARTESIAN_POINT('Ctrl Pts',(38.505511697248,20.4922035996367,20.0001537883685));
#1056=CARTESIAN_POINT('Ctrl Pts',(38.4370149825332,20.5397060018625,20.0001698448207));
#1057=CARTESIAN_POINT('Ctrl Pts',(38.3703868427138,20.5901299146662,20.0001812580006));
#1058=CARTESIAN_POINT('Ctrl Pts',(38.305814472866,20.6433445630468,20.0001855628863));
#1059=CARTESIAN_POINT('Ctrl Pts',(38.227283938487,20.7080622555207,20.0001907983295));
#1060=CARTESIAN_POINT('Ctrl Pts',(38.1521676451137,20.7765978227446,20.0001849092741));
#1061=CARTESIAN_POINT('Ctrl Pts',(38.0807397538101,20.848639418723,20.0001689949387));
#1062=CARTESIAN_POINT('Ctrl Pts',(38.0093382070218,20.9206544438356,20.0001530864729));
#1063=CARTESIAN_POINT('Ctrl Pts',(37.9416216753532,20.9961735538566,20.0001271176258));
#1064=CARTESIAN_POINT('Ctrl Pts',(37.8778967559758,21.0749250645711,20.0000984546148));
#1065=CARTESIAN_POINT('Ctrl Pts',(37.8154316343306,21.1521197122001,20.0000703582518));
#1066=CARTESIAN_POINT('Ctrl Pts',(37.7568013589513,21.2324208957459,20.0000396523801));
#1067=CARTESIAN_POINT('Ctrl Pts',(37.7023346140017,21.3156010838574,20.0000197335543));
#1068=CARTESIAN_POINT('Ctrl Pts',(37.669980157258,21.3650119638482,20.0000079013292));
#1069=CARTESIAN_POINT('Ctrl Pts',(37.6390956500849,21.4154392287653,20.));
#1070=CARTESIAN_POINT('Ctrl Pts',(37.6097579793798,21.4668386319943,20.));
#1071=CARTESIAN_POINT('Ctrl Pts',(37.6097579793798,21.4668386319943,20.));
#1072=CARTESIAN_POINT('Ctrl Pts',(38.3031543438968,21.808606621576,14.2169461095835));
#1073=CARTESIAN_POINT('Ctrl Pts',(38.9965631700764,22.1502022428298,8.43388152408693));
#1074=CARTESIAN_POINT('Ctrl Pts',(39.6899822136382,22.4916487042685,2.6508077073278));
#1075=CARTESIAN_POINT('Ctrl Pts',(43.6279707424417,21.2787831040868,2.74999999997212));
#1076=CARTESIAN_POINT('Ctrl Pts',(42.9370866675206,20.9418164258265,8.50000958078503));
#1077=CARTESIAN_POINT('Ctrl Pts',(42.24614140194,20.6048199028876,14.2500100604139));
#1078=CARTESIAN_POINT('Ctrl Pts',(41.5551252856721,20.2677888237596,20.000000000006));
#1079=CARTESIAN_POINT('Origin',(-54.5044352944709,16.6813228861155,0.));
#1080=CARTESIAN_POINT('',(-55.2302009812699,13.7704357072875,20.));
#1081=CARTESIAN_POINT('',(-57.3730897836536,17.5592872485426,20.));
#1082=CARTESIAN_POINT('Origin',(-54.5044352944709,16.6813228861155,20.));
#1083=CARTESIAN_POINT('',(-57.3730897836536,17.5592872485426,0.));
#1084=CARTESIAN_POINT('',(-55.2302009812699,13.7704357072875,0.));
#1085=CARTESIAN_POINT('Origin',(49.8451405663084,27.6489052572604,0.));
#1086=CARTESIAN_POINT('',(52.4685690171667,29.1041107971162,20.));
#1087=CARTESIAN_POINT('',(51.1602540066756,24.9525231183629,20.));
#1088=CARTESIAN_POINT('Origin',(49.8451405663084,27.6489052572604,20.));
#1089=CARTESIAN_POINT('',(51.1602540066756,24.9525231183629,0.));
#1090=CARTESIAN_POINT('',(52.4685690171667,29.1041107971162,0.));
#1091=CARTESIAN_POINT('Origin',(0.,0.,2.));
#1092=CARTESIAN_POINT('Origin',(0.,0.,20.));
#1093=CARTESIAN_POINT('',(-41.3810822045708,15.3060908736462,13.8833635312168));
#1094=CARTESIAN_POINT('',(-39.718101538402,19.2171834159364,13.8699999855777));
#1095=CARTESIAN_POINT('Ctrl Pts',(-41.3810822045708,15.3060908736462,13.8833635312168));
#1096=CARTESIAN_POINT('Ctrl Pts',(-41.3478954394159,15.2938157078893,14.1485557187102));
#1097=CARTESIAN_POINT('Ctrl Pts',(-41.2942552410085,15.3302254677775,14.4316945587596));
#1098=CARTESIAN_POINT('Ctrl Pts',(-41.1534788084562,15.5080882565787,14.9529032752585));
#1099=CARTESIAN_POINT('Ctrl Pts',(-41.0662113275228,15.6495118785827,15.1909477286029));
#1100=CARTESIAN_POINT('Ctrl Pts',(-40.8841531854854,15.9824196412221,15.5653833697779));
#1101=CARTESIAN_POINT('Ctrl Pts',(-40.777337195812,16.1955821720085,15.7273053299776));
#1102=CARTESIAN_POINT('Ctrl Pts',(-40.5556637104567,16.6676994375431,15.9420978056406));
#1103=CARTESIAN_POINT('Ctrl Pts',(-40.4406796505396,16.9265969230756,15.9949635145033));
#1104=CARTESIAN_POINT('Ctrl Pts',(-40.2326639937525,17.4152273292554,15.9950364439114));
#1105=CARTESIAN_POINT('Ctrl Pts',(-40.1257517597111,17.6775650953704,15.9422524046114));
#1106=CARTESIAN_POINT('Ctrl Pts',(-39.9390944494798,18.1646187548877,15.7276023896924));
#1107=CARTESIAN_POINT('Ctrl Pts',(-39.8594783984668,18.3893860915457,15.5657409654922));
#1108=CARTESIAN_POINT('Ctrl Pts',(-39.7457000700126,18.7514024420103,15.1913888665583));
#1109=CARTESIAN_POINT('Ctrl Pts',(-39.7042477857495,18.9123425579473,14.9533827717845));
#1110=CARTESIAN_POINT('Ctrl Pts',(-39.6736202011769,19.1371063097774,14.4322349661032));
#1111=CARTESIAN_POINT('Ctrl Pts',(-39.6845571019583,19.2010041617198,14.1491186785305));
#1112=CARTESIAN_POINT('Ctrl Pts',(-39.7169641572858,19.2166840142784,13.8793034201832));
#1113=CARTESIAN_POINT('Ctrl Pts',(-39.7175291945682,19.2169404704276,13.8746542916996));
#1114=CARTESIAN_POINT('Ctrl Pts',(-39.7181015366596,19.2171834151968,13.8699999853248));
#1115=CARTESIAN_POINT('Ctrl Pts',(-39.7181015366596,19.2171834151968,13.8699999853248));
#1116=CARTESIAN_POINT('Ctrl Pts',(-39.7505562879296,19.2309596377972,13.6060767862703));
#1117=CARTESIAN_POINT('Ctrl Pts',(-39.8078246499655,19.1987610734791,13.3255340694576));
#1118=CARTESIAN_POINT('Ctrl Pts',(-39.9641985802699,19.0336415156331,12.8035611478652));
#1119=CARTESIAN_POINT('Ctrl Pts',(-40.0639474977726,18.8988098449701,12.5628877266957));
#1120=CARTESIAN_POINT('Ctrl Pts',(-40.2702175055984,18.5765034309171,12.1830704264512));
#1121=CARTESIAN_POINT('Ctrl Pts',(-40.3903733262365,18.3678845633191,12.0182406995286));
#1122=CARTESIAN_POINT('Ctrl Pts',(-40.6318964634725,17.8998520692845,11.7992098522261));
#1123=CARTESIAN_POINT('Ctrl Pts',(-40.7531397778404,17.6403612658908,11.7450369353999));
#1124=CARTESIAN_POINT('Ctrl Pts',(-40.9637150155829,17.1457183840097,11.7449631086135));
#1125=CARTESIAN_POINT('Ctrl Pts',(-41.0667109634819,16.8784740803119,11.7990473413962));
#1126=CARTESIAN_POINT('Ctrl Pts',(-41.2366505205932,16.3799817358504,12.0179273488275));
#1127=CARTESIAN_POINT('Ctrl Pts',(-41.3037355313623,16.1487697835004,12.1826955036173));
#1128=CARTESIAN_POINT('Ctrl Pts',(-41.393072316452,15.776685386407,12.5624364564064));
#1129=CARTESIAN_POINT('Ctrl Pts',(-41.4211108462766,15.6113400272317,12.803079730141));
#1130=CARTESIAN_POINT('Ctrl Pts',(-41.4318191337009,15.3822169357135,13.3295617847695));
#1131=CARTESIAN_POINT('Ctrl Pts',(-41.4146130812707,15.3184933198487,13.6154215820957));
#1132=CARTESIAN_POINT('Ctrl Pts',(-41.3810822045708,15.3060908736462,13.8833635312168));
#1133=CARTESIAN_POINT('',(-35.5656832873294,26.1103756275605,13.8834348022801));
#1134=CARTESIAN_POINT('',(-32.8899193475239,29.4122582194143,13.8699999857655));
#1135=CARTESIAN_POINT('Ctrl Pts',(-35.5656832873294,26.1103756275605,13.8834348022801));
#1136=CARTESIAN_POINT('Ctrl Pts',(-35.5371606156799,26.089435845112,14.1486244704345));
#1137=CARTESIAN_POINT('Ctrl Pts',(-35.4755679613109,26.109665468771,14.4317605654456));
#1138=CARTESIAN_POINT('Ctrl Pts',(-35.2912526220952,26.2418829400807,14.9529618709996));
#1139=CARTESIAN_POINT('Ctrl Pts',(-35.1684118622488,26.3538063705337,15.1910016582772));
#1140=CARTESIAN_POINT('Ctrl Pts',(-34.9017106342689,26.6237075380714,15.5654270816446));
#1141=CARTESIAN_POINT('Ctrl Pts',(-34.7403201135057,26.7992135126652,15.7273416327734));
#1142=CARTESIAN_POINT('Ctrl Pts',(-34.3971992605268,27.1920305680767,15.942116694543));
#1143=CARTESIAN_POINT('Ctrl Pts',(-34.2153630330176,27.4092517495726,15.9949724293681));
#1144=CARTESIAN_POINT('Ctrl Pts',(-33.8808263511103,27.821702059607,15.995027546879));
#1145=CARTESIAN_POINT('Ctrl Pts',(-33.7058029754005,28.0444527066586,15.942233535072));
#1146=CARTESIAN_POINT('Ctrl Pts',(-33.3922351385231,28.4612665897549,15.7275661401778));
#1147=CARTESIAN_POINT('Ctrl Pts',(-33.2538005390277,28.6554148231358,15.5656973400485));
#1148=CARTESIAN_POINT('Ctrl Pts',(-33.0447284587038,28.9720955231207,15.1913350550028));
#1149=CARTESIAN_POINT('Ctrl Pts',(-32.9605584143855,29.1153957355964,14.9533242577991));
#1150=CARTESIAN_POINT('Ctrl Pts',(-32.8692179154923,29.3230330424713,14.4321689865259));
#1151=CARTESIAN_POINT('Ctrl Pts',(-32.8621348809347,29.3874723817988,14.1490499358952));
#1152=CARTESIAN_POINT('Ctrl Pts',(-32.8889685235595,29.4114687817405,13.8792558527152));
#1153=CARTESIAN_POINT('Ctrl Pts',(-32.8894386180279,29.4118689323848,13.8746304823214));
#1154=CARTESIAN_POINT('Ctrl Pts',(-32.889919346072,29.4122582182386,13.8699999855159));
#1155=CARTESIAN_POINT('Ctrl Pts',(-32.889919346072,29.4122582182386,13.8699999855159));
#1156=CARTESIAN_POINT('Ctrl Pts',(-32.9173211045753,29.4344477224411,13.6060591633404));
#1157=CARTESIAN_POINT('Ctrl Pts',(-32.981243194897,29.4192696058067,13.3254920985429));
#1158=CARTESIAN_POINT('Ctrl Pts',(-33.1770492700916,29.3035965898978,12.8035023756873));
#1159=CARTESIAN_POINT('Ctrl Pts',(-33.3100716873759,29.2014499335745,12.5628326266258));
#1160=CARTESIAN_POINT('Ctrl Pts',(-33.5971262144977,28.9484118648075,12.1830246482495));
#1161=CARTESIAN_POINT('Ctrl Pts',(-33.7700877133126,28.7809497621007,12.0182024386062));
#1162=CARTESIAN_POINT('Ctrl Pts',(-34.1311625719861,28.3975296559965,11.7991900033091));
#1163=CARTESIAN_POINT('Ctrl Pts',(-34.3191779667199,28.1814633415308,11.7450279104307));
#1164=CARTESIAN_POINT('Ctrl Pts',(-34.6578310610276,27.7639379062185,11.7449721147088));
#1165=CARTESIAN_POINT('Ctrl Pts',(-34.8304419917172,27.5353901835592,11.7990671832669));
#1166=CARTESIAN_POINT('Ctrl Pts',(-35.1310916348172,27.1029720803224,12.0179656190336));
#1167=CARTESIAN_POINT('Ctrl Pts',(-35.2592563707231,26.8991753154866,12.1827412946028));
#1168=CARTESIAN_POINT('Ctrl Pts',(-35.4476079275662,26.5660813481939,12.5624915722271));
#1169=CARTESIAN_POINT('Ctrl Pts',(-35.5200980702127,26.4148499897533,12.8031385369051));
#1170=CARTESIAN_POINT('Ctrl Pts',(-35.5934930544288,26.1975326510509,13.3296270850044));
#1171=CARTESIAN_POINT('Ctrl Pts',(-35.5945023186707,26.1315329810539,13.6154897285559));
#1172=CARTESIAN_POINT('Ctrl Pts',(-35.5656832873294,26.1103756275605,13.8834348022801));
#1173=CARTESIAN_POINT('',(-27.0596210144565,34.8488146507892,13.8839929041701));
#1174=CARTESIAN_POINT('',(-23.5822390727414,37.2921671203866,13.8699999871818));
#1175=CARTESIAN_POINT('Ctrl Pts',(-27.0596210144565,34.8488146507892,13.8839929041701));
#1176=CARTESIAN_POINT('Ctrl Pts',(-27.037921545337,34.8208689239455,14.1491628014493));
#1177=CARTESIAN_POINT('Ctrl Pts',(-26.9731467582223,34.8234667150559,14.432277314188));
#1178=CARTESIAN_POINT('Ctrl Pts',(-26.7596745457607,34.9001915589704,14.9534203239521));
#1179=CARTESIAN_POINT('Ctrl Pts',(-26.610881182607,34.9742243060292,15.1914233977289));
#1180=CARTESIAN_POINT('Ctrl Pts',(-26.2804597414266,35.1608396878751,15.5657689608637));
#1181=CARTESIAN_POINT('Ctrl Pts',(-26.077176141971,35.2854821795919,15.7276256531312));
#1182=CARTESIAN_POINT('Ctrl Pts',(-25.6396188113842,35.5693979158789,15.9422645149144));
#1183=CARTESIAN_POINT('Ctrl Pts',(-25.4052679236332,35.7285556588596,15.9950421533101));
#1184=CARTESIAN_POINT('Ctrl Pts',(-24.9706141703015,36.0336890894413,15.9949577910443));
#1185=CARTESIAN_POINT('Ctrl Pts',(-24.7413082631274,36.2000258328001,15.9420856800707));
#1186=CARTESIAN_POINT('Ctrl Pts',(-24.3256498089064,36.5150810538204,15.7272820245285));
#1187=CARTESIAN_POINT('Ctrl Pts',(-24.1393795863935,36.6639114190633,15.5653553062651));
#1188=CARTESIAN_POINT('Ctrl Pts',(-23.8516416312093,36.9112521042598,15.1909131042998));
#1189=CARTESIAN_POINT('Ctrl Pts',(-23.7314719504801,37.0260354325388,14.9528656586296));
#1190=CARTESIAN_POINT('Ctrl Pts',(-23.5867942197058,37.2007387719793,14.4316521893006));
#1191=CARTESIAN_POINT('Ctrl Pts',(-23.5623422398842,37.2607810374147,14.148511588625));
#1192=CARTESIAN_POINT('Ctrl Pts',(-23.5815702580827,37.2911876484632,13.8788833741687));
#1193=CARTESIAN_POINT('Ctrl Pts',(-23.5818985856987,37.2916808545428,13.8744440464231));
#1194=CARTESIAN_POINT('Ctrl Pts',(-23.5822390717766,37.2921671190087,13.869999986957));
#1195=CARTESIAN_POINT('Ctrl Pts',(-23.5822390717766,37.2921671190087,13.869999986957));
#1196=CARTESIAN_POINT('Ctrl Pts',(-23.6024717420122,37.3210623638509,13.6059210846932));
#1197=CARTESIAN_POINT('Ctrl Pts',(-23.6681055842228,37.3239935772566,13.3251632590099));
#1198=CARTESIAN_POINT('Ctrl Pts',(-23.8881478638501,37.2663279448138,12.8030419815232));
#1199=CARTESIAN_POINT('Ctrl Pts',(-24.044039583255,37.2044999475278,12.5624010782614));
#1200=CARTESIAN_POINT('Ctrl Pts',(-24.3893919163938,37.039698218973,12.182666110988));
#1201=CARTESIAN_POINT('Ctrl Pts',(-24.601584969213,36.9259726407619,12.0179027837911));
#1202=CARTESIAN_POINT('Ctrl Pts',(-25.0538064877089,36.6560304422589,11.7990346060854));
#1203=CARTESIAN_POINT('Ctrl Pts',(-25.2937702202887,36.4996830413998,11.7449573292883));
#1204=CARTESIAN_POINT('Ctrl Pts',(-25.7337722578175,36.1907950353835,11.7450427296065));
#1205=CARTESIAN_POINT('Ctrl Pts',(-25.9623571410623,36.0182117173514,11.7992225930927));
#1206=CARTESIAN_POINT('Ctrl Pts',(-26.3698925722647,35.6845893347476,12.0182652572452));
#1207=CARTESIAN_POINT('Ctrl Pts',(-26.5489444296673,35.5236554939468,12.183099809001));
#1208=CARTESIAN_POINT('Ctrl Pts',(-26.8212778950521,35.2548370674607,12.5629230924218));
#1209=CARTESIAN_POINT('Ctrl Pts',(-26.9324045005892,35.1292160457371,12.8035988692131));
#1210=CARTESIAN_POINT('Ctrl Pts',(-27.0625022706176,34.9402691766527,13.3301382441291));
#1211=CARTESIAN_POINT('Ctrl Pts',(-27.0815495945243,34.8770554388598,13.6160232459237));
#1212=CARTESIAN_POINT('Ctrl Pts',(-27.0596210144565,34.8488146507892,13.8839929041701));
#1213=CARTESIAN_POINT('',(-4.34999999999999,44.4737073574449,9.64999999999999));
#1214=CARTESIAN_POINT('',(-4.35,43.9910474854106,13.25));
#1215=CARTESIAN_POINT('Ctrl Pts',(-4.35,44.4737073574449,9.64999999999997));
#1216=CARTESIAN_POINT('Ctrl Pts',(-4.35,44.231073348664,11.4598207214207));
#1217=CARTESIAN_POINT('Ctrl Pts',(-4.35,43.9910474854106,13.25));
#1218=CARTESIAN_POINT('',(4.35,43.9910474854106,13.25));
#1219=CARTESIAN_POINT('Origin',(0.,0.,13.25));
#1220=CARTESIAN_POINT('',(4.35,44.4737073574449,9.64999999999999));
#1221=CARTESIAN_POINT('Ctrl Pts',(4.35,43.9910474854106,13.25));
#1222=CARTESIAN_POINT('Ctrl Pts',(4.35,44.2310733484949,11.4598207226821));
#1223=CARTESIAN_POINT('Ctrl Pts',(4.35,44.4737073574449,9.64999999999997));
#1224=CARTESIAN_POINT('',(2.1849364905389,44.7994749882188,8.39999999999999));
#1225=CARTESIAN_POINT('Origin',(-3.4888991740848,4.44089209850063E-14,5.12420945169211));
#1226=CARTESIAN_POINT('',(-2.1849364905389,44.7994749882188,8.39999999999999));
#1227=CARTESIAN_POINT('Origin',(0.,0.,8.4));
#1228=CARTESIAN_POINT('Origin',(3.4888991740848,2.66453525910038E-14,5.12420945169206));
#1229=CARTESIAN_POINT('Origin',(-2.14505039930488,35.5287217549293,20.));
#1230=CARTESIAN_POINT('',(33.0966562669742,16.1423178339658,20.));
#1231=CARTESIAN_POINT('Origin',(0.,0.,20.));
#1232=CARTESIAN_POINT('',(-5.17968550300098,1.29144064181901,20.));
#1233=CARTESIAN_POINT('Origin',(53.92764277795,26.3022688073447,0.));
#1234=CARTESIAN_POINT('Origin',(-2.14505039930488,35.5287217549293,2.));
#1235=CARTESIAN_POINT('Origin',(4.35,42.548719926563,13.25));
#1236=CARTESIAN_POINT('',(4.35,41.548719926563,13.25));
#1237=CARTESIAN_POINT('',(4.35,42.548719926563,13.25));
#1238=CARTESIAN_POINT('',(4.35,41.548719926563,9.65000000000001));
#1239=CARTESIAN_POINT('',(4.35,41.548719926563,9.65000000000001));
#1240=CARTESIAN_POINT('',(4.35,42.548719926563,9.65));
#1241=CARTESIAN_POINT('Origin',(-4.35,42.548719926563,13.25));
#1242=CARTESIAN_POINT('',(-4.35,41.548719926563,13.25));
#1243=CARTESIAN_POINT('',(-4.35,42.548719926563,13.25));
#1244=CARTESIAN_POINT('',(4.35,41.548719926563,13.25));
#1245=CARTESIAN_POINT('Origin',(-4.35,42.548719926563,9.65));
#1246=CARTESIAN_POINT('',(-4.35,41.548719926563,9.65000000000001));
#1247=CARTESIAN_POINT('',(-4.35,42.548719926563,9.65));
#1248=CARTESIAN_POINT('',(-4.35,41.548719926563,13.25));
#1249=CARTESIAN_POINT('Origin',(5.55111512312546E-16,41.548719926563,10.825));
#1250=CARTESIAN_POINT('',(-2.1849364905389,41.548719926563,8.40000000000001));
#1251=CARTESIAN_POINT('',(-4.35,41.548719926563,9.65000000000001));
#1252=CARTESIAN_POINT('',(2.1849364905389,41.548719926563,8.40000000000001));
#1253=CARTESIAN_POINT('',(-2.1849364905389,41.548719926563,8.40000000000001));
#1254=CARTESIAN_POINT('',(2.1849364905389,41.548719926563,8.40000000000001));
#1255=CARTESIAN_POINT('Origin',(-2.1849364905389,42.548719926563,8.4));
#1256=CARTESIAN_POINT('',(-2.1849364905389,42.548719926563,8.4));
#1257=CARTESIAN_POINT('Origin',(2.1849364905389,42.548719926563,8.4));
#1258=CARTESIAN_POINT('',(2.1849364905389,42.548719926563,8.4));
#1259=CARTESIAN_POINT('Origin',(4.35,42.548719926563,9.65));
#1260=CARTESIAN_POINT('Origin',(-26.4269032957844,37.6499442196813,13.8699999999998));
#1261=CARTESIAN_POINT('',(-32.6963829892277,50.3085135878784,13.8699999999998));
#1262=CARTESIAN_POINT('',(-24.6862052016702,38.8687941469272,13.8699999999998));
#1263=CARTESIAN_POINT('',(-36.1756435889867,47.867763796971,13.8699999999998));
#1264=CARTESIAN_POINT('Ctrl Pts',(-36.1756435889867,47.867763796971,13.8699999999998));
#1265=CARTESIAN_POINT('Ctrl Pts',(-36.1756435889867,47.867763796971,13.6031560021388));
#1266=CARTESIAN_POINT('Ctrl Pts',(-36.1331089762314,47.9000021621993,13.3185414875019));
#1267=CARTESIAN_POINT('Ctrl Pts',(-35.9596409836968,48.0303653092916,12.7949938932435));
#1268=CARTESIAN_POINT('Ctrl Pts',(-35.8286501442023,48.1284057854056,12.5560588647292));
#1269=CARTESIAN_POINT('Ctrl Pts',(-35.52518549787,48.3528366359281,12.1787445772588));
#1270=CARTESIAN_POINT('Ctrl Pts',(-35.3324669407531,48.4941782113321,12.0152074196359));
#1271=CARTESIAN_POINT('Ctrl Pts',(-34.9079331769202,48.8006633338864,11.7983344834726));
#1272=CARTESIAN_POINT('Ctrl Pts',(-34.6760580562339,48.9657247980298,11.7449999999998));
#1273=CARTESIAN_POINT('Ctrl Pts',(-34.2391549800419,49.2722180355046,11.7449999999998));
#1274=CARTESIAN_POINT('Ctrl Pts',(-34.0050303116219,49.4340616411279,11.7983321864686));
#1275=CARTESIAN_POINT('Ctrl Pts',(-33.5723567690851,49.7289191296432,12.0152012633509));
#1276=CARTESIAN_POINT('Ctrl Pts',(-33.3738647279564,49.8620172643926,12.1787369791236));
#1277=CARTESIAN_POINT('Ctrl Pts',(-33.0595523870957,50.0709657313007,12.5560522517628));
#1278=CARTESIAN_POINT('Ctrl Pts',(-32.9227853500947,50.1607613089149,12.7949902141974));
#1279=CARTESIAN_POINT('Ctrl Pts',(-32.7411709211414,50.2794938023163,13.3185414965527));
#1280=CARTESIAN_POINT('Ctrl Pts',(-32.6963829892277,50.3085135878784,13.6031566441156));
#1281=CARTESIAN_POINT('Ctrl Pts',(-32.6963829892277,50.3085135878784,13.8699999999998));
#1282=CARTESIAN_POINT('Ctrl Pts',(-32.6963829892277,50.3085135878784,13.8699999999998));
#1283=CARTESIAN_POINT('Ctrl Pts',(-32.6963829892277,50.3085135878784,14.1368433558841));
#1284=CARTESIAN_POINT('Ctrl Pts',(-32.7411709211414,50.2794938023163,14.421458503447));
#1285=CARTESIAN_POINT('Ctrl Pts',(-32.9227853500947,50.1607613089149,14.9450097858023));
#1286=CARTESIAN_POINT('Ctrl Pts',(-33.0595523870957,50.0709657313007,15.1839477482369));
#1287=CARTESIAN_POINT('Ctrl Pts',(-33.3738647279564,49.8620172643926,15.5612630208761));
#1288=CARTESIAN_POINT('Ctrl Pts',(-33.5723567690851,49.7289191296432,15.7247987366488));
#1289=CARTESIAN_POINT('Ctrl Pts',(-34.0050303116219,49.4340616411279,15.9416678135311));
#1290=CARTESIAN_POINT('Ctrl Pts',(-34.2391549800419,49.2722180355046,15.9949999999998));
#1291=CARTESIAN_POINT('Ctrl Pts',(-34.6760580562339,48.9657247980298,15.9949999999998));
#1292=CARTESIAN_POINT('Ctrl Pts',(-34.9079331769202,48.8006633338864,15.9416655165271));
#1293=CARTESIAN_POINT('Ctrl Pts',(-35.3324669407531,48.4941782113321,15.7247925803638));
#1294=CARTESIAN_POINT('Ctrl Pts',(-35.52518549787,48.3528366359281,15.5612554227409));
#1295=CARTESIAN_POINT('Ctrl Pts',(-35.8286501442023,48.1284057854056,15.1839411352705));
#1296=CARTESIAN_POINT('Ctrl Pts',(-35.9596409836968,48.0303653092916,14.9450061067562));
#1297=CARTESIAN_POINT('Ctrl Pts',(-36.1331089762314,47.9000021621993,14.4214585124978));
#1298=CARTESIAN_POINT('Ctrl Pts',(-36.1756435889867,47.867763796971,14.1368439978609));
#1299=CARTESIAN_POINT('Ctrl Pts',(-36.1756435889867,47.867763796971,13.8699999999998));
#1300=CARTESIAN_POINT('Origin',(-35.7315441834436,28.9789965623497,13.8699999999998));
#1301=CARTESIAN_POINT('',(-45.2396468659469,39.4128703781445,13.8699999999998));
#1302=CARTESIAN_POINT('',(-34.3942383524625,30.6304317304457,13.8699999999998));
#1303=CARTESIAN_POINT('',(-47.9161489994021,36.1115309155829,13.8699999999998));
#1304=CARTESIAN_POINT('Ctrl Pts',(-47.9161489994021,36.1115309155829,13.8699999999998));
#1305=CARTESIAN_POINT('Ctrl Pts',(-47.9161489994021,36.1115309155829,13.6031565298056));
#1306=CARTESIAN_POINT('Ctrl Pts',(-47.8840882292358,36.1541956756125,13.3185414845299));
#1307=CARTESIAN_POINT('Ctrl Pts',(-47.7530276219738,36.3271265506159,12.7949908178259));
#1308=CARTESIAN_POINT('Ctrl Pts',(-47.6539492729825,36.4573275516681,12.5560533478872));
#1309=CARTESIAN_POINT('Ctrl Pts',(-47.4236741370171,36.7563701196442,12.178738262247));
#1310=CARTESIAN_POINT('Ctrl Pts',(-47.2771106423666,36.9451396904116,12.0152023127635));
#1311=CARTESIAN_POINT('Ctrl Pts',(-46.9529130020715,37.356291278101,11.7983325837123));
#1312=CARTESIAN_POINT('Ctrl Pts',(-46.7751987506006,37.5786107551758,11.7449999999998));
#1313=CARTESIAN_POINT('Ctrl Pts',(-46.4391011805008,37.9931716001101,11.7449999999998));
#1314=CARTESIAN_POINT('Ctrl Pts',(-46.2583344799088,38.2130217462925,11.7983340844434));
#1315=CARTESIAN_POINT('Ctrl Pts',(-45.9231056944038,38.615241851095,12.0152063349282));
#1316=CARTESIAN_POINT('Ctrl Pts',(-45.7687213391946,38.7976772740291,12.1787432264343));
#1317=CARTESIAN_POINT('Ctrl Pts',(-45.5237570208747,39.0848200849815,12.5560576684216));
#1318=CARTESIAN_POINT('Ctrl Pts',(-45.4168562417571,39.208684501499,12.7949932215045));
#1319=CARTESIAN_POINT('Ctrl Pts',(-45.2747611264546,39.3726780416506,13.3185414786168));
#1320=CARTESIAN_POINT('Ctrl Pts',(-45.2396468659469,39.4128703781445,13.6031561103749));
#1321=CARTESIAN_POINT('Ctrl Pts',(-45.2396468659469,39.4128703781445,13.8699999999998));
#1322=CARTESIAN_POINT('Ctrl Pts',(-45.2396468659469,39.4128703781445,13.8699999999998));
#1323=CARTESIAN_POINT('Ctrl Pts',(-45.2396468659469,39.4128703781445,14.1368446085739));
#1324=CARTESIAN_POINT('Ctrl Pts',(-45.27476131438,39.372677827035,14.4214599579193));
#1325=CARTESIAN_POINT('Ctrl Pts',(-45.4168571310248,39.2086834729141,14.9450093108619));
#1326=CARTESIAN_POINT('Ctrl Pts',(-45.5237584227801,39.0848184564183,15.1839452422084));
#1327=CARTESIAN_POINT('Ctrl Pts',(-45.7687232214396,38.7976750529694,15.5612589214436));
#1328=CARTESIAN_POINT('Ctrl Pts',(-45.9231073226021,38.615239911047,15.724795024066));
#1329=CARTESIAN_POINT('Ctrl Pts',(-46.2583353929889,38.2130206372188,15.9416662006092));
#1330=CARTESIAN_POINT('Ctrl Pts',(-46.4391016332693,37.9931710416411,15.9949999999998));
#1331=CARTESIAN_POINT('Ctrl Pts',(-46.7751991889616,37.5786102144777,15.9949999999998));
#1332=CARTESIAN_POINT('Ctrl Pts',(-46.9529138698349,37.3562901911329,15.9416671403065));
#1333=CARTESIAN_POINT('Ctrl Pts',(-47.2771121540893,36.945137759685,15.7247963714745));
#1334=CARTESIAN_POINT('Ctrl Pts',(-47.4236758640574,36.7563678920205,15.5612596581959));
#1335=CARTESIAN_POINT('Ctrl Pts',(-47.653950534936,36.4573258976897,15.1839438340695));
#1336=CARTESIAN_POINT('Ctrl Pts',(-47.7530284182386,36.32712550235,14.9450067303671));
#1337=CARTESIAN_POINT('Ctrl Pts',(-47.8840883948981,36.1541954546419,14.4214571246397));
#1338=CARTESIAN_POINT('Ctrl Pts',(-47.9161489994021,36.1115309155829,14.1368427741236));
#1339=CARTESIAN_POINT('Ctrl Pts',(-47.9161489994021,36.1115309155829,13.8699999999998));
#1340=CARTESIAN_POINT('Origin',(-42.3216396499313,18.0138039753361,13.8699999999998));
#1341=CARTESIAN_POINT('',(-54.3460967668267,25.4263990020355,13.8699999999998));
#1342=CARTESIAN_POINT('',(-41.4913360018918,19.9698767889226,13.8699999999998));
#1343=CARTESIAN_POINT('',(-56.0096668931047,21.5155110216667,13.8699999999998));
#1344=CARTESIAN_POINT('Ctrl Pts',(-56.0096668931047,21.5155110216667,13.8699999999998));
#1345=CARTESIAN_POINT('Ctrl Pts',(-56.0096668931047,21.5155110216667,13.6031565992759));
#1346=CARTESIAN_POINT('Ctrl Pts',(-55.9905990230503,21.5653562785112,13.3185414913306));
#1347=CARTESIAN_POINT('Ctrl Pts',(-55.9122446541354,21.7676978137101,12.7949904484781));
#1348=CARTESIAN_POINT('Ctrl Pts',(-55.8528647351383,21.9201531533178,12.5560526777779));
#1349=CARTESIAN_POINT('Ctrl Pts',(-55.7138728903242,22.2710570090123,12.1787374790544));
#1350=CARTESIAN_POINT('Ctrl Pts',(-55.624978229971,22.4928951889664,12.0152016727243));
#1351=CARTESIAN_POINT('Ctrl Pts',(-55.4265791358863,22.9774424677712,11.7983323417214));
#1352=CARTESIAN_POINT('Ctrl Pts',(-55.316980469689,23.2401135070285,11.7449999999998));
#1353=CARTESIAN_POINT('Ctrl Pts',(-55.1080803919182,23.7312174695406,11.7449999999998));
#1354=CARTESIAN_POINT('Ctrl Pts',(-54.9948666366155,23.992356780176,11.7983343274327));
#1355=CARTESIAN_POINT('Ctrl Pts',(-54.7834017353968,24.4713594747963,12.0152069947022));
#1356=CARTESIAN_POINT('Ctrl Pts',(-54.6852433421911,24.689264383575,12.1787440474813));
#1357=CARTESIAN_POINT('Ctrl Pts',(-54.5288517868919,25.0327772592982,12.5560583945473));
#1358=CARTESIAN_POINT('Ctrl Pts',(-54.4602060703871,25.1812971491506,12.7949936289356));
#1359=CARTESIAN_POINT('Ctrl Pts',(-54.3687813577985,25.3780886793564,13.3185414835065));
#1360=CARTESIAN_POINT('Ctrl Pts',(-54.3460967668267,25.4263990020356,13.6031560443007));
#1361=CARTESIAN_POINT('Ctrl Pts',(-54.3460967668267,25.4263990020356,13.8699999999998));
#1362=CARTESIAN_POINT('Ctrl Pts',(-54.3460967668267,25.4263990020355,13.8699999999998));
#1363=CARTESIAN_POINT('Ctrl Pts',(-54.3460967668267,25.4263990020355,14.136843955699));
#1364=CARTESIAN_POINT('Ctrl Pts',(-54.3687813577985,25.3780886793564,14.4214585164932));
#1365=CARTESIAN_POINT('Ctrl Pts',(-54.4602060703871,25.1812971491506,14.9450063710641));
#1366=CARTESIAN_POINT('Ctrl Pts',(-54.5288517868919,25.0327772592982,15.1839416054524));
#1367=CARTESIAN_POINT('Ctrl Pts',(-54.6852433421911,24.689264383575,15.5612559525184));
#1368=CARTESIAN_POINT('Ctrl Pts',(-54.7834017353968,24.4713594747963,15.7247930052975));
#1369=CARTESIAN_POINT('Ctrl Pts',(-54.9948666366155,23.992356780176,15.941665672567));
#1370=CARTESIAN_POINT('Ctrl Pts',(-55.1080803919182,23.7312174695406,15.9949999999998));
#1371=CARTESIAN_POINT('Ctrl Pts',(-55.316980469689,23.2401135070285,15.9949999999998));
#1372=CARTESIAN_POINT('Ctrl Pts',(-55.4265791358863,22.9774424677712,15.9416676582783));
#1373=CARTESIAN_POINT('Ctrl Pts',(-55.624978229971,22.4928951889664,15.7247983272754));
#1374=CARTESIAN_POINT('Ctrl Pts',(-55.7138728903242,22.2710570090123,15.5612625209453));
#1375=CARTESIAN_POINT('Ctrl Pts',(-55.8528647351383,21.9201531533178,15.1839473222218));
#1376=CARTESIAN_POINT('Ctrl Pts',(-55.9122446541354,21.7676978137101,14.9450095515216));
#1377=CARTESIAN_POINT('Ctrl Pts',(-55.9905990230502,21.5653562785112,14.4214585086691));
#1378=CARTESIAN_POINT('Ctrl Pts',(-56.0096668931047,21.5155110216667,14.1368434007238));
#1379=CARTESIAN_POINT('Ctrl Pts',(-56.0096668931047,21.5155110216667,13.8699999999998));
#1380=CARTESIAN_POINT('Origin',(0.,0.,0.));
#1381=CARTESIAN_POINT('Origin',(0.,0.,0.));
#1382=UNCERTAINTY_MEASURE_WITH_UNIT(LENGTH_MEASURE(0.01),#1386,
'DISTANCE_ACCURACY_VALUE',
'Maximum model space distance between geometric entities at asserted c
onnectivities');
#1383=UNCERTAINTY_MEASURE_WITH_UNIT(LENGTH_MEASURE(0.01),#1386,
'DISTANCE_ACCURACY_VALUE',
'Maximum model space distance between geometric entities at asserted c
onnectivities');
#1384=(
GEOMETRIC_REPRESENTATION_CONTEXT(3)
GLOBAL_UNCERTAINTY_ASSIGNED_CONTEXT((#1382))
GLOBAL_UNIT_ASSIGNED_CONTEXT((#1386,#1387,#1388))
REPRESENTATION_CONTEXT('','3D')
);
#1385=(
GEOMETRIC_REPRESENTATION_CONTEXT(3)
GLOBAL_UNCERTAINTY_ASSIGNED_CONTEXT((#1383))
GLOBAL_UNIT_ASSIGNED_CONTEXT((#1386,#1387,#1388))
REPRESENTATION_CONTEXT('','3D')
);
#1386=(
LENGTH_UNIT()
NAMED_UNIT(*)
SI_UNIT(.MILLI.,.METRE.)
);
#1387=(
NAMED_UNIT(*)
PLANE_ANGLE_UNIT()
SI_UNIT($,.RADIAN.)
);
#1388=(
NAMED_UNIT(*)
SI_UNIT($,.STERADIAN.)
SOLID_ANGLE_UNIT()
);
#1389=SHAPE_DEFINITION_REPRESENTATION(#1390,#1391);
#1390=PRODUCT_DEFINITION_SHAPE('',$,#1393);
#1391=SHAPE_REPRESENTATION('',(#545),#1384);
#1392=PRODUCT_DEFINITION_CONTEXT('part definition',#1397,'design');
#1393=PRODUCT_DEFINITION('2026-09-02-17-14-02-378','PCB Design',#1394,#1392);
#1394=PRODUCT_DEFINITION_FORMATION('',$,#1399);
#1395=PRODUCT_RELATED_PRODUCT_CATEGORY('PCB Design','PCB Design',(#1399));
#1396=APPLICATION_PROTOCOL_DEFINITION('international standard',
'automotive_design',2009,#1397);
#1397=APPLICATION_CONTEXT(
'Core Data for Automotive Mechanical Design Process');
#1398=PRODUCT_CONTEXT('part definition',#1397,'mechanical');
#1399=PRODUCT('2026-09-02-17-14-02-378','PCB Design',$,(#1398));
#1400=PRESENTATION_STYLE_ASSIGNMENT((#1401));
#1401=SURFACE_STYLE_USAGE(.BOTH.,#1402);
#1402=SURFACE_SIDE_STYLE('',(#1403));
#1403=SURFACE_STYLE_FILL_AREA(#1404);
#1404=FILL_AREA_STYLE('Stahl - satiniert',(#1405));
#1405=FILL_AREA_STYLE_COLOUR('Stahl - satiniert',#1406);
#1406=COLOUR_RGB('Stahl - satiniert',0.627450980392157,0.627450980392157,
0.627450980392157);
ENDSEC;
END-ISO-10303-21;
