ISO-10303-21;
HEADER;
/* Generated by software containing ST-Developer
 * from STEP Tools, Inc. (www.steptools.com) 
 */

FILE_DESCRIPTION(
/* description */ (''),
/* implementation_level */ '2;1');

FILE_NAME(
/* name */ 'Lightguide.step',
/* time_stamp */ '2026-09-21T09:34:55+02:00',
/* author */ (''),
/* organization */ (''),
/* preprocessor_version */ 'ST-DEVELOPER v20.2',
/* originating_system */ 'Autodesk Translation Framework v15.15.0.0',
/* authorisation */ '');

FILE_SCHEMA (('AUTOMOTIVE_DESIGN { 1 0 10303 214 3 1 1 }'));
ENDSEC;

DATA;
#10=MECHANICAL_DESIGN_GEOMETRIC_PRESENTATION_REPRESENTATION('',(#13),#583);
#11=SHAPE_REPRESENTATION_RELATIONSHIP('SRR','None',#589,#12);
#12=ADVANCED_BREP_SHAPE_REPRESENTATION('',(#14),#582);
#13=STYLED_ITEM('',(#598),#14);
#14=MANIFOLD_SOLID_BREP('Lichtleiter',#347);
#15=PLANE('',#352);
#16=PLANE('',#356);
#17=PLANE('',#362);
#18=PLANE('',#363);
#19=PLANE('',#365);
#20=PLANE('',#368);
#21=PLANE('',#369);
#22=PLANE('',#370);
#23=PLANE('',#371);
#24=PLANE('',#372);
#25=PLANE('',#373);
#26=PLANE('',#374);
#27=PLANE('',#375);
#28=PLANE('',#376);
#29=FACE_OUTER_BOUND('',#47,.T.);
#30=FACE_OUTER_BOUND('',#48,.T.);
#31=FACE_OUTER_BOUND('',#49,.T.);
#32=FACE_OUTER_BOUND('',#50,.T.);
#33=FACE_OUTER_BOUND('',#51,.T.);
#34=FACE_OUTER_BOUND('',#52,.T.);
#35=FACE_OUTER_BOUND('',#53,.T.);
#36=FACE_OUTER_BOUND('',#54,.T.);
#37=FACE_OUTER_BOUND('',#55,.T.);
#38=FACE_OUTER_BOUND('',#56,.T.);
#39=FACE_OUTER_BOUND('',#57,.T.);
#40=FACE_OUTER_BOUND('',#58,.T.);
#41=FACE_OUTER_BOUND('',#59,.T.);
#42=FACE_OUTER_BOUND('',#60,.T.);
#43=FACE_OUTER_BOUND('',#61,.T.);
#44=FACE_OUTER_BOUND('',#62,.T.);
#45=FACE_OUTER_BOUND('',#63,.T.);
#46=FACE_OUTER_BOUND('',#64,.T.);
#47=EDGE_LOOP('',(#229,#230,#231,#232,#233,#234));
#48=EDGE_LOOP('',(#235,#236,#237,#238));
#49=EDGE_LOOP('',(#239,#240,#241,#242,#243,#244));
#50=EDGE_LOOP('',(#245,#246,#247,#248,#249,#250,#251,#252));
#51=EDGE_LOOP('',(#253,#254,#255,#256,#257,#258,#259));
#52=EDGE_LOOP('',(#260,#261,#262,#263));
#53=EDGE_LOOP('',(#264,#265,#266,#267,#268,#269,#270,#271));
#54=EDGE_LOOP('',(#272,#273,#274,#275));
#55=EDGE_LOOP('',(#276,#277,#278,#279,#280,#281,#282));
#56=EDGE_LOOP('',(#283,#284,#285,#286));
#57=EDGE_LOOP('',(#287,#288,#289,#290,#291,#292));
#58=EDGE_LOOP('',(#293,#294,#295,#296));
#59=EDGE_LOOP('',(#297,#298,#299,#300));
#60=EDGE_LOOP('',(#301,#302,#303,#304));
#61=EDGE_LOOP('',(#305,#306,#307,#308,#309,#310,#311,#312));
#62=EDGE_LOOP('',(#313,#314,#315,#316));
#63=EDGE_LOOP('',(#317,#318,#319,#320));
#64=EDGE_LOOP('',(#321,#322,#323,#324));
#65=B_SPLINE_CURVE_WITH_KNOTS('',3,(#483,#484,#485,#486,#487,#488),
 .UNSPECIFIED.,.F.,.F.,(4,2,4),(1.01088235417174,1.07536714093381,1.13212044199687),
 .UNSPECIFIED.);
#66=B_SPLINE_CURVE_WITH_KNOTS('',3,(#499,#500,#501,#502,#503,#504),
 .UNSPECIFIED.,.F.,.F.,(4,2,4),(0.0148275009769939,0.071580802016516,0.136066419005231),
 .UNSPECIFIED.);
#67=LINE('',#477,#103);
#68=LINE('',#481,#104);
#69=LINE('',#489,#105);
#70=LINE('',#492,#106);
#71=LINE('',#494,#107);
#72=LINE('',#495,#108);
#73=LINE('',#506,#109);
#74=LINE('',#510,#110);
#75=LINE('',#514,#111);
#76=LINE('',#516,#112);
#77=LINE('',#518,#113);
#78=LINE('',#520,#114);
#79=LINE('',#527,#115);
#80=LINE('',#530,#116);
#81=LINE('',#531,#117);
#82=LINE('',#534,#118);
#83=LINE('',#536,#119);
#84=LINE('',#537,#120);
#85=LINE('',#541,#121);
#86=LINE('',#543,#122);
#87=LINE('',#547,#123);
#88=LINE('',#548,#124);
#89=LINE('',#549,#125);
#90=LINE('',#551,#126);
#91=LINE('',#553,#127);
#92=LINE('',#555,#128);
#93=LINE('',#558,#129);
#94=LINE('',#560,#130);
#95=LINE('',#565,#131);
#96=LINE('',#566,#132);
#97=LINE('',#568,#133);
#98=LINE('',#571,#134);
#99=LINE('',#573,#135);
#100=LINE('',#574,#136);
#101=LINE('',#576,#137);
#102=LINE('',#578,#138);
#103=VECTOR('',#383,1.9);
#104=VECTOR('',#386,10.);
#105=VECTOR('',#387,10.);
#106=VECTOR('',#390,10.);
#107=VECTOR('',#391,1.9);
#108=VECTOR('',#392,10.);
#109=VECTOR('',#395,10.);
#110=VECTOR('',#400,10.);
#111=VECTOR('',#403,10.);
#112=VECTOR('',#404,10.);
#113=VECTOR('',#405,10.);
#114=VECTOR('',#408,10.);
#115=VECTOR('',#415,10.);
#116=VECTOR('',#418,10.);
#117=VECTOR('',#419,10.);
#118=VECTOR('',#422,10.);
#119=VECTOR('',#423,10.);
#120=VECTOR('',#424,10.);
#121=VECTOR('',#427,10.);
#122=VECTOR('',#428,10.);
#123=VECTOR('',#431,10.);
#124=VECTOR('',#432,10.);
#125=VECTOR('',#433,10.);
#126=VECTOR('',#436,10.);
#127=VECTOR('',#439,10.);
#128=VECTOR('',#440,10.);
#129=VECTOR('',#443,10.);
#130=VECTOR('',#446,10.);
#131=VECTOR('',#453,10.);
#132=VECTOR('',#454,10.);
#133=VECTOR('',#457,10.);
#134=VECTOR('',#460,10.);
#135=VECTOR('',#461,10.);
#136=VECTOR('',#462,10.);
#137=VECTOR('',#465,10.);
#138=VECTOR('',#468,10.);
#139=CIRCLE('',#350,1.9);
#140=CIRCLE('',#351,1.9);
#141=CIRCLE('',#354,1.9);
#142=CIRCLE('',#355,1.9);
#143=CIRCLE('',#357,41.125);
#144=CIRCLE('',#358,41.125);
#145=CIRCLE('',#360,41.125);
#146=CIRCLE('',#361,41.125);
#147=CIRCLE('',#364,41.125);
#148=CIRCLE('',#367,41.125);
#149=VERTEX_POINT('',#473);
#150=VERTEX_POINT('',#474);
#151=VERTEX_POINT('',#476);
#152=VERTEX_POINT('',#478);
#153=VERTEX_POINT('',#480);
#154=VERTEX_POINT('',#482);
#155=VERTEX_POINT('',#491);
#156=VERTEX_POINT('',#493);
#157=VERTEX_POINT('',#497);
#158=VERTEX_POINT('',#498);
#159=VERTEX_POINT('',#505);
#160=VERTEX_POINT('',#508);
#161=VERTEX_POINT('',#512);
#162=VERTEX_POINT('',#513);
#163=VERTEX_POINT('',#515);
#164=VERTEX_POINT('',#517);
#165=VERTEX_POINT('',#523);
#166=VERTEX_POINT('',#524);
#167=VERTEX_POINT('',#526);
#168=VERTEX_POINT('',#528);
#169=VERTEX_POINT('',#533);
#170=VERTEX_POINT('',#535);
#171=VERTEX_POINT('',#539);
#172=VERTEX_POINT('',#540);
#173=VERTEX_POINT('',#542);
#174=VERTEX_POINT('',#544);
#175=VERTEX_POINT('',#546);
#176=VERTEX_POINT('',#554);
#177=VERTEX_POINT('',#556);
#178=VERTEX_POINT('',#564);
#179=VERTEX_POINT('',#570);
#180=VERTEX_POINT('',#572);
#181=EDGE_CURVE('',#149,#150,#139,.T.);
#182=EDGE_CURVE('',#149,#151,#67,.T.);
#183=EDGE_CURVE('',#151,#152,#140,.T.);
#184=EDGE_CURVE('',#153,#152,#68,.F.);
#185=EDGE_CURVE('',#153,#154,#65,.T.);
#186=EDGE_CURVE('',#150,#154,#69,.T.);
#187=EDGE_CURVE('',#149,#155,#70,.T.);
#188=EDGE_CURVE('',#156,#155,#71,.T.);
#189=EDGE_CURVE('',#156,#151,#72,.T.);
#190=EDGE_CURVE('',#157,#158,#66,.F.);
#191=EDGE_CURVE('',#157,#159,#73,.T.);
#192=EDGE_CURVE('',#156,#159,#141,.F.);
#193=EDGE_CURVE('',#160,#155,#142,.T.);
#194=EDGE_CURVE('',#158,#160,#74,.T.);
#195=EDGE_CURVE('',#161,#162,#75,.T.);
#196=EDGE_CURVE('',#162,#163,#76,.T.);
#197=EDGE_CURVE('',#163,#164,#77,.T.);
#198=EDGE_CURVE('',#164,#158,#143,.T.);
#199=EDGE_CURVE('',#150,#160,#78,.T.);
#200=EDGE_CURVE('',#154,#161,#144,.T.);
#201=EDGE_CURVE('',#165,#166,#145,.T.);
#202=EDGE_CURVE('',#167,#166,#79,.T.);
#203=EDGE_CURVE('',#168,#167,#146,.T.);
#204=EDGE_CURVE('',#161,#168,#80,.T.);
#205=EDGE_CURVE('',#165,#153,#81,.T.);
#206=EDGE_CURVE('',#166,#169,#82,.T.);
#207=EDGE_CURVE('',#170,#169,#83,.T.);
#208=EDGE_CURVE('',#170,#167,#84,.T.);
#209=EDGE_CURVE('',#171,#172,#85,.T.);
#210=EDGE_CURVE('',#173,#171,#86,.T.);
#211=EDGE_CURVE('',#174,#173,#147,.T.);
#212=EDGE_CURVE('',#175,#174,#87,.T.);
#213=EDGE_CURVE('',#169,#175,#88,.T.);
#214=EDGE_CURVE('',#165,#172,#89,.T.);
#215=EDGE_CURVE('',#172,#152,#90,.T.);
#216=EDGE_CURVE('',#173,#157,#91,.F.);
#217=EDGE_CURVE('',#164,#176,#92,.T.);
#218=EDGE_CURVE('',#177,#176,#148,.T.);
#219=EDGE_CURVE('',#174,#177,#93,.T.);
#220=EDGE_CURVE('',#159,#171,#94,.T.);
#221=EDGE_CURVE('',#178,#168,#95,.T.);
#222=EDGE_CURVE('',#178,#162,#96,.T.);
#223=EDGE_CURVE('',#178,#170,#97,.T.);
#224=EDGE_CURVE('',#179,#175,#98,.T.);
#225=EDGE_CURVE('',#179,#180,#99,.T.);
#226=EDGE_CURVE('',#180,#163,#100,.T.);
#227=EDGE_CURVE('',#179,#177,#101,.T.);
#228=EDGE_CURVE('',#180,#176,#102,.T.);
#229=ORIENTED_EDGE('',*,*,#181,.F.);
#230=ORIENTED_EDGE('',*,*,#182,.T.);
#231=ORIENTED_EDGE('',*,*,#183,.T.);
#232=ORIENTED_EDGE('',*,*,#184,.F.);
#233=ORIENTED_EDGE('',*,*,#185,.T.);
#234=ORIENTED_EDGE('',*,*,#186,.F.);
#235=ORIENTED_EDGE('',*,*,#182,.F.);
#236=ORIENTED_EDGE('',*,*,#187,.T.);
#237=ORIENTED_EDGE('',*,*,#188,.F.);
#238=ORIENTED_EDGE('',*,*,#189,.T.);
#239=ORIENTED_EDGE('',*,*,#190,.F.);
#240=ORIENTED_EDGE('',*,*,#191,.T.);
#241=ORIENTED_EDGE('',*,*,#192,.F.);
#242=ORIENTED_EDGE('',*,*,#188,.T.);
#243=ORIENTED_EDGE('',*,*,#193,.F.);
#244=ORIENTED_EDGE('',*,*,#194,.F.);
#245=ORIENTED_EDGE('',*,*,#195,.T.);
#246=ORIENTED_EDGE('',*,*,#196,.T.);
#247=ORIENTED_EDGE('',*,*,#197,.T.);
#248=ORIENTED_EDGE('',*,*,#198,.T.);
#249=ORIENTED_EDGE('',*,*,#194,.T.);
#250=ORIENTED_EDGE('',*,*,#199,.F.);
#251=ORIENTED_EDGE('',*,*,#186,.T.);
#252=ORIENTED_EDGE('',*,*,#200,.T.);
#253=ORIENTED_EDGE('',*,*,#201,.T.);
#254=ORIENTED_EDGE('',*,*,#202,.F.);
#255=ORIENTED_EDGE('',*,*,#203,.F.);
#256=ORIENTED_EDGE('',*,*,#204,.F.);
#257=ORIENTED_EDGE('',*,*,#200,.F.);
#258=ORIENTED_EDGE('',*,*,#185,.F.);
#259=ORIENTED_EDGE('',*,*,#205,.F.);
#260=ORIENTED_EDGE('',*,*,#206,.T.);
#261=ORIENTED_EDGE('',*,*,#207,.F.);
#262=ORIENTED_EDGE('',*,*,#208,.T.);
#263=ORIENTED_EDGE('',*,*,#202,.T.);
#264=ORIENTED_EDGE('',*,*,#209,.F.);
#265=ORIENTED_EDGE('',*,*,#210,.F.);
#266=ORIENTED_EDGE('',*,*,#211,.F.);
#267=ORIENTED_EDGE('',*,*,#212,.F.);
#268=ORIENTED_EDGE('',*,*,#213,.F.);
#269=ORIENTED_EDGE('',*,*,#206,.F.);
#270=ORIENTED_EDGE('',*,*,#201,.F.);
#271=ORIENTED_EDGE('',*,*,#214,.T.);
#272=ORIENTED_EDGE('',*,*,#215,.F.);
#273=ORIENTED_EDGE('',*,*,#214,.F.);
#274=ORIENTED_EDGE('',*,*,#205,.T.);
#275=ORIENTED_EDGE('',*,*,#184,.T.);
#276=ORIENTED_EDGE('',*,*,#211,.T.);
#277=ORIENTED_EDGE('',*,*,#216,.T.);
#278=ORIENTED_EDGE('',*,*,#190,.T.);
#279=ORIENTED_EDGE('',*,*,#198,.F.);
#280=ORIENTED_EDGE('',*,*,#217,.T.);
#281=ORIENTED_EDGE('',*,*,#218,.F.);
#282=ORIENTED_EDGE('',*,*,#219,.F.);
#283=ORIENTED_EDGE('',*,*,#220,.F.);
#284=ORIENTED_EDGE('',*,*,#191,.F.);
#285=ORIENTED_EDGE('',*,*,#216,.F.);
#286=ORIENTED_EDGE('',*,*,#210,.T.);
#287=ORIENTED_EDGE('',*,*,#220,.T.);
#288=ORIENTED_EDGE('',*,*,#209,.T.);
#289=ORIENTED_EDGE('',*,*,#215,.T.);
#290=ORIENTED_EDGE('',*,*,#183,.F.);
#291=ORIENTED_EDGE('',*,*,#189,.F.);
#292=ORIENTED_EDGE('',*,*,#192,.T.);
#293=ORIENTED_EDGE('',*,*,#181,.T.);
#294=ORIENTED_EDGE('',*,*,#199,.T.);
#295=ORIENTED_EDGE('',*,*,#193,.T.);
#296=ORIENTED_EDGE('',*,*,#187,.F.);
#297=ORIENTED_EDGE('',*,*,#221,.F.);
#298=ORIENTED_EDGE('',*,*,#222,.T.);
#299=ORIENTED_EDGE('',*,*,#195,.F.);
#300=ORIENTED_EDGE('',*,*,#204,.T.);
#301=ORIENTED_EDGE('',*,*,#208,.F.);
#302=ORIENTED_EDGE('',*,*,#223,.F.);
#303=ORIENTED_EDGE('',*,*,#221,.T.);
#304=ORIENTED_EDGE('',*,*,#203,.T.);
#305=ORIENTED_EDGE('',*,*,#213,.T.);
#306=ORIENTED_EDGE('',*,*,#224,.F.);
#307=ORIENTED_EDGE('',*,*,#225,.T.);
#308=ORIENTED_EDGE('',*,*,#226,.T.);
#309=ORIENTED_EDGE('',*,*,#196,.F.);
#310=ORIENTED_EDGE('',*,*,#222,.F.);
#311=ORIENTED_EDGE('',*,*,#223,.T.);
#312=ORIENTED_EDGE('',*,*,#207,.T.);
#313=ORIENTED_EDGE('',*,*,#212,.T.);
#314=ORIENTED_EDGE('',*,*,#219,.T.);
#315=ORIENTED_EDGE('',*,*,#227,.F.);
#316=ORIENTED_EDGE('',*,*,#224,.T.);
#317=ORIENTED_EDGE('',*,*,#228,.T.);
#318=ORIENTED_EDGE('',*,*,#217,.F.);
#319=ORIENTED_EDGE('',*,*,#197,.F.);
#320=ORIENTED_EDGE('',*,*,#226,.F.);
#321=ORIENTED_EDGE('',*,*,#228,.F.);
#322=ORIENTED_EDGE('',*,*,#225,.F.);
#323=ORIENTED_EDGE('',*,*,#227,.T.);
#324=ORIENTED_EDGE('',*,*,#218,.T.);
#325=CYLINDRICAL_SURFACE('',#349,1.9);
#326=CYLINDRICAL_SURFACE('',#353,1.9);
#327=CYLINDRICAL_SURFACE('',#359,41.125);
#328=CYLINDRICAL_SURFACE('',#366,41.125);
#329=ADVANCED_FACE('',(#29),#325,.F.);
#330=ADVANCED_FACE('',(#30),#15,.F.);
#331=ADVANCED_FACE('',(#31),#326,.F.);
#332=ADVANCED_FACE('',(#32),#16,.F.);
#333=ADVANCED_FACE('',(#33),#327,.T.);
#334=ADVANCED_FACE('',(#34),#17,.T.);
#335=ADVANCED_FACE('',(#35),#18,.T.);
#336=ADVANCED_FACE('',(#36),#19,.T.);
#337=ADVANCED_FACE('',(#37),#328,.T.);
#338=ADVANCED_FACE('',(#38),#20,.T.);
#339=ADVANCED_FACE('',(#39),#21,.T.);
#340=ADVANCED_FACE('',(#40),#22,.T.);
#341=ADVANCED_FACE('',(#41),#23,.T.);
#342=ADVANCED_FACE('',(#42),#24,.F.);
#343=ADVANCED_FACE('',(#43),#25,.T.);
#344=ADVANCED_FACE('',(#44),#26,.T.);
#345=ADVANCED_FACE('',(#45),#27,.T.);
#346=ADVANCED_FACE('',(#46),#28,.F.);
#347=CLOSED_SHELL('',(#329,#330,#331,#332,#333,#334,#335,#336,#337,#338,
#339,#340,#341,#342,#343,#344,#345,#346));
#348=AXIS2_PLACEMENT_3D('',#471,#377,#378);
#349=AXIS2_PLACEMENT_3D('',#472,#379,#380);
#350=AXIS2_PLACEMENT_3D('',#475,#381,#382);
#351=AXIS2_PLACEMENT_3D('',#479,#384,#385);
#352=AXIS2_PLACEMENT_3D('',#490,#388,#389);
#353=AXIS2_PLACEMENT_3D('',#496,#393,#394);
#354=AXIS2_PLACEMENT_3D('',#507,#396,#397);
#355=AXIS2_PLACEMENT_3D('',#509,#398,#399);
#356=AXIS2_PLACEMENT_3D('',#511,#401,#402);
#357=AXIS2_PLACEMENT_3D('',#519,#406,#407);
#358=AXIS2_PLACEMENT_3D('',#521,#409,#410);
#359=AXIS2_PLACEMENT_3D('',#522,#411,#412);
#360=AXIS2_PLACEMENT_3D('',#525,#413,#414);
#361=AXIS2_PLACEMENT_3D('',#529,#416,#417);
#362=AXIS2_PLACEMENT_3D('',#532,#420,#421);
#363=AXIS2_PLACEMENT_3D('',#538,#425,#426);
#364=AXIS2_PLACEMENT_3D('',#545,#429,#430);
#365=AXIS2_PLACEMENT_3D('',#550,#434,#435);
#366=AXIS2_PLACEMENT_3D('',#552,#437,#438);
#367=AXIS2_PLACEMENT_3D('',#557,#441,#442);
#368=AXIS2_PLACEMENT_3D('',#559,#444,#445);
#369=AXIS2_PLACEMENT_3D('',#561,#447,#448);
#370=AXIS2_PLACEMENT_3D('',#562,#449,#450);
#371=AXIS2_PLACEMENT_3D('',#563,#451,#452);
#372=AXIS2_PLACEMENT_3D('',#567,#455,#456);
#373=AXIS2_PLACEMENT_3D('',#569,#458,#459);
#374=AXIS2_PLACEMENT_3D('',#575,#463,#464);
#375=AXIS2_PLACEMENT_3D('',#577,#466,#467);
#376=AXIS2_PLACEMENT_3D('',#579,#469,#470);
#377=DIRECTION('axis',(0.,0.,1.));
#378=DIRECTION('refdir',(1.,0.,0.));
#379=DIRECTION('center_axis',(0.,-1.,0.));
#380=DIRECTION('ref_axis',(0.99687878551978,0.,0.0789473684210521));
#381=DIRECTION('center_axis',(0.,1.,0.));
#382=DIRECTION('ref_axis',(0.99687878551978,0.,0.0789473684210521));
#383=DIRECTION('',(0.,1.,0.));
#384=DIRECTION('center_axis',(0.,1.,0.));
#385=DIRECTION('ref_axis',(0.99687878551978,0.,0.0789473684210521));
#386=DIRECTION('',(0.,-1.,0.));
#387=DIRECTION('',(0.,1.,0.));
#388=DIRECTION('center_axis',(0.,0.,1.));
#389=DIRECTION('ref_axis',(-1.,0.,0.));
#390=DIRECTION('',(-1.,0.,0.));
#391=DIRECTION('',(0.,-1.,0.));
#392=DIRECTION('',(1.,0.,0.));
#393=DIRECTION('center_axis',(0.,1.,0.));
#394=DIRECTION('ref_axis',(-0.996878785519779,0.,0.0789473684210556));
#395=DIRECTION('',(0.,1.,0.));
#396=DIRECTION('center_axis',(0.,1.,0.));
#397=DIRECTION('ref_axis',(-0.996878785519779,0.,0.0789473684210556));
#398=DIRECTION('center_axis',(0.,1.,0.));
#399=DIRECTION('ref_axis',(-0.996878785519779,0.,0.0789473684210556));
#400=DIRECTION('',(0.,-1.,0.));
#401=DIRECTION('center_axis',(0.,0.,1.));
#402=DIRECTION('ref_axis',(1.,0.,0.));
#403=DIRECTION('',(-2.91047878246787E-15,-1.,0.));
#404=DIRECTION('',(-1.,0.,0.));
#405=DIRECTION('',(0.,1.,0.));
#406=DIRECTION('center_axis',(0.,0.,-1.));
#407=DIRECTION('ref_axis',(-0.243161163441596,0.969985901234512,0.));
#408=DIRECTION('',(-1.,0.,0.));
#409=DIRECTION('center_axis',(0.,0.,-1.));
#410=DIRECTION('ref_axis',(0.109422492401216,0.993995331053776,0.));
#411=DIRECTION('center_axis',(0.,0.,1.));
#412=DIRECTION('ref_axis',(1.,0.,0.));
#413=DIRECTION('center_axis',(0.,0.,-1.));
#414=DIRECTION('ref_axis',(1.,0.,0.));
#415=DIRECTION('',(0.,0.,1.));
#416=DIRECTION('center_axis',(0.,0.,-1.));
#417=DIRECTION('ref_axis',(0.12158047789579,0.992581577198888,0.));
#418=DIRECTION('',(0.,0.,-1.));
#419=DIRECTION('',(0.,0.,-1.));
#420=DIRECTION('center_axis',(1.,-1.11022302462516E-16,0.));
#421=DIRECTION('ref_axis',(1.11022302462516E-16,1.,0.));
#422=DIRECTION('',(-1.11022302462516E-16,-1.,0.));
#423=DIRECTION('',(0.,0.,1.));
#424=DIRECTION('',(1.11022302462516E-16,1.,0.));
#425=DIRECTION('center_axis',(0.,0.,1.));
#426=DIRECTION('ref_axis',(1.,0.,0.));
#427=DIRECTION('',(1.,0.,0.));
#428=DIRECTION('',(0.,1.,0.));
#429=DIRECTION('center_axis',(0.,0.,-1.));
#430=DIRECTION('ref_axis',(1.,0.,0.));
#431=DIRECTION('',(0.,1.,0.));
#432=DIRECTION('',(-1.,0.,0.));
#433=DIRECTION('',(0.,1.,0.));
#434=DIRECTION('center_axis',(1.,0.,0.));
#435=DIRECTION('ref_axis',(0.,0.,-1.));
#436=DIRECTION('',(0.,0.,-1.));
#437=DIRECTION('center_axis',(0.,0.,1.));
#438=DIRECTION('ref_axis',(1.,0.,0.));
#439=DIRECTION('',(0.,0.,1.));
#440=DIRECTION('',(0.,0.,-1.));
#441=DIRECTION('center_axis',(0.,0.,-1.));
#442=DIRECTION('ref_axis',(-0.243161163441596,0.969985901234512,0.));
#443=DIRECTION('',(0.,0.,-1.));
#444=DIRECTION('center_axis',(-1.,0.,0.));
#445=DIRECTION('ref_axis',(0.,0.,1.));
#446=DIRECTION('',(0.,0.,1.));
#447=DIRECTION('center_axis',(0.,1.,0.));
#448=DIRECTION('ref_axis',(-1.,0.,0.));
#449=DIRECTION('center_axis',(0.,1.,0.));
#450=DIRECTION('ref_axis',(1.,0.,0.));
#451=DIRECTION('center_axis',(-1.,0.,0.));
#452=DIRECTION('ref_axis',(0.,-1.,0.));
#453=DIRECTION('',(2.91047878246787E-15,1.,0.));
#454=DIRECTION('',(0.,0.,1.));
#455=DIRECTION('center_axis',(0.,0.,1.));
#456=DIRECTION('ref_axis',(-1.,0.,0.));
#457=DIRECTION('',(1.,0.,0.));
#458=DIRECTION('center_axis',(0.,-1.,0.));
#459=DIRECTION('ref_axis',(1.,0.,0.));
#460=DIRECTION('',(0.,0.,1.));
#461=DIRECTION('',(1.,0.,0.));
#462=DIRECTION('',(0.,0.,1.));
#463=DIRECTION('center_axis',(-1.,0.,0.));
#464=DIRECTION('ref_axis',(0.,-1.,0.));
#465=DIRECTION('',(1.72253927473553E-14,1.,0.));
#466=DIRECTION('center_axis',(1.,0.,0.));
#467=DIRECTION('ref_axis',(0.,1.,0.));
#468=DIRECTION('',(0.,1.,0.));
#469=DIRECTION('center_axis',(0.,0.,1.));
#470=DIRECTION('ref_axis',(-1.,0.,0.));
#471=CARTESIAN_POINT('',(0.,0.,0.));
#472=CARTESIAN_POINT('Origin',(3.10592746097679,40.4594754258085,11.1));
#473=CARTESIAN_POINT('',(3.10592746097679,34.749990148502,13.));
#474=CARTESIAN_POINT('',(4.99999715346436,34.749990148502,11.25));
#475=CARTESIAN_POINT('Origin',(3.10592746097679,34.749990148502,11.1));
#476=CARTESIAN_POINT('',(3.10592746097679,43.749990148502,13.));
#477=CARTESIAN_POINT('',(3.10592746097679,40.4594754258085,13.));
#478=CARTESIAN_POINT('',(4.5,43.749990148502,12.3909538163472));
#479=CARTESIAN_POINT('Origin',(3.10592746097679,43.749990148502,11.1));
#480=CARTESIAN_POINT('',(4.49999999965864,40.8780579896617,12.3909538170844));
#481=CARTESIAN_POINT('',(4.5,40.4594754258085,12.3909538163472));
#482=CARTESIAN_POINT('',(4.99999715346437,40.8199173623042,11.25));
#483=CARTESIAN_POINT('Ctrl Pts',(4.49999999947401,40.8780579896444,12.3909538169152));
#484=CARTESIAN_POINT('Ctrl Pts',(4.64746826792381,40.8618241654223,12.2317060881027));
#485=CARTESIAN_POINT('Ctrl Pts',(4.77421569009589,40.8470341974283,12.037438487965));
#486=CARTESIAN_POINT('Ctrl Pts',(4.93817765529314,40.8275152435073,11.6414049512521));
#487=CARTESIAN_POINT('Ctrl Pts',(4.98470034153822,40.8217910558595,11.4431548524067));
#488=CARTESIAN_POINT('Ctrl Pts',(4.99999715346437,40.8199173623042,11.25));
#489=CARTESIAN_POINT('',(4.99999715346437,40.4594754258085,11.25));
#490=CARTESIAN_POINT('Origin',(-2.84653563775716E-6,38.749990148502,13.));
#491=CARTESIAN_POINT('',(-3.10593315404805,34.749990148502,13.));
#492=CARTESIAN_POINT('',(-2.50000284653564,34.749990148502,13.));
#493=CARTESIAN_POINT('',(-3.10593315404805,43.749990148502,13.));
#494=CARTESIAN_POINT('',(-3.10593315404805,35.4273614678286,13.));
#495=CARTESIAN_POINT('',(-10.0000028465356,43.749990148502,13.));
#496=CARTESIAN_POINT('Origin',(-3.10593315404805,35.4273614678286,11.1));
#497=CARTESIAN_POINT('',(-4.49999999965879,40.8780579896616,12.3909599648789));
#498=CARTESIAN_POINT('',(-5.00000284653563,40.8199166649644,11.25));
#499=CARTESIAN_POINT('Ctrl Pts',(-5.00000284653563,40.8199166649644,11.25));
#500=CARTESIAN_POINT('Ctrl Pts',(-4.98470603462359,40.8217903606833,11.4431548522285));
#501=CARTESIAN_POINT('Ctrl Pts',(-4.93818334845676,40.827514554908,11.6414049506931));
#502=CARTESIAN_POINT('Ctrl Pts',(-4.77422026122451,40.8470336655864,12.0374411982856));
#503=CARTESIAN_POINT('Ctrl Pts',(-4.64747066360843,40.8618239016969,12.2317110575693));
#504=CARTESIAN_POINT('Ctrl Pts',(-4.49999999947328,40.8780579896445,12.3909599647108));
#505=CARTESIAN_POINT('',(-4.5,43.749990148502,12.390959964142));
#506=CARTESIAN_POINT('',(-4.5,35.4273614678286,12.390959964142));
#507=CARTESIAN_POINT('Origin',(-3.10593315404805,43.749990148502,11.1));
#508=CARTESIAN_POINT('',(-5.00000284653564,34.749990148502,11.25));
#509=CARTESIAN_POINT('Origin',(-3.10593315404805,34.749990148502,11.1));
#510=CARTESIAN_POINT('',(-5.00000284653563,35.4273614678286,11.25));
#511=CARTESIAN_POINT('Origin',(-2.84653563054071E-6,37.1047327871553,11.25));
#512=CARTESIAN_POINT('',(7.49999715346437,40.4353269765192,11.25));
#513=CARTESIAN_POINT('',(7.49999715346437,33.749990148502,11.25));
#514=CARTESIAN_POINT('',(7.49999715346437,38.5793012925562,11.25));
#515=CARTESIAN_POINT('',(-7.50000284653563,33.749990148502,11.25));
#516=CARTESIAN_POINT('',(-5.00000284653563,33.749990148502,11.25));
#517=CARTESIAN_POINT('',(-7.50000284653563,40.4353259205606,11.25));
#518=CARTESIAN_POINT('',(-7.50000284653563,33.749990148502,11.25));
#519=CARTESIAN_POINT('Origin',(0.,0.,11.25));
#520=CARTESIAN_POINT('',(-2.50000284653564,34.749990148502,11.25));
#521=CARTESIAN_POINT('Origin',(0.,0.,11.25));
#522=CARTESIAN_POINT('Origin',(0.,0.,0.));
#523=CARTESIAN_POINT('',(4.5,40.8780579895865,13.75));
#524=CARTESIAN_POINT('',(9.99999715346436,39.8906716154379,13.75));
#525=CARTESIAN_POINT('Origin',(0.,0.,13.75));
#526=CARTESIAN_POINT('',(9.99999715346427,39.8906716154379,9.75));
#527=CARTESIAN_POINT('',(9.99999715346437,39.8906716154379,0.));
#528=CARTESIAN_POINT('',(7.49999715346437,40.4353269765192,9.75));
#529=CARTESIAN_POINT('Origin',(0.,0.,9.75));
#530=CARTESIAN_POINT('',(7.49999715346437,40.4353269765192,11.25));
#531=CARTESIAN_POINT('',(4.5,40.8780579895865,0.));
#532=CARTESIAN_POINT('Origin',(9.99999715346437,33.749990148502,9.75));
#533=CARTESIAN_POINT('',(9.99999715346436,33.749990148502,13.75));
#534=CARTESIAN_POINT('',(9.99999715346437,35.5937426113765,13.75));
#535=CARTESIAN_POINT('',(9.99999715346437,33.749990148502,9.75));
#536=CARTESIAN_POINT('',(9.99999715346436,33.749990148502,13.));
#537=CARTESIAN_POINT('',(9.99999715346437,33.749990148502,9.75));
#538=CARTESIAN_POINT('Origin',(-4.5,0.,13.75));
#539=CARTESIAN_POINT('',(-4.5,43.749990148502,13.75));
#540=CARTESIAN_POINT('',(4.5,43.749990148502,13.75));
#541=CARTESIAN_POINT('',(2.74999857673218,43.749990148502,13.75));
#542=CARTESIAN_POINT('',(-4.5,40.8780579895865,13.75));
#543=CARTESIAN_POINT('',(-4.5,0.,13.75));
#544=CARTESIAN_POINT('',(-10.0000028465356,39.8906701882693,13.75));
#545=CARTESIAN_POINT('Origin',(0.,0.,13.75));
#546=CARTESIAN_POINT('',(-10.0000028465356,33.749990148502,13.75));
#547=CARTESIAN_POINT('',(-10.0000028465356,38.4707245393591,13.75));
#548=CARTESIAN_POINT('',(-5.00000284653564,33.749990148502,13.75));
#549=CARTESIAN_POINT('',(4.5,0.,13.75));
#550=CARTESIAN_POINT('Origin',(4.5,0.,13.75));
#551=CARTESIAN_POINT('',(4.5,43.749990148502,13.375));
#552=CARTESIAN_POINT('Origin',(0.,0.,0.));
#553=CARTESIAN_POINT('',(-4.5,40.8780579895865,0.));
#554=CARTESIAN_POINT('',(-7.50000284653563,40.4353259205606,9.75));
#555=CARTESIAN_POINT('',(-7.50000284653563,40.4353259205606,11.25));
#556=CARTESIAN_POINT('',(-10.0000028465356,39.8906701882693,9.75));
#557=CARTESIAN_POINT('Origin',(0.,0.,9.75));
#558=CARTESIAN_POINT('',(-10.0000028465356,39.8906701882693,13.));
#559=CARTESIAN_POINT('Origin',(-4.5,0.,8.25));
#560=CARTESIAN_POINT('',(-4.5,43.749990148502,10.625));
#561=CARTESIAN_POINT('Origin',(9.99999715346436,43.749990148502,13.));
#562=CARTESIAN_POINT('Origin',(-5.00000284653564,34.749990148502,13.));
#563=CARTESIAN_POINT('Origin',(7.49999715346437,40.0538697979571,9.75));
#564=CARTESIAN_POINT('',(7.49999715346437,33.749990148502,9.75));
#565=CARTESIAN_POINT('',(7.49999715346437,40.0538697979571,9.75));
#566=CARTESIAN_POINT('',(7.49999715346437,33.749990148502,9.75));
#567=CARTESIAN_POINT('Origin',(8.74999715346437,36.9019299732296,9.75));
#568=CARTESIAN_POINT('',(-10.0000028465356,33.749990148502,9.75));
#569=CARTESIAN_POINT('Origin',(-10.0000028465356,33.749990148502,9.75));
#570=CARTESIAN_POINT('',(-10.0000028465356,33.749990148502,9.75));
#571=CARTESIAN_POINT('',(-10.0000028465356,33.749990148502,9.75));
#572=CARTESIAN_POINT('',(-7.50000284653563,33.749990148502,9.75));
#573=CARTESIAN_POINT('',(-10.0000028465356,33.749990148502,9.75));
#574=CARTESIAN_POINT('',(-7.50000284653563,33.749990148502,9.75));
#575=CARTESIAN_POINT('Origin',(-10.0000028465356,39.5039540044671,9.75));
#576=CARTESIAN_POINT('',(-10.0000028465356,39.5039540044671,9.75));
#577=CARTESIAN_POINT('Origin',(-7.50000284653563,33.749990148502,9.75));
#578=CARTESIAN_POINT('',(-7.50000284653563,33.749990148502,9.75));
#579=CARTESIAN_POINT('Origin',(-8.75000284653563,36.9019294141577,9.75));
#580=UNCERTAINTY_MEASURE_WITH_UNIT(LENGTH_MEASURE(0.01),#584,
'DISTANCE_ACCURACY_VALUE',
'Maximum model space distance between geometric entities at asserted c
onnectivities');
#581=UNCERTAINTY_MEASURE_WITH_UNIT(LENGTH_MEASURE(0.01),#584,
'DISTANCE_ACCURACY_VALUE',
'Maximum model space distance between geometric entities at asserted c
onnectivities');
#582=(
GEOMETRIC_REPRESENTATION_CONTEXT(3)
GLOBAL_UNCERTAINTY_ASSIGNED_CONTEXT((#580))
GLOBAL_UNIT_ASSIGNED_CONTEXT((#584,#585,#586))
REPRESENTATION_CONTEXT('','3D')
);
#583=(
GEOMETRIC_REPRESENTATION_CONTEXT(3)
GLOBAL_UNCERTAINTY_ASSIGNED_CONTEXT((#581))
GLOBAL_UNIT_ASSIGNED_CONTEXT((#584,#585,#586))
REPRESENTATION_CONTEXT('','3D')
);
#584=(
LENGTH_UNIT()
NAMED_UNIT(*)
SI_UNIT(.MILLI.,.METRE.)
);
#585=(
NAMED_UNIT(*)
PLANE_ANGLE_UNIT()
SI_UNIT($,.RADIAN.)
);
#586=(
NAMED_UNIT(*)
SI_UNIT($,.STERADIAN.)
SOLID_ANGLE_UNIT()
);
#587=SHAPE_DEFINITION_REPRESENTATION(#588,#589);
#588=PRODUCT_DEFINITION_SHAPE('',$,#591);
#589=SHAPE_REPRESENTATION('',(#348),#582);
#590=PRODUCT_DEFINITION_CONTEXT('part definition',#595,'design');
#591=PRODUCT_DEFINITION('2026-09-02-17-14-02-378','PCB Design',#592,#590);
#592=PRODUCT_DEFINITION_FORMATION('',$,#597);
#593=PRODUCT_RELATED_PRODUCT_CATEGORY('PCB Design','PCB Design',(#597));
#594=APPLICATION_PROTOCOL_DEFINITION('international standard',
'automotive_design',2009,#595);
#595=APPLICATION_CONTEXT(
'Core Data for Automotive Mechanical Design Process');
#596=PRODUCT_CONTEXT('part definition',#595,'mechanical');
#597=PRODUCT('2026-09-02-17-14-02-378','PCB Design',$,(#596));
#598=PRESENTATION_STYLE_ASSIGNMENT((#599));
#599=SURFACE_STYLE_USAGE(.BOTH.,#600);
#600=SURFACE_SIDE_STYLE('',(#601));
#601=SURFACE_STYLE_FILL_AREA(#602);
#602=FILL_AREA_STYLE('Stahl - satiniert',(#603));
#603=FILL_AREA_STYLE_COLOUR('Stahl - satiniert',#604);
#604=COLOUR_RGB('Stahl - satiniert',0.627450980392157,0.627450980392157,
0.627450980392157);
ENDSEC;
END-ISO-10303-21;
