ISO-10303-21;
HEADER;
/* Generated by software containing ST-Developer
 * from STEP Tools, Inc. (www.steptools.com) 
 */

FILE_DESCRIPTION(
/* description */ (''),
/* implementation_level */ '2;1');

FILE_NAME(
/* name */ 'microphone_holder.step',
/* time_stamp */ '2026-09-21T09:37:22+02:00',
/* author */ (''),
/* organization */ (''),
/* preprocessor_version */ 'ST-DEVELOPER v20.2',
/* originating_system */ 'Autodesk Translation Framework v15.15.0.0',
/* authorisation */ '');

FILE_SCHEMA (('AUTOMOTIVE_DESIGN { 1 0 10303 214 3 1 1 }'));
ENDSEC;

DATA;
#10=MECHANICAL_DESIGN_GEOMETRIC_PRESENTATION_REPRESENTATION('',(#13),#243);
#11=SHAPE_REPRESENTATION_RELATIONSHIP('SRR','None',#249,#12);
#12=ADVANCED_BREP_SHAPE_REPRESENTATION('',(#14),#242);
#13=STYLED_ITEM('',(#258),#14);
#14=MANIFOLD_SOLID_BREP('K\X\F6rper6',#95);
#15=FACE_BOUND('',#34,.T.);
#16=PLANE('',#105);
#17=LINE('',#233,#19);
#18=LINE('',#237,#20);
#19=VECTOR('',#118,3.075);
#20=VECTOR('',#123,5.);
#21=CYLINDRICAL_SURFACE('',#100,41.125);
#22=CYLINDRICAL_SURFACE('',#101,3.075);
#23=CYLINDRICAL_SURFACE('',#103,5.);
#24=FACE_OUTER_BOUND('',#29,.T.);
#25=FACE_OUTER_BOUND('',#30,.T.);
#26=FACE_OUTER_BOUND('',#31,.T.);
#27=FACE_OUTER_BOUND('',#32,.T.);
#28=FACE_OUTER_BOUND('',#33,.T.);
#29=EDGE_LOOP('',(#65,#66,#67,#68));
#30=EDGE_LOOP('',(#69,#70,#71,#72,#73,#74));
#31=EDGE_LOOP('',(#75,#76,#77,#78,#79,#80));
#32=EDGE_LOOP('',(#81,#82,#83,#84,#85,#86));
#33=EDGE_LOOP('',(#87));
#34=EDGE_LOOP('',(#88));
#35=CIRCLE('',#98,41.125);
#36=CIRCLE('',#99,41.125);
#37=CIRCLE('',#102,3.075);
#38=CIRCLE('',#104,5.);
#39=B_SPLINE_CURVE_WITH_KNOTS('',3,(#132,#133,#134,#135,#136,#137,#138,
#139,#140,#141),.UNSPECIFIED.,.F.,.F.,(4,2,2,2,4),(1.69291606210833,1.74726886028644,
1.80495952855177,1.8626501968171,1.9170029949952),.UNSPECIFIED.);
#40=B_SPLINE_CURVE_WITH_KNOTS('',3,(#145,#146,#147,#148,#149,#150,#151,
#152,#153,#154,#155,#156,#157,#158,#159,#160,#161,#162),.UNSPECIFIED.,.F.,
 .F.,(4,2,2,2,2,2,2,2,4),(0.451688624030826,0.634393742799267,0.823372316929918,
0.917861603995244,1.01235089106057,1.1068401781259,1.20132946519122,1.39030803932187,
1.57301315809031),.UNSPECIFIED.);
#41=B_SPLINE_CURVE_WITH_KNOTS('',3,(#166,#167,#168,#169,#170,#171,#172,
#173,#174,#175,#176,#177,#178,#179,#180,#181,#182,#183,#184,#185,#186,#187,
#188,#189,#190,#191),.UNSPECIFIED.,.F.,.F.,(4,2,2,2,2,2,2,2,2,2,2,2,4),
(0.569326304932428,0.579387746777517,0.695265247022049,0.811142870044008,
0.927020493065967,1.04289811608793,1.15877573910988,1.27465323935442,1.39053073959895,
1.50640823984348,1.62228574008802,1.73816336310998,1.85404098613193),
 .UNSPECIFIED.);
#42=B_SPLINE_CURVE_WITH_KNOTS('',3,(#193,#194,#195,#196,#197,#198,#199,
#200,#201,#202,#203,#204,#205,#206,#207,#208,#209,#210,#211,#212,#213,#214),
 .UNSPECIFIED.,.F.,.F.,(4,2,2,2,2,2,2,2,2,2,4),(0.,0.188544429080447,0.377088858160894,
0.565631878654719,0.754174899148543,0.942717919642368,1.13126094013619,
1.31980536921664,1.50834979829709,1.69689422737753,1.80159186702149),
 .UNSPECIFIED.);
#43=B_SPLINE_CURVE_WITH_KNOTS('',3,(#215,#216,#217,#218,#219,#220),
 .UNSPECIFIED.,.F.,.F.,(4,2,4),(-0.293242068724408,-0.188544429080447,0.),
 .UNSPECIFIED.);
#44=B_SPLINE_CURVE_WITH_KNOTS('',3,(#221,#222,#223,#224,#225,#226,#227,
#228,#229,#230),.UNSPECIFIED.,.F.,.F.,(4,2,2,2,4),(1.85404098613193,1.96991860915389,
2.08579623217585,2.20167373242039,2.21173517426547),.UNSPECIFIED.);
#45=VERTEX_POINT('',#130);
#46=VERTEX_POINT('',#131);
#47=VERTEX_POINT('',#142);
#48=VERTEX_POINT('',#144);
#49=VERTEX_POINT('',#165);
#50=VERTEX_POINT('',#192);
#51=VERTEX_POINT('',#232);
#52=VERTEX_POINT('',#236);
#53=EDGE_CURVE('',#45,#46,#39,.T.);
#54=EDGE_CURVE('',#45,#47,#35,.T.);
#55=EDGE_CURVE('',#48,#47,#40,.T.);
#56=EDGE_CURVE('',#48,#46,#36,.T.);
#57=EDGE_CURVE('',#46,#49,#41,.T.);
#58=EDGE_CURVE('',#50,#48,#42,.T.);
#59=EDGE_CURVE('',#47,#50,#43,.T.);
#60=EDGE_CURVE('',#49,#45,#44,.T.);
#61=EDGE_CURVE('',#49,#51,#17,.T.);
#62=EDGE_CURVE('',#51,#51,#37,.T.);
#63=EDGE_CURVE('',#50,#52,#18,.T.);
#64=EDGE_CURVE('',#52,#52,#38,.T.);
#65=ORIENTED_EDGE('',*,*,#53,.F.);
#66=ORIENTED_EDGE('',*,*,#54,.T.);
#67=ORIENTED_EDGE('',*,*,#55,.F.);
#68=ORIENTED_EDGE('',*,*,#56,.T.);
#69=ORIENTED_EDGE('',*,*,#57,.F.);
#70=ORIENTED_EDGE('',*,*,#56,.F.);
#71=ORIENTED_EDGE('',*,*,#58,.F.);
#72=ORIENTED_EDGE('',*,*,#59,.F.);
#73=ORIENTED_EDGE('',*,*,#54,.F.);
#74=ORIENTED_EDGE('',*,*,#60,.F.);
#75=ORIENTED_EDGE('',*,*,#57,.T.);
#76=ORIENTED_EDGE('',*,*,#61,.T.);
#77=ORIENTED_EDGE('',*,*,#62,.T.);
#78=ORIENTED_EDGE('',*,*,#61,.F.);
#79=ORIENTED_EDGE('',*,*,#60,.T.);
#80=ORIENTED_EDGE('',*,*,#53,.T.);
#81=ORIENTED_EDGE('',*,*,#59,.T.);
#82=ORIENTED_EDGE('',*,*,#63,.T.);
#83=ORIENTED_EDGE('',*,*,#64,.T.);
#84=ORIENTED_EDGE('',*,*,#63,.F.);
#85=ORIENTED_EDGE('',*,*,#58,.T.);
#86=ORIENTED_EDGE('',*,*,#55,.T.);
#87=ORIENTED_EDGE('',*,*,#64,.F.);
#88=ORIENTED_EDGE('',*,*,#62,.F.);
#89=SPHERICAL_SURFACE('',#97,70.4463443396227);
#90=ADVANCED_FACE('',(#24),#89,.T.);
#91=ADVANCED_FACE('',(#25),#21,.T.);
#92=ADVANCED_FACE('',(#26),#22,.F.);
#93=ADVANCED_FACE('',(#27),#23,.T.);
#94=ADVANCED_FACE('',(#28,#15),#16,.F.);
#95=CLOSED_SHELL('',(#90,#91,#92,#93,#94));
#96=AXIS2_PLACEMENT_3D('',#128,#106,#107);
#97=AXIS2_PLACEMENT_3D('',#129,#108,#109);
#98=AXIS2_PLACEMENT_3D('',#143,#110,#111);
#99=AXIS2_PLACEMENT_3D('',#163,#112,#113);
#100=AXIS2_PLACEMENT_3D('',#164,#114,#115);
#101=AXIS2_PLACEMENT_3D('',#231,#116,#117);
#102=AXIS2_PLACEMENT_3D('',#234,#119,#120);
#103=AXIS2_PLACEMENT_3D('',#235,#121,#122);
#104=AXIS2_PLACEMENT_3D('',#238,#124,#125);
#105=AXIS2_PLACEMENT_3D('',#239,#126,#127);
#106=DIRECTION('axis',(0.,0.,1.));
#107=DIRECTION('refdir',(1.,0.,0.));
#108=DIRECTION('center_axis',(6.12323399573677E-17,0.,1.));
#109=DIRECTION('ref_axis',(1.,0.,0.));
#110=DIRECTION('center_axis',(0.,0.,1.));
#111=DIRECTION('ref_axis',(1.,0.,0.));
#112=DIRECTION('center_axis',(0.,0.,1.));
#113=DIRECTION('ref_axis',(1.,0.,0.));
#114=DIRECTION('center_axis',(0.,0.,1.));
#115=DIRECTION('ref_axis',(1.,0.,0.));
#116=DIRECTION('center_axis',(0.838670567945424,0.544639035015027,0.));
#117=DIRECTION('ref_axis',(0.544639035015027,-0.838670567945424,0.));
#118=DIRECTION('',(-0.838670567945424,-0.544639035015027,0.));
#119=DIRECTION('center_axis',(-0.838670567945424,-0.544639035015027,0.));
#120=DIRECTION('ref_axis',(0.544639035015027,-0.838670567945424,0.));
#121=DIRECTION('center_axis',(0.838670567945424,0.544639035015027,0.));
#122=DIRECTION('ref_axis',(0.544639035015027,-0.838670567945424,0.));
#123=DIRECTION('',(-0.838670567945424,-0.544639035015027,0.));
#124=DIRECTION('center_axis',(0.838670567945424,0.544639035015027,0.));
#125=DIRECTION('ref_axis',(0.544639035015027,-0.838670567945424,0.));
#126=DIRECTION('center_axis',(0.838670567945424,0.544639035015027,0.));
#127=DIRECTION('ref_axis',(0.544639035015027,-0.838670567945424,0.));
#128=CARTESIAN_POINT('',(0.,0.,0.));
#129=CARTESIAN_POINT('Origin',(1.77635683940025E-14,0.,-40.4463443396227));
#130=CARTESIAN_POINT('',(33.8915806808021,23.2943423164656,16.75));
#131=CARTESIAN_POINT('',(35.065388366621,21.4868369868168,16.75));
#132=CARTESIAN_POINT('Ctrl Pts',(33.8915806808022,23.2943423164656,16.75));
#133=CARTESIAN_POINT('Ctrl Pts',(33.912427695704,23.1167263685202,16.8099847498021));
#134=CARTESIAN_POINT('Ctrl Pts',(33.9514860044645,22.9391674857001,16.8582150892054));
#135=CARTESIAN_POINT('Ctrl Pts',(34.0724771938162,22.5859576692227,16.9267019859874));
#136=CARTESIAN_POINT('Ctrl Pts',(34.1569952554695,22.4111061969758,16.9449999999998));
#137=CARTESIAN_POINT('Ctrl Pts',(34.3664658547589,22.0885497601809,16.9449999999998));
#138=CARTESIAN_POINT('Ctrl Pts',(34.4918240303161,21.9402201680102,16.9267019859874));
#139=CARTESIAN_POINT('Ctrl Pts',(34.7652857035551,21.6860258415077,16.8582150892054));
#140=CARTESIAN_POINT('Ctrl Pts',(34.9116073690299,21.5781245970098,16.8099847498021));
#141=CARTESIAN_POINT('Ctrl Pts',(35.0653883666211,21.4868369868168,16.75));
#142=CARTESIAN_POINT('',(32.0934889549519,25.715240455776,16.75));
#143=CARTESIAN_POINT('Origin',(0.,0.,16.75));
#144=CARTESIAN_POINT('',(36.5456390726888,18.85953047583,16.75));
#145=CARTESIAN_POINT('Ctrl Pts',(36.5456390726888,18.85953047583,16.75));
#146=CARTESIAN_POINT('Ctrl Pts',(36.0119153794116,18.8124800653497,17.1065371588841));
#147=CARTESIAN_POINT('Ctrl Pts',(35.4713350662641,18.8226070238119,17.4376101386536));
#148=CARTESIAN_POINT('Ctrl Pts',(34.3958658771229,18.9836079847379,18.0312691485996));
#149=CARTESIAN_POINT('Ctrl Pts',(33.7951628696465,19.1534698718689,18.3256562088584));
#150=CARTESIAN_POINT('Ctrl Pts',(32.9769511821107,19.5969591452471,18.6406642037283));
#151=CARTESIAN_POINT('Ctrl Pts',(32.7175020748609,19.7759007655902,18.7251667727674));
#152=CARTESIAN_POINT('Ctrl Pts',(32.250924724644,20.1943603460083,18.8398647233088));
#153=CARTESIAN_POINT('Ctrl Pts',(32.0438783674901,20.4339860691358,18.8699999999998));
#154=CARTESIAN_POINT('Ctrl Pts',(31.7007946733133,20.9622886294547,18.8699999999998));
#155=CARTESIAN_POINT('Ctrl Pts',(31.5660990226857,21.2488994507736,18.8398647233088));
#156=CARTESIAN_POINT('Ctrl Pts',(31.3735912789502,21.8453419147053,18.7251667727674));
#157=CARTESIAN_POINT('Ctrl Pts',(31.3156474334343,22.1551425820876,18.6406642037283));
#158=CARTESIAN_POINT('Ctrl Pts',(31.2432964973401,23.08299949092,18.3256562088584));
#159=CARTESIAN_POINT('Ctrl Pts',(31.3324478666715,23.7008580485505,18.0312691485996));
#160=CARTESIAN_POINT('Ctrl Pts',(31.6227988978642,24.748833031504,17.4376101386536));
#161=CARTESIAN_POINT('Ctrl Pts',(31.8334212828438,25.2467967261605,17.1065371588841));
#162=CARTESIAN_POINT('Ctrl Pts',(32.093488954952,25.715240455776,16.75));
#163=CARTESIAN_POINT('Origin',(0.,0.,16.75));
#164=CARTESIAN_POINT('Origin',(0.,0.,0.));
#165=CARTESIAN_POINT('',(32.7190116841369,24.9144917550672,13.8699999999998));
#166=CARTESIAN_POINT('Ctrl Pts',(35.065388366621,21.4868369868168,16.75));
#167=CARTESIAN_POINT('Ctrl Pts',(35.0828099879814,21.4584058166379,16.7375279297433));
#168=CARTESIAN_POINT('Ctrl Pts',(35.1000903701899,21.4301274752428,16.7244726550621));
#169=CARTESIAN_POINT('Ctrl Pts',(35.3144204172268,21.0784471164537,16.5539167125692));
#170=CARTESIAN_POINT('Ctrl Pts',(35.4897920062906,20.7801585776641,16.3172880294325));
#171=CARTESIAN_POINT('Ctrl Pts',(35.7628550491092,20.3066128652057,15.7714183856778));
#172=CARTESIAN_POINT('Ctrl Pts',(35.8788171259034,20.0997724287583,15.4257384827984));
#173=CARTESIAN_POINT('Ctrl Pts',(36.0315307398423,19.8247109095072,14.6681647953513));
#174=CARTESIAN_POINT('Ctrl Pts',(36.0685417494794,19.7566677622028,14.2562587434064));
#175=CARTESIAN_POINT('Ctrl Pts',(36.0685417494794,19.7566677622028,13.4837412565933));
#176=CARTESIAN_POINT('Ctrl Pts',(36.0315307398423,19.8247109095072,13.0718352046483));
#177=CARTESIAN_POINT('Ctrl Pts',(35.8788171259035,20.0997724287583,12.3142615172013));
#178=CARTESIAN_POINT('Ctrl Pts',(35.7628550491092,20.3066128652057,11.9685816143218));
#179=CARTESIAN_POINT('Ctrl Pts',(35.4897920062906,20.7801585776641,11.4227119705671));
#180=CARTESIAN_POINT('Ctrl Pts',(35.3144204172267,21.0784471164537,11.1860832874305));
#181=CARTESIAN_POINT('Ctrl Pts',(34.9200065899254,21.7256153423481,10.8722233178293));
#182=CARTESIAN_POINT('Ctrl Pts',(34.7006984731327,22.0743368185191,10.7949999999998));
#183=CARTESIAN_POINT('Ctrl Pts',(34.2799557403784,22.7222238114669,10.7949999999998));
#184=CARTESIAN_POINT('Ctrl Pts',(34.0505834670636,23.0644095479733,10.8722233178293));
#185=CARTESIAN_POINT('Ctrl Pts',(33.6197884300663,23.6879515400415,11.1860832874305));
#186=CARTESIAN_POINT('Ctrl Pts',(33.418618341815,23.9694863375655,11.4227119705671));
#187=CARTESIAN_POINT('Ctrl Pts',(33.0970775525965,24.4115502334109,11.9685816143218));
#188=CARTESIAN_POINT('Ctrl Pts',(32.9552854372626,24.601616446698,12.3142615172013));
#189=CARTESIAN_POINT('Ctrl Pts',(32.766118458464,24.8530048740115,13.0718352046483));
#190=CARTESIAN_POINT('Ctrl Pts',(32.7190116841369,24.9144917550672,13.4837412565933));
#191=CARTESIAN_POINT('Ctrl Pts',(32.7190116841369,24.9144917550672,13.8699999999998));
#192=CARTESIAN_POINT('',(31.5112678102347,26.4254730514265,13.8699999999998));
#193=CARTESIAN_POINT('Ctrl Pts',(31.5112678102347,26.4254730514265,13.8699999999998));
#194=CARTESIAN_POINT('Ctrl Pts',(31.5112678102347,26.4254730514265,13.2415185697317));
#195=CARTESIAN_POINT('Ctrl Pts',(31.59317374886,26.3287480235519,12.5715748423154));
#196=CARTESIAN_POINT('Ctrl Pts',(31.919580617287,25.93206456892,11.3398646542498));
#197=CARTESIAN_POINT('Ctrl Pts',(32.1633519871606,25.6316726130682,10.7780446267917));
#198=CARTESIAN_POINT('Ctrl Pts',(32.7107328032459,24.9293363029647,9.89089087524999));
#199=CARTESIAN_POINT('Ctrl Pts',(33.0508621229517,24.4803235682699,9.5061909840007));
#200=CARTESIAN_POINT('Ctrl Pts',(33.7698384645084,23.478580432979,8.99572841708501));
#201=CARTESIAN_POINT('Ctrl Pts',(34.148034144287,22.9253652552587,8.86999999999984));
#202=CARTESIAN_POINT('Ctrl Pts',(34.8326200692241,21.8711953747273,8.86999999999984));
#203=CARTESIAN_POINT('Ctrl Pts',(35.1841812407105,21.300683545081,8.99572841708501));
#204=CARTESIAN_POINT('Ctrl Pts',(35.8068851080646,20.236420334027,9.5061909840007));
#205=CARTESIAN_POINT('Ctrl Pts',(36.0787355945599,19.7430668065906,9.89089087524999));
#206=CARTESIAN_POINT('Ctrl Pts',(36.4977119047738,18.9573436353734,10.7780446267917));
#207=CARTESIAN_POINT('Ctrl Pts',(36.6729828628942,18.612466991992,11.3398646542498));
#208=CARTESIAN_POINT('Ctrl Pts',(36.9026095970542,18.1529337832965,12.5715748423154));
#209=CARTESIAN_POINT('Ctrl Pts',(36.957658160385,18.0387673719722,13.2415185697317));
#210=CARTESIAN_POINT('Ctrl Pts',(36.957658160385,18.0387673719722,14.498481430268));
#211=CARTESIAN_POINT('Ctrl Pts',(36.9026095970542,18.1529337832965,15.1684251576842));
#212=CARTESIAN_POINT('Ctrl Pts',(36.7240410260073,18.5102884646908,16.1262610517991));
#213=CARTESIAN_POINT('Ctrl Pts',(36.6422639161169,18.6722926939614,16.4524589864889));
#214=CARTESIAN_POINT('Ctrl Pts',(36.5456390726888,18.85953047583,16.75));
#215=CARTESIAN_POINT('Ctrl Pts',(32.0934889549519,25.715240455776,16.75));
#216=CARTESIAN_POINT('Ctrl Pts',(31.9617395942804,25.8796681094393,16.4524589864889));
#217=CARTESIAN_POINT('Ctrl Pts',(31.8470031136687,26.0202682730964,16.1262610517992));
#218=CARTESIAN_POINT('Ctrl Pts',(31.59317374886,26.3287480235519,15.1684251576842));
#219=CARTESIAN_POINT('Ctrl Pts',(31.5112678102347,26.4254730514265,14.498481430268));
#220=CARTESIAN_POINT('Ctrl Pts',(31.5112678102347,26.4254730514265,13.8699999999998));
#221=CARTESIAN_POINT('Ctrl Pts',(32.7190116841369,24.9144917550672,13.8699999999998));
#222=CARTESIAN_POINT('Ctrl Pts',(32.7190116841369,24.9144917550672,14.2562587434064));
#223=CARTESIAN_POINT('Ctrl Pts',(32.766118458464,24.8530048740115,14.6681647953513));
#224=CARTESIAN_POINT('Ctrl Pts',(32.9552854372626,24.601616446698,15.4257384827984));
#225=CARTESIAN_POINT('Ctrl Pts',(33.0970775525965,24.4115502334109,15.7714183856778));
#226=CARTESIAN_POINT('Ctrl Pts',(33.418618341815,23.9694863375655,16.3172880294325));
#227=CARTESIAN_POINT('Ctrl Pts',(33.6197884300663,23.6879515400415,16.5539167125692));
#228=CARTESIAN_POINT('Ctrl Pts',(33.8538885405382,23.3491100105651,16.7244726550621));
#229=CARTESIAN_POINT('Ctrl Pts',(33.8726935262188,23.3218217582414,16.7375279297433));
#230=CARTESIAN_POINT('Ctrl Pts',(33.8915806808021,23.2943423164656,16.75));
#231=CARTESIAN_POINT('Origin',(31.8694815819261,20.6962833305711,13.8699999999998));
#232=CARTESIAN_POINT('',(30.1947165492549,23.2751953270032,13.8699999999998));
#233=CARTESIAN_POINT('',(30.1947165492549,23.2751953270032,13.8699999999998));
#234=CARTESIAN_POINT('Origin',(31.8694815819261,20.6962833305711,13.8699999999998));
#235=CARTESIAN_POINT('Origin',(31.8694815819261,20.6962833305711,13.8699999999998));
#236=CARTESIAN_POINT('',(29.146286406851,24.8896361702982,13.8699999999998));
#237=CARTESIAN_POINT('',(29.146286406851,24.8896361702982,13.8699999999998));
#238=CARTESIAN_POINT('Origin',(31.8694815819261,20.6962833305711,13.8699999999998));
#239=CARTESIAN_POINT('Origin',(31.8694815819261,20.6962833305711,13.8699999999998));
#240=UNCERTAINTY_MEASURE_WITH_UNIT(LENGTH_MEASURE(0.01),#244,
'DISTANCE_ACCURACY_VALUE',
'Maximum model space distance between geometric entities at asserted c
onnectivities');
#241=UNCERTAINTY_MEASURE_WITH_UNIT(LENGTH_MEASURE(0.01),#244,
'DISTANCE_ACCURACY_VALUE',
'Maximum model space distance between geometric entities at asserted c
onnectivities');
#242=(
GEOMETRIC_REPRESENTATION_CONTEXT(3)
GLOBAL_UNCERTAINTY_ASSIGNED_CONTEXT((#240))
GLOBAL_UNIT_ASSIGNED_CONTEXT((#244,#245,#246))
REPRESENTATION_CONTEXT('','3D')
);
#243=(
GEOMETRIC_REPRESENTATION_CONTEXT(3)
GLOBAL_UNCERTAINTY_ASSIGNED_CONTEXT((#241))
GLOBAL_UNIT_ASSIGNED_CONTEXT((#244,#245,#246))
REPRESENTATION_CONTEXT('','3D')
);
#244=(
LENGTH_UNIT()
NAMED_UNIT(*)
SI_UNIT(.MILLI.,.METRE.)
);
#245=(
NAMED_UNIT(*)
PLANE_ANGLE_UNIT()
SI_UNIT($,.RADIAN.)
);
#246=(
NAMED_UNIT(*)
SI_UNIT($,.STERADIAN.)
SOLID_ANGLE_UNIT()
);
#247=SHAPE_DEFINITION_REPRESENTATION(#248,#249);
#248=PRODUCT_DEFINITION_SHAPE('',$,#251);
#249=SHAPE_REPRESENTATION('',(#96),#242);
#250=PRODUCT_DEFINITION_CONTEXT('part definition',#255,'design');
#251=PRODUCT_DEFINITION('2026-09-02-17-14-02-378','PCB Design',#252,#250);
#252=PRODUCT_DEFINITION_FORMATION('',$,#257);
#253=PRODUCT_RELATED_PRODUCT_CATEGORY('PCB Design','PCB Design',(#257));
#254=APPLICATION_PROTOCOL_DEFINITION('international standard',
'automotive_design',2009,#255);
#255=APPLICATION_CONTEXT(
'Core Data for Automotive Mechanical Design Process');
#256=PRODUCT_CONTEXT('part definition',#255,'mechanical');
#257=PRODUCT('2026-09-02-17-14-02-378','PCB Design',$,(#256));
#258=PRESENTATION_STYLE_ASSIGNMENT((#259));
#259=SURFACE_STYLE_USAGE(.BOTH.,#260);
#260=SURFACE_SIDE_STYLE('',(#261));
#261=SURFACE_STYLE_FILL_AREA(#262);
#262=FILL_AREA_STYLE('Stahl - satiniert',(#263));
#263=FILL_AREA_STYLE_COLOUR('Stahl - satiniert',#264);
#264=COLOUR_RGB('Stahl - satiniert',0.627450980392157,0.627450980392157,
0.627450980392157);
ENDSEC;
END-ISO-10303-21;
